<svg width="40" height="40" viewBox="0 0 40 40" fill="none" xmlns="http://www.w3.org/2000/svg">
<path d="M28 19H30.5C31 19 32 19.3 32 20.5V25.5C32 27 29.8 29.5 27 29.5M12 19H9.5C9 19 8 19.3 8 20.5V25.5C8 27 10.2 29.5 13 29.5M16.5 19H23.5C24.1667 19 25.5 19.4 25.5 21V26.5C25.5 28 23 31 20 31C17 31 14.5 28 14.5 26.5V21C14.5 20.3333 14.9 19 16.5 19Z" stroke="white" stroke-width="1.7" stroke-linecap="round"/>
<path d="M23.3 12C23.3 13.8225 21.8225 15.3 20 15.3C18.1775 15.3 16.7 13.8225 16.7 12C16.7 10.1775 18.1775 8.7 20 8.7C21.8225 8.7 23.3 10.1775 23.3 12ZM30.3 13C30.3 14.2703 29.2703 15.3 28 15.3C26.7297 15.3 25.7 14.2703 25.7 13C25.7 11.7297 26.7297 10.7 28 10.7C29.2703 10.7 30.3 11.7297 30.3 13ZM14.3 13C14.3 14.2703 13.2703 15.3 12 15.3C10.7297 15.3 9.7 14.2703 9.7 13C9.7 11.7297 10.7297 10.7 12 10.7C13.2703 10.7 14.3 11.7297 14.3 13Z" stroke="white" stroke-width="1.4"/>
</svg>
