<svg width="36" height="36" viewBox="0 0 36 36" fill="none" xmlns="http://www.w3.org/2000/svg">
<rect width="36" height="36" rx="12" fill="#98A4BB"/>
<path d="M18 9.66669C15.7985 9.69476 13.6952 10.5817 12.1384 12.1385C10.5817 13.6953 9.6947 15.7986 9.66663 18C9.67692 19.2825 9.98306 20.5452 10.5612 21.69C11.1394 22.8347 11.974 23.8306 13 24.6V24.6667H13.0833C14.4943 25.7479 16.2223 26.3339 18 26.3339C19.7776 26.3339 21.5056 25.7479 22.9166 24.6667H23V24.6C24.026 23.8306 24.8605 22.8347 25.4387 21.69C26.0169 20.5452 26.323 19.2825 26.3333 18C26.3052 15.7986 25.4182 13.6953 23.8615 12.1385C22.3047 10.5817 20.2014 9.69476 18 9.66669ZM14.725 23.775C14.8466 23.2179 15.1551 22.7191 15.5992 22.3614C16.0433 22.0037 16.5964 21.8085 17.1666 21.8084H18.8333C19.4036 21.8085 19.9566 22.0037 20.4007 22.3614C20.8448 22.7191 21.1533 23.2179 21.275 23.775C20.2823 24.359 19.1516 24.667 18 24.667C16.8483 24.667 15.7176 24.359 14.725 23.775ZM22.675 22.7C22.358 21.9425 21.8242 21.2955 21.1407 20.8403C20.4572 20.3852 19.6545 20.1421 18.8333 20.1417H17.1666C16.3454 20.1421 15.5427 20.3852 14.8592 20.8403C14.1757 21.2955 13.6419 21.9425 13.325 22.7C12.7005 22.0858 12.2032 21.3546 11.8615 20.5482C11.5197 19.7417 11.3403 18.8759 11.3333 18C11.3549 16.2386 12.0642 14.5555 13.3098 13.3099C14.5554 12.0643 16.2386 11.355 18 11.3334C19.7614 11.355 21.4445 12.0643 22.6901 13.3099C23.9357 14.5555 24.645 16.2386 24.6666 18C24.6597 18.8759 24.4802 19.7417 24.1384 20.5482C23.7967 21.3546 23.2994 22.0858 22.675 22.7Z" fill="white"/>
<path d="M18 13C17.5594 12.9898 17.1214 13.069 16.7123 13.2329C16.3033 13.3967 15.9317 13.6419 15.6201 13.9535C15.3085 14.2651 15.0634 14.6367 14.8995 15.0457C14.7356 15.4548 14.6564 15.8928 14.6667 16.3334C14.6564 16.7739 14.7356 17.212 14.8995 17.621C15.0634 18.0301 15.3085 18.4016 15.6201 18.7132C15.9317 19.0248 16.3033 19.27 16.7123 19.4339C17.1214 19.5978 17.5594 19.677 18 19.6667C18.4405 19.677 18.8786 19.5978 19.2876 19.4339C19.6967 19.27 20.0683 19.0248 20.3799 18.7132C20.6915 18.4016 20.9366 18.0301 21.1005 17.621C21.2644 17.212 21.3436 16.7739 21.3333 16.3334C21.3436 15.8928 21.2644 15.4548 21.1005 15.0457C20.9366 14.6367 20.6915 14.2651 20.3799 13.9535C20.0683 13.6419 19.6967 13.3967 19.2876 13.2329C18.8786 13.069 18.4405 12.9898 18 13ZM18 18C17.7783 18.0107 17.5568 17.975 17.3497 17.895C17.1427 17.815 16.9546 17.6927 16.7977 17.5357C16.6407 17.3787 16.5183 17.1907 16.4383 16.9836C16.3584 16.7766 16.3226 16.5551 16.3333 16.3334C16.3226 16.1117 16.3584 15.8902 16.4383 15.6831C16.5183 15.476 16.6407 15.288 16.7977 15.131C16.9546 14.9741 17.1427 14.8517 17.3497 14.7717C17.5568 14.6918 17.7783 14.656 18 14.6667C18.2217 14.656 18.4432 14.6918 18.6503 14.7717C18.8573 14.8517 19.0454 14.9741 19.2023 15.131C19.3593 15.288 19.4817 15.476 19.5616 15.6831C19.6416 15.8902 19.6774 16.1117 19.6667 16.3334C19.6774 16.5551 19.6416 16.7766 19.5616 16.9836C19.4817 17.1907 19.3593 17.3787 19.2023 17.5357C19.0454 17.6927 18.8573 17.815 18.6503 17.895C18.4432 17.975 18.2217 18.0107 18 18Z" fill="white"/>
</svg>
