<svg width="94" height="71" viewBox="0 0 94 71" fill="none" xmlns="http://www.w3.org/2000/svg">
<g opacity="0.1">
<rect x="2" y="2" width="89.1445" height="66.776" rx="3" fill="#1B47C3" stroke="white" stroke-width="4"/>
<g clip-path="url(#clip0_1_4734)">
<path d="M56.4237 41.7189C65.1575 41.7189 72.2377 35.9566 72.2377 28.8484C72.2377 21.7401 65.1575 15.9778 56.4237 15.9778V41.7189ZM23.4404 41.7189H56.4237V15.9778H23.4404V41.7189Z" fill="white"/>
<path d="M56.6497 24.0679H25.9254C22.8062 24.0679 20.2776 26.1259 20.2776 28.6645C20.2776 31.2032 22.8062 33.2611 25.9254 33.2611H56.6497C59.7689 33.2611 62.2975 31.2032 62.2975 28.6645C62.2975 26.1259 59.7689 24.0679 56.6497 24.0679Z" fill="#1B47C3"/>
<path d="M52.4347 54.6598C52.4347 54.6598 39.6972 44.4208 27.9587 34.9602L39.0848 34.96L43.8817 34.96L68.1992 54.5719L52.4347 54.6598Z" fill="white"/>
<path d="M31.5733 24.1462C31.5733 24.1462 26.1111 19.6002 21.5883 15.9551H23.8922H25.0218L35.0028 24.1463L31.5733 24.1462Z" fill="white"/>
<path d="M38.0319 24.0951C38.0319 24.0951 32.5697 19.5492 28.0469 15.9041H30.3508H31.4804L41.4614 24.0952L38.0319 24.0951Z" fill="#1B47C3"/>
<path d="M43.9057 24.0951C43.9057 24.0951 38.4435 19.5492 33.9207 15.9041H36.2246H37.3542L47.3352 24.0952L43.9057 24.0951Z" fill="#1B47C3"/>
<path d="M52.7996 42.144C52.7996 42.144 47.3504 37.5512 42.4171 33.1831L47.4867 33.1832L49.6313 33.2415L59.8504 42.2963L52.7996 42.144Z" fill="#1B47C3"/>
<path d="M33.3924 45.4709C33.3924 45.4709 32.5316 49.3852 20.8473 39.8802L19.5999 31.7902L17.29 28.0542L20.8477 29.0813L45.0568 48.7818L33.3924 45.4709Z" fill="#1B47C3"/>
<path d="M29.8633 25.666C29.8633 25.666 25.3402 35.2323 19.3007 30.3193V16.3007L22.8877 14.9299L24.4764 16.3007L36.9888 26.4846L29.8633 25.666Z" fill="#1B47C3"/>
</g>
</g>
<defs>
<clipPath id="clip0_1_4734">
<rect width="71.8405" height="47.0695" fill="white" transform="translate(10.6884 14.1553)"/>
</clipPath>
</defs>
</svg>
