<svg width="36" height="36" viewBox="0 0 36 36" fill="none" xmlns="http://www.w3.org/2000/svg">
<rect width="35.9375" height="36" rx="12" fill="#C7CEDC"/>
<path d="M23.5178 20.8113C27.6504 20.8113 31.0005 18.0555 31.0005 14.6562C31.0005 11.2568 27.6504 8.50104 23.5178 8.50104V20.8113ZM7.91113 20.8113H23.5178V8.50104H7.91113V20.8113Z" fill="white"/>
<path d="M23.6242 12.37H9.08644C7.61053 12.37 6.41406 13.3542 6.41406 14.5683C6.41406 15.7823 7.61053 16.7665 9.08644 16.7665H23.6242C25.1001 16.7665 26.2966 15.7823 26.2966 14.5683C26.2966 13.3542 25.1001 12.37 23.6242 12.37Z" fill="#C7CEDC"/>
<path d="M21.6291 27C21.6291 27 15.6022 22.1034 10.0479 17.579L15.3124 17.579L17.5821 17.5789L29.0884 26.958L21.6291 27Z" fill="white"/>
<path d="M11.7588 12.4075C11.7588 12.4075 9.17422 10.2335 7.03418 8.49023H8.12432H8.65879L13.3815 12.4075L11.7588 12.4075Z" fill="white"/>
<path d="M14.8145 12.3831C14.8145 12.3831 12.2299 10.209 10.0898 8.46582H11.18H11.7145L16.4372 12.3831L14.8145 12.3831Z" fill="#C7CEDC"/>
<path d="M17.5938 12.3831C17.5938 12.3831 15.0092 10.209 12.8691 8.46582H13.9593H14.4938L19.2165 12.3831L17.5938 12.3831Z" fill="#C7CEDC"/>
<path d="M21.8023 21.0148C21.8023 21.0148 19.2239 18.8183 16.8896 16.7294L19.2884 16.7294L20.3032 16.7573L25.1385 21.0876L21.8023 21.0148Z" fill="#C7CEDC"/>
<path d="M12.6191 22.6057C12.6191 22.6057 12.2118 24.4776 6.68321 19.932L6.09296 16.0631L5 14.2764L6.68338 14.7676L18.1383 24.189L12.6191 22.6057Z" fill="#C7CEDC"/>
<path d="M10.9493 13.1343C10.9493 13.1343 8.80911 17.7093 5.95142 15.3597V8.65554L7.64868 8L8.4004 8.65554L14.3208 13.5258L10.9493 13.1343Z" fill="#C7CEDC"/>
</svg>
