<svg width="38" height="38" viewBox="0 0 38 38" fill="none" xmlns="http://www.w3.org/2000/svg">
<path d="M21.7778 7.92663C21.8162 7.87813 21.8637 7.8377 21.9178 7.80765C21.9718 7.77761 22.0312 7.75856 22.0927 7.75158C22.1541 7.74461 22.2163 7.74986 22.2757 7.76703C22.3351 7.78421 22.3905 7.81296 22.4387 7.85163L23.4513 8.66351L19.7491 13.3754H22.1341L24.9166 9.83538L27.2641 11.716C27.3133 11.7554 27.354 11.8043 27.3839 11.8598C27.4137 11.9153 27.4321 11.9762 27.4379 12.039C27.4436 12.1017 27.4367 12.165 27.4175 12.225C27.3982 12.285 27.3671 12.3405 27.3259 12.3882L26.4747 13.3754H28.9253C29.2481 12.8877 29.3768 12.2969 29.2863 11.7191C29.1957 11.1413 28.8924 10.6182 28.4359 10.2526L23.6106 6.38819C23.3696 6.1952 23.0928 6.05174 22.7961 5.96606C22.4994 5.88037 22.1888 5.85416 21.8819 5.88892C21.5751 5.92368 21.2782 6.01873 21.0082 6.1686C20.7382 6.31848 20.5005 6.52023 20.3088 6.76226L15.0709 13.3754H17.4625L21.7778 7.92663ZM23.6875 21.8129C23.4389 21.8129 23.2004 21.9117 23.0246 22.0875C22.8488 22.2633 22.75 22.5017 22.75 22.7504C22.75 22.999 22.8488 23.2375 23.0246 23.4133C23.2004 23.5891 23.4389 23.6879 23.6875 23.6879H26.5C26.7486 23.6879 26.9871 23.5891 27.1629 23.4133C27.3387 23.2375 27.4375 22.999 27.4375 22.7504C27.4375 22.5017 27.3387 22.2633 27.1629 22.0875C26.9871 21.9117 26.7486 21.8129 26.5 21.8129H23.6875ZM9.625 10.5629C8.87908 10.5629 8.16371 10.8592 7.63626 11.3866C7.10882 11.9141 6.8125 12.6295 6.8125 13.3754V26.9691C6.8125 28.088 7.25697 29.1611 8.04814 29.9522C8.83931 30.7434 9.91237 31.1879 11.0312 31.1879H26.9688C28.0876 31.1879 29.1607 30.7434 29.9519 29.9522C30.743 29.1611 31.1875 28.088 31.1875 26.9691V18.5316C31.1875 17.4127 30.743 16.3397 29.9519 15.5485C29.1607 14.7574 28.0876 14.3129 26.9688 14.3129H9.625C9.37636 14.3129 9.1379 14.2141 8.96209 14.0383C8.78627 13.8625 8.6875 13.624 8.6875 13.3754C8.6875 13.1267 8.78627 12.8883 8.96209 12.7125C9.1379 12.5367 9.37636 12.4379 9.625 12.4379H13.9187L15.415 10.5629H9.625ZM8.6875 26.9691V16.0285C8.98094 16.1316 9.29688 16.1879 9.625 16.1879H26.9688C27.5904 16.1879 28.1865 16.4348 28.626 16.8744C29.0656 17.3139 29.3125 17.91 29.3125 18.5316V26.9691C29.3125 27.5907 29.0656 28.1869 28.626 28.6264C28.1865 29.066 27.5904 29.3129 26.9688 29.3129H11.0312C10.4096 29.3129 9.81351 29.066 9.37397 28.6264C8.93443 28.1869 8.6875 27.5907 8.6875 26.9691Z" fill="white"/>
</svg>
