<svg width="36" height="36" viewBox="0 0 36 36" fill="none" xmlns="http://www.w3.org/2000/svg">
<rect width="36" height="36" rx="12" fill="#113B98"/>
<path d="M26.7321 12.7027C26.1059 12.9802 25.4331 13.1677 24.7259 13.2524C25.4556 12.8158 26.0016 12.1285 26.2619 11.3189C25.5763 11.7262 24.8259 12.0128 24.0434 12.1664C23.5172 11.6046 22.8202 11.2322 22.0606 11.107C21.3011 10.9819 20.5215 11.111 19.8428 11.4744C19.1642 11.8377 18.6245 12.415 18.3075 13.1165C17.9905 13.818 17.914 14.6045 18.0899 15.3539C16.7007 15.2842 15.3416 14.9231 14.101 14.2941C12.8603 13.6651 11.7658 12.7823 10.8884 11.7029C10.5884 12.2204 10.4159 12.8204 10.4159 13.4594C10.4156 14.0347 10.5572 14.6011 10.8283 15.1085C11.0994 15.6159 11.4915 16.0485 11.9699 16.3679C11.4151 16.3503 10.8725 16.2004 10.3874 15.9307V15.9757C10.3873 16.7825 10.6664 17.5645 11.1773 18.1889C11.6881 18.8134 12.3993 19.2419 13.1901 19.4017C12.6755 19.541 12.1359 19.5615 11.6121 19.4617C11.8353 20.1559 12.2699 20.763 12.8552 21.1979C13.4404 21.6328 14.1471 21.8738 14.8761 21.8872C13.6385 22.8587 12.1101 23.3858 10.5366 23.3834C10.2579 23.3835 9.97944 23.3672 9.70264 23.3347C11.2997 24.3616 13.1589 24.9066 15.0576 24.9044C21.4851 24.9044 24.9989 19.5809 24.9989 14.9639C24.9989 14.8139 24.9951 14.6624 24.9884 14.5124C25.6719 14.0182 26.2618 13.4061 26.7306 12.7049L26.7321 12.7027Z" fill="white"/>
</svg>
