<svg width="43" height="41" viewBox="0 0 43 41" fill="none" xmlns="http://www.w3.org/2000/svg">
<path d="M13.6041 3.20407C17.9528 -0.967195 25.0035 -0.967194 29.3522 3.20407L39.1948 12.645C43.5435 16.8163 43.5435 23.5792 39.1948 27.7505L29.3522 37.1914C25.0035 41.3627 17.9528 41.3627 13.6041 37.1914L3.76154 27.7505C-0.587181 23.5792 -0.58718 16.8163 3.76154 12.645L13.6041 3.20407Z" fill="url(#paint0_linear_0_1857)"/>
<g clip-path="url(#clip0_0_1857)">
<path d="M25.167 24.153C28.4494 24.153 31.1104 21.0924 31.1104 17.317C31.1104 13.5416 28.4494 10.4811 25.167 10.4811V24.153ZM12.7708 24.153H25.167V10.4811H12.7708V24.153Z" fill="white"/>
<path d="M25.2518 14.778H13.7047C12.5324 14.778 11.582 15.8711 11.582 17.2194C11.582 18.5678 12.5324 19.6608 13.7047 19.6608H25.2518C26.4241 19.6608 27.3745 18.5678 27.3745 17.2194C27.3745 15.8711 26.4241 14.778 25.2518 14.778Z" fill="#1B47C3"/>
<path d="M23.6677 31.0262C23.6677 31.0262 18.8806 25.588 14.4689 20.5632L18.6504 20.5631L20.4533 20.563L29.5926 30.9795L23.6677 31.0262Z" fill="white"/>
<path d="M15.8274 14.8196C15.8274 14.8196 13.7745 12.4052 12.0747 10.4691H12.9406H13.3651L17.1163 14.8197L15.8274 14.8196Z" fill="white"/>
<path d="M18.2548 14.7924C18.2548 14.7924 16.2019 12.3779 14.5021 10.4419H15.368H15.7925L19.5437 14.7925L18.2548 14.7924Z" fill="#1B47C3"/>
<path d="M20.4623 14.7924C20.4623 14.7924 18.4094 12.3779 16.7096 10.4419H17.5755H18L21.7512 14.7925L20.4623 14.7924Z" fill="#1B47C3"/>
<path d="M23.8049 24.3788C23.8049 24.3788 21.7569 21.9394 19.9028 19.6194L21.8081 19.6194L22.6142 19.6504L26.4548 24.4597L23.8049 24.3788Z" fill="#1B47C3"/>
<path d="M16.511 26.1458C16.511 26.1458 16.1875 28.2248 11.7962 23.1764L11.3274 18.8795L10.4592 16.8953L11.7963 17.4408L20.8949 27.9043L16.511 26.1458Z" fill="#1B47C3"/>
<path d="M15.1847 15.6268C15.1847 15.6268 13.4848 20.7078 11.215 18.0983V10.6526L12.5631 9.92456L13.1602 10.6526L17.8627 16.0616L15.1847 15.6268Z" fill="#1B47C3"/>
</g>
<defs>
<linearGradient id="paint0_linear_0_1857" x1="21.6385" y1="0.170804" x2="21.6385" y2="38.5564" gradientUnits="userSpaceOnUse">
<stop stop-color="#1B47C3"/>
<stop offset="0.989583" stop-color="#1B47C3"/>
</linearGradient>
<clipPath id="clip0_0_1857">
<rect width="27" height="25" fill="white" transform="translate(7.97815 9.51312)"/>
</clipPath>
</defs>
</svg>
