<svg width="41" height="41" viewBox="0 0 41 41" fill="none" xmlns="http://www.w3.org/2000/svg">
<path d="M31.9912 18.4547L22.283 8.75416C21.8555 8.32693 21.277 8.07562 20.6482 8.07562C20.0195 8.07562 19.441 8.32693 19.0134 8.75416L9.33043 18.4547C8.42501 19.3594 8.42501 20.817 9.33043 21.7217C9.73284 22.1238 10.2862 22.3751 10.8646 22.4002C10.8898 22.4002 10.9149 22.4002 10.9401 22.4002H11.1916V29.3866C11.1916 30.8693 12.3988 32.0756 13.8827 32.0756H17.6804C18.1332 32.0756 18.5104 31.6987 18.5104 31.2463V25.6672C18.5104 25.0892 18.9883 24.6369 19.5416 24.6369H21.78C22.3585 24.6369 22.8112 25.1144 22.8112 25.6672V31.2463C22.8112 31.6987 23.1884 32.0756 23.6411 32.0756H27.4389C28.9228 32.0756 30.13 30.8693 30.13 29.3866V22.3751H30.3564C30.9851 22.3751 31.5636 22.1238 31.9912 21.6966C32.8714 20.817 32.8714 19.3343 31.9912 18.4547Z" fill="#1B47C3"/>
</svg>
