<svg width="41" height="41" viewBox="0 0 41 41" fill="none" xmlns="http://www.w3.org/2000/svg">
<path d="M28.0757 19.0756H30.5757C31.0757 19.0756 32.0757 19.3756 32.0757 20.5756V25.5756C32.0757 27.0756 29.8757 29.5756 27.0757 29.5756M12.0757 19.0756H9.57568C9.07568 19.0756 8.07568 19.3756 8.07568 20.5756V25.5756C8.07568 27.0756 10.2757 29.5756 13.0757 29.5756M16.5757 19.0756H23.5757C24.2424 19.0756 25.5757 19.4756 25.5757 21.0756V26.5756C25.5757 28.0756 23.0757 31.0756 20.0757 31.0756C17.0757 31.0756 14.5757 28.0756 14.5757 26.5756V21.0756C14.5757 20.409 14.9757 19.0756 16.5757 19.0756Z" stroke="#707489" stroke-width="1.7" stroke-linecap="round"/>
<path d="M23.3757 12.0756C23.3757 13.8982 21.8982 15.3756 20.0757 15.3756C18.2531 15.3756 16.7757 13.8982 16.7757 12.0756C16.7757 10.2531 18.2531 8.77562 20.0757 8.77562C21.8982 8.77562 23.3757 10.2531 23.3757 12.0756ZM30.3757 13.0756C30.3757 14.3459 29.3459 15.3756 28.0757 15.3756C26.8054 15.3756 25.7757 14.3459 25.7757 13.0756C25.7757 11.8054 26.8054 10.7756 28.0757 10.7756C29.3459 10.7756 30.3757 11.8054 30.3757 13.0756ZM14.3757 13.0756C14.3757 14.3459 13.3459 15.3756 12.0757 15.3756C10.8054 15.3756 9.77568 14.3459 9.77568 13.0756C9.77568 11.8054 10.8054 10.7756 12.0757 10.7756C13.3459 10.7756 14.3757 11.8054 14.3757 13.0756Z" stroke="#707489" stroke-width="1.4"/>
</svg>
