<svg width="20" height="19" viewBox="0 0 20 19" fill="none" xmlns="http://www.w3.org/2000/svg">
<rect x="0.5" width="19" height="19" rx="5" fill="#1B47C3"/>
<g clip-path="url(#clip0_6_931)">
<path d="M11.7292 11.8329C13.5107 11.8329 14.955 10.286 14.955 8.37775C14.955 6.46953 13.5107 4.92261 11.7292 4.92261V11.8329ZM5.0011 11.8329H11.7292V4.92261H5.0011V11.8329Z" fill="white"/>
<path d="M11.7753 7.09436H5.50803C4.87176 7.09436 4.35596 7.64683 4.35596 8.32834C4.35596 9.00984 4.87176 9.56231 5.50803 9.56231H11.7753C12.4116 9.56231 12.9274 9.00984 12.9274 8.32834C12.9274 7.64683 12.4116 7.09436 11.7753 7.09436Z" fill="#1B47C3"/>
<path d="M10.9154 15.3069C10.9154 15.3069 8.31721 12.5582 5.92273 10.0185L8.19229 10.0185L9.17078 10.0184L14.1312 15.2833L10.9154 15.3069Z" fill="white"/>
<path d="M6.66008 7.11542C6.66008 7.11542 5.54587 5.89505 4.62329 4.9165H5.09325H5.32367L7.35963 7.11545L6.66008 7.11542Z" fill="white"/>
<path d="M7.97759 7.10175C7.97759 7.10175 6.86338 5.88138 5.9408 4.90283H6.41077H6.64118L8.67715 7.10178L7.97759 7.10175Z" fill="#1B47C3"/>
<path d="M9.17571 7.10175C9.17571 7.10175 8.0615 5.88138 7.13892 4.90283H7.60889H7.8393L9.87527 7.10178L9.17571 7.10175Z" fill="#1B47C3"/>
<path d="M10.9899 11.947C10.9899 11.947 9.87839 10.714 8.87207 9.54138L9.90618 9.54141L10.3436 9.55705L12.4282 11.9878L10.9899 11.947Z" fill="#1B47C3"/>
<path d="M7.03109 12.8401C7.03109 12.8401 6.8555 13.8909 4.4721 11.3393L4.21764 9.16748L3.74646 8.16455L4.47217 8.44029L9.41044 13.7289L7.03109 12.8401Z" fill="#1B47C3"/>
<path d="M6.31133 7.52335C6.31133 7.52335 5.3887 10.0915 4.15674 8.77255V5.00922L4.88843 4.64124L5.2125 5.00922L7.76482 7.74312L6.31133 7.52335Z" fill="#1B47C3"/>
</g>
<defs>
<clipPath id="clip0_6_931">
<rect width="14.6543" height="12.6359" fill="white" transform="translate(2.3999 4.43335)"/>
</clipPath>
</defs>
</svg>
