<svg width="60" height="59" viewBox="0 0 60 59" fill="none" xmlns="http://www.w3.org/2000/svg">
<rect x="0.349121" width="59" height="59" rx="12" fill="#312F2F" fill-opacity="0.5"/>
<path d="M35.8908 13.6666H34.6824V11.3829C34.6824 10.101 34.1732 8.87164 33.2668 7.96521C32.3604 7.05879 31.131 6.54956 29.8491 6.54956C28.5672 6.54956 27.3378 7.05879 26.4314 7.96521C25.525 8.87164 25.0158 10.101 25.0158 11.3829V13.6666H23.8074C22.846 13.6666 21.924 14.0486 21.2442 14.7284C20.5644 15.4082 20.1824 16.3302 20.1824 17.2916V26.9583C20.1824 27.9197 20.5644 28.8418 21.2442 29.5216C21.924 30.2014 22.846 30.5833 23.8074 30.5833H35.8908C36.8522 30.5833 37.7742 30.2014 38.454 29.5216C39.1338 28.8418 39.5158 27.9197 39.5158 26.9583V17.2916C39.5158 16.3302 39.1338 15.4082 38.454 14.7284C37.7742 14.0486 36.8522 13.6666 35.8908 13.6666ZM27.4324 11.3829C27.4162 10.7247 27.6613 10.0869 28.1143 9.60906C28.5672 9.13122 29.191 8.85229 29.8491 8.83331C30.5072 8.85229 31.131 9.13122 31.5839 9.60906C32.0368 10.0869 32.282 10.7247 32.2658 11.3829V13.6666H27.4324V11.3829ZM37.0991 26.9583C37.0991 27.2788 36.9718 27.5861 36.7452 27.8127C36.5186 28.0393 36.2112 28.1666 35.8908 28.1666H23.8074C23.487 28.1666 23.1796 28.0393 22.953 27.8127C22.7264 27.5861 22.5991 27.2788 22.5991 26.9583V17.2916C22.5991 16.9712 22.7264 16.6638 22.953 16.4372C23.1796 16.2106 23.487 16.0833 23.8074 16.0833H35.8908C36.2112 16.0833 36.5186 16.2106 36.7452 16.4372C36.9718 16.6638 37.0991 16.9712 37.0991 17.2916V26.9583Z" fill="#EEEEEE"/>
<path d="M29.8491 18.5C29.1322 18.5 28.4313 18.7126 27.8352 19.1109C27.2391 19.5092 26.7744 20.0754 26.5001 20.7378C26.2257 21.4002 26.1539 22.129 26.2938 22.8322C26.4336 23.5354 26.7789 24.1813 27.2859 24.6883C27.7928 25.1952 28.4387 25.5405 29.1419 25.6803C29.8451 25.8202 30.574 25.7484 31.2364 25.4741C31.8987 25.1997 32.4649 24.7351 32.8632 24.1389C33.2615 23.5428 33.4741 22.842 33.4741 22.125C33.4741 21.1636 33.0922 20.2416 32.4124 19.5617C31.7326 18.8819 30.8105 18.5 29.8491 18.5ZM29.8491 23.3333C29.6101 23.3333 29.3765 23.2625 29.1778 23.1297C28.9791 22.9969 28.8242 22.8082 28.7328 22.5874C28.6413 22.3666 28.6174 22.1237 28.664 21.8893C28.7106 21.6549 28.8257 21.4396 28.9947 21.2706C29.1637 21.1016 29.379 20.9865 29.6134 20.9399C29.8478 20.8933 30.0907 20.9172 30.3115 21.0086C30.5323 21.1001 30.721 21.255 30.8538 21.4537C30.9866 21.6524 31.0575 21.886 31.0575 22.125C31.0575 22.4455 30.9302 22.7528 30.7035 22.9794C30.4769 23.206 30.1696 23.3333 29.8491 23.3333Z" fill="#EEEEEE"/>
<path d="M10.359 37.0788L10.1489 44.0456L9.23934 44.0182L9.4494 37.0514L10.359 37.0788ZM14.5361 38.5954C15.2025 38.6155 15.7361 38.835 16.137 39.2539C16.5381 39.6662 16.7272 40.2522 16.7043 41.0118L16.6069 44.2404L15.7073 44.2132L15.8008 41.1146C15.8172 40.5682 15.6932 40.1476 15.4286 39.8528C15.1643 39.5514 14.7955 39.3936 14.3224 39.3793C13.8426 39.3648 13.4549 39.5032 13.1594 39.7944C12.8704 40.0859 12.7173 40.5181 12.7001 41.0912L12.6087 44.1198L11.6992 44.0924L11.8643 38.6149L12.7739 38.6423L12.7504 39.4219C12.9388 39.1475 13.1885 38.9383 13.4997 38.7942C13.8175 38.6504 14.163 38.5841 14.5361 38.5954ZM17.8358 41.5262C17.8529 40.9597 17.981 40.4701 18.2202 40.0571C18.4596 39.6374 18.7828 39.317 19.1896 39.0959C19.6031 38.8749 20.0698 38.7722 20.5896 38.7879C21.2626 38.8082 21.8107 38.9881 22.234 39.3277C22.664 39.6675 22.9402 40.1294 23.0626 40.7133L22.0831 40.6838C21.9998 40.3478 21.8245 40.079 21.5572 39.8776C21.2964 39.6763 20.9662 39.5696 20.5663 39.5576C20.0466 39.5419 19.6213 39.7091 19.2906 40.0593C18.9601 40.4029 18.785 40.9011 18.7654 41.5542C18.7455 42.2139 18.89 42.7285 19.199 43.098C19.508 43.4674 19.9224 43.66 20.4422 43.6757C20.842 43.6877 21.178 43.6045 21.4502 43.4259C21.7223 43.2474 21.9136 42.9864 22.024 42.6429L23.0036 42.6724C22.8401 43.2277 22.5333 43.6687 22.0833 43.9953C21.6334 44.3152 21.0787 44.4652 20.419 44.4453C19.8992 44.4297 19.4396 44.2991 19.0402 44.0536C18.6474 43.8083 18.3441 43.469 18.1304 43.0357C17.9167 42.6024 17.8185 42.0992 17.8358 41.5262ZM25.2121 39.9077C25.3815 39.5994 25.6154 39.363 25.9138 39.1986C26.2189 39.0343 26.5847 38.9587 27.0112 38.9715L26.9828 39.9111L26.7429 39.9039C25.7234 39.8731 25.197 40.4108 25.1636 41.517L25.0738 44.4956L24.1642 44.4682L24.3294 38.9907L25.2389 39.0181L25.2121 39.9077ZM32.9796 41.7827C32.9744 41.9559 32.9589 42.1389 32.933 42.3315L28.555 42.1995C28.5721 42.7403 28.7426 43.1689 29.0665 43.4855C29.3973 43.7956 29.8026 43.9579 30.2824 43.9724C30.6755 43.9842 31.0048 43.9041 31.2701 43.732C31.5423 43.5535 31.7363 43.3126 31.8521 43.0092L32.8317 43.0388C32.6692 43.5608 32.3631 43.9818 31.9132 44.3017C31.4636 44.6149 30.9122 44.7617 30.2592 44.742C29.7394 44.7264 29.2765 44.5957 28.8704 44.35C28.4709 44.1045 28.161 43.765 27.9406 43.3315C27.7205 42.8913 27.6189 42.3881 27.636 41.8216C27.6531 41.2552 27.7813 40.7622 28.0208 40.3426C28.2602 39.9229 28.5866 39.606 28.9999 39.3916C29.42 39.1709 29.8967 39.0685 30.4298 39.0846C30.9495 39.1003 31.4059 39.2274 31.7989 39.466C32.1919 39.7047 32.489 40.0271 32.6901 40.4333C32.8982 40.8331 32.9947 41.2829 32.9796 41.7827ZM32.0458 41.5644C32.0562 41.2179 31.9885 40.9191 31.8427 40.6679C31.6971 40.4101 31.4929 40.2138 31.2302 40.0792C30.9743 39.9381 30.6864 39.8627 30.3666 39.853C29.9068 39.8392 29.5092 39.9739 29.1739 40.2573C28.8452 40.5408 28.6497 40.9418 28.5873 41.4602L32.0458 41.5644ZM33.8347 41.9985C33.8515 41.4388 33.9796 40.9524 34.2188 40.5395C34.4582 40.1198 34.778 39.7993 35.1782 39.5779C35.5851 39.3568 36.0317 39.2535 36.5182 39.2682C36.998 39.2826 37.4113 39.3985 37.7583 39.6157C38.1052 39.8329 38.3606 40.1007 38.5244 40.4192L38.5545 39.4196L39.4741 39.4473L39.309 44.9249L38.3894 44.8971L38.4201 43.8776C38.2306 44.192 37.9526 44.4504 37.5864 44.6528C37.227 44.8487 36.8107 44.9396 36.3376 44.9253C35.8512 44.9106 35.415 44.7774 35.029 44.5257C34.6431 44.2739 34.3434 43.9281 34.1299 43.4881C33.9164 43.0481 33.818 42.5516 33.8347 41.9985ZM38.4723 42.1484C38.4847 41.7352 38.4123 41.3729 38.2549 41.0613C38.0976 40.7498 37.878 40.5097 37.5963 40.3412C37.3215 40.1661 37.0141 40.0735 36.6743 40.0632C36.3344 40.053 36.0222 40.1236 35.7375 40.2751C35.4528 40.4266 35.2225 40.6531 35.0467 40.9546C34.8708 41.2561 34.7767 41.6134 34.7642 42.0266C34.7516 42.4464 34.8238 42.8154 34.981 43.1336C35.1383 43.4452 35.3544 43.6884 35.6293 43.8635C35.9043 44.0318 36.2118 44.1211 36.5516 44.1314C36.8915 44.1416 37.2037 44.071 37.4884 43.9195C37.78 43.7616 38.0137 43.5318 38.1895 43.2303C38.3656 42.9222 38.4598 42.5615 38.4723 42.1484ZM42.7825 45.1196C42.3627 45.107 41.9883 45.0256 41.6593 44.8757C41.3306 44.719 41.0734 44.5112 40.8878 44.2521C40.7024 43.9864 40.6047 43.6867 40.5947 43.3529L41.5343 43.3812C41.5527 43.6552 41.6726 43.8823 41.8939 44.0624C42.1219 44.2427 42.4225 44.3384 42.7957 44.3497C43.1422 44.3601 43.4177 44.2917 43.6222 44.1445C43.8268 43.9973 43.9326 43.807 43.9396 43.5738C43.9468 43.3339 43.8455 43.1541 43.6357 43.0344C43.4261 42.908 43.0998 42.7815 42.6567 42.6547C42.2534 42.5358 41.9235 42.4192 41.6668 42.3047C41.417 42.1838 41.202 42.0139 41.0219 41.7951C40.8486 41.5697 40.7673 41.2805 40.7779 40.9273C40.7864 40.6474 40.8774 40.3934 41.051 40.1652C41.2246 39.937 41.4667 39.7609 41.7773 39.6368C42.088 39.5061 42.44 39.4467 42.8331 39.4586C43.4395 39.4769 43.9247 39.6449 44.2886 39.9627C44.6525 40.2805 44.8398 40.7063 44.8503 41.2402L43.9408 41.2128C43.9294 40.9256 43.8197 40.6922 43.6117 40.5125C43.4104 40.333 43.1331 40.238 42.7799 40.2273C42.4534 40.2175 42.1914 40.2796 41.9939 40.4137C41.7965 40.5478 41.6943 40.7282 41.6875 40.9547C41.6821 41.1347 41.7342 41.2863 41.8439 41.4097C41.9604 41.5265 42.1042 41.6243 42.2752 41.7028C42.4531 41.7748 42.6974 41.8589 43.008 41.955C43.3979 42.0735 43.7145 42.1897 43.9579 42.3038C44.2014 42.4112 44.4067 42.5707 44.5737 42.7825C44.7474 42.9945 44.8326 43.2672 44.8292 43.6006C44.8201 43.9005 44.7287 44.1678 44.5549 44.4027C44.3811 44.6376 44.1388 44.8204 43.828 44.9511C43.5242 45.0753 43.1756 45.1315 42.7825 45.1196ZM51.1549 42.3307C51.1497 42.5039 51.1342 42.6869 51.1084 42.8795L46.7304 42.7475C46.7474 43.2883 46.9179 43.717 47.2418 44.0335C47.5727 44.3436 47.9779 44.5059 48.4577 44.5204C48.8509 44.5322 49.1801 44.4521 49.4454 44.28C49.7176 44.1015 49.9116 43.8606 50.0275 43.5573L51.007 43.5868C50.8445 44.1088 50.5384 44.5298 50.0885 44.8497C49.6389 45.1629 49.0876 45.3097 48.4345 45.29C47.9148 45.2744 47.4518 45.1437 47.0457 44.898C46.6463 44.6525 46.3363 44.313 46.116 43.8795C45.8958 43.4394 45.7943 42.9361 45.8113 42.3697C45.8284 41.8032 45.9567 41.3102 46.1961 40.8906C46.4355 40.4709 46.7619 40.154 47.1752 39.9397C47.5954 39.7189 48.072 39.6165 48.6051 39.6326C49.1249 39.6483 49.5812 39.7754 49.9742 40.014C50.3672 40.2527 50.6643 40.5751 50.8655 40.9813C51.0735 41.3811 51.17 41.8309 51.1549 42.3307ZM50.2211 42.1124C50.2315 41.7659 50.1639 41.4671 50.018 41.2159C49.8724 40.9581 49.6682 40.7618 49.4055 40.6272C49.1496 40.4861 48.8618 40.4107 48.5419 40.4011C48.0821 40.3872 47.6845 40.5219 47.3492 40.8053C47.0205 41.0889 46.825 41.4898 46.7627 42.0082L50.2211 42.1124Z" fill="white"/>
</svg>
