<svg width="343" height="124" viewBox="0 0 343 124" fill="none" xmlns="http://www.w3.org/2000/svg">
<g filter="url(#filter0_b_80_561)">
<path d="M0.349121 42C0.349121 32.0589 8.88205 24 19.4079 24H323.29C333.816 24 342.349 32.0589 342.349 42V82C342.349 91.9411 333.816 100 323.29 100H19.4079C8.88204 100 0.349121 91.9411 0.349121 82V42Z" fill="#16725C"/>
</g>
<rect x="272.349" y="33" width="59" height="59" rx="12" fill="#312F2F" fill-opacity="0.5"/>
<path d="M307.891 46.6666H306.682V44.3829C306.682 43.101 306.173 41.8716 305.267 40.9652C304.36 40.0588 303.131 39.5496 301.849 39.5496C300.567 39.5496 299.338 40.0588 298.431 40.9652C297.525 41.8716 297.016 43.101 297.016 44.3829V46.6666H295.807C294.846 46.6666 293.924 47.0486 293.244 47.7284C292.564 48.4082 292.182 49.3302 292.182 50.2916V59.9583C292.182 60.9197 292.564 61.8418 293.244 62.5216C293.924 63.2014 294.846 63.5833 295.807 63.5833H307.891C308.852 63.5833 309.774 63.2014 310.454 62.5216C311.134 61.8418 311.516 60.9197 311.516 59.9583V50.2916C311.516 49.3302 311.134 48.4082 310.454 47.7284C309.774 47.0486 308.852 46.6666 307.891 46.6666ZM299.432 44.3829C299.416 43.7247 299.661 43.0869 300.114 42.6091C300.567 42.1312 301.191 41.8523 301.849 41.8333C302.507 41.8523 303.131 42.1312 303.584 42.6091C304.037 43.0869 304.282 43.7247 304.266 44.3829V46.6666H299.432V44.3829ZM309.099 59.9583C309.099 60.2788 308.972 60.5861 308.745 60.8127C308.519 61.0393 308.211 61.1666 307.891 61.1666H295.807C295.487 61.1666 295.18 61.0393 294.953 60.8127C294.726 60.5861 294.599 60.2788 294.599 59.9583V50.2916C294.599 49.9712 294.726 49.6638 294.953 49.4372C295.18 49.2106 295.487 49.0833 295.807 49.0833H307.891C308.211 49.0833 308.519 49.2106 308.745 49.4372C308.972 49.6638 309.099 49.9712 309.099 50.2916V59.9583Z" fill="#EEEEEE"/>
<path d="M301.849 51.5C301.132 51.5 300.431 51.7126 299.835 52.1109C299.239 52.5092 298.774 53.0754 298.5 53.7378C298.226 54.4002 298.154 55.129 298.294 55.8322C298.434 56.5354 298.779 57.1813 299.286 57.6883C299.793 58.1952 300.439 58.5405 301.142 58.6803C301.845 58.8202 302.574 58.7484 303.236 58.4741C303.899 58.1997 304.465 57.7351 304.863 57.1389C305.262 56.5428 305.474 55.842 305.474 55.125C305.474 54.1636 305.092 53.2416 304.412 52.5617C303.733 51.8819 302.811 51.5 301.849 51.5ZM301.849 56.3333C301.61 56.3333 301.377 56.2625 301.178 56.1297C300.979 55.9969 300.824 55.8082 300.733 55.5874C300.641 55.3666 300.617 55.1237 300.664 54.8893C300.711 54.6549 300.826 54.4396 300.995 54.2706C301.164 54.1016 301.379 53.9865 301.613 53.9399C301.848 53.8933 302.091 53.9172 302.312 54.0086C302.532 54.1001 302.721 54.255 302.854 54.4537C302.987 54.6524 303.057 54.886 303.057 55.125C303.057 55.4455 302.93 55.7528 302.704 55.9794C302.477 56.206 302.17 56.3333 301.849 56.3333Z" fill="#EEEEEE"/>
<path d="M282.359 70.0788L282.149 77.0456L281.239 77.0182L281.449 70.0514L282.359 70.0788ZM286.536 71.5954C287.202 71.6155 287.736 71.835 288.137 72.2539C288.538 72.6662 288.727 73.2522 288.704 74.0118L288.607 77.2404L287.707 77.2132L287.801 74.1146C287.817 73.5682 287.693 73.1476 287.429 72.8528C287.164 72.5514 286.796 72.3936 286.322 72.3793C285.843 72.3648 285.455 72.5032 285.159 72.7944C284.87 73.0859 284.717 73.5181 284.7 74.0912L284.609 77.1198L283.699 77.0924L283.864 71.6149L284.774 71.6423L284.75 72.4219C284.939 72.1475 285.189 71.9383 285.5 71.7942C285.817 71.6504 286.163 71.5841 286.536 71.5954ZM289.836 74.5262C289.853 73.9597 289.981 73.4701 290.22 73.0571C290.46 72.6374 290.783 72.317 291.19 72.0959C291.603 71.8749 292.07 71.7722 292.59 71.7879C293.263 71.8082 293.811 71.9881 294.234 72.3277C294.664 72.6675 294.94 73.1294 295.063 73.7133L294.083 73.6838C294 73.3478 293.825 73.079 293.557 72.8776C293.296 72.6763 292.966 72.5696 292.566 72.5576C292.047 72.5419 291.621 72.7091 291.291 73.0593C290.96 73.4029 290.785 73.9011 290.765 74.5542C290.745 75.2139 290.89 75.7285 291.199 76.098C291.508 76.4674 291.922 76.66 292.442 76.6757C292.842 76.6877 293.178 76.6045 293.45 76.4259C293.722 76.2474 293.914 75.9864 294.024 75.6429L295.004 75.6724C294.84 76.2277 294.533 76.6687 294.083 76.9953C293.633 77.3152 293.079 77.4652 292.419 77.4453C291.899 77.4297 291.44 77.2991 291.04 77.0536C290.647 76.8083 290.344 76.469 290.13 76.0357C289.917 75.6024 289.818 75.0992 289.836 74.5262ZM297.212 72.9077C297.381 72.5994 297.615 72.363 297.914 72.1986C298.219 72.0343 298.585 71.9587 299.011 71.9715L298.983 72.9111L298.743 72.9039C297.723 72.8731 297.197 73.4108 297.164 74.517L297.074 77.4956L296.164 77.4682L296.329 71.9907L297.239 72.0181L297.212 72.9077ZM304.98 74.7827C304.974 74.9559 304.959 75.1389 304.933 75.3315L300.555 75.1995C300.572 75.7403 300.743 76.1689 301.067 76.4855C301.397 76.7956 301.803 76.9579 302.282 76.9724C302.676 76.9842 303.005 76.9041 303.27 76.732C303.542 76.5535 303.736 76.3126 303.852 76.0092L304.832 76.0388C304.669 76.5608 304.363 76.9818 303.913 77.3017C303.464 77.6149 302.912 77.7617 302.259 77.742C301.739 77.7264 301.276 77.5957 300.87 77.35C300.471 77.1045 300.161 76.765 299.941 76.3315C299.72 75.8913 299.619 75.3881 299.636 74.8216C299.653 74.2552 299.781 73.7622 300.021 73.3426C300.26 72.9229 300.587 72.606 301 72.3916C301.42 72.1709 301.897 72.0685 302.43 72.0846C302.95 72.1003 303.406 72.2274 303.799 72.466C304.192 72.7047 304.489 73.0271 304.69 73.4333C304.898 73.8331 304.995 74.2829 304.98 74.7827ZM304.046 74.5644C304.056 74.2179 303.989 73.9191 303.843 73.6679C303.697 73.4101 303.493 73.2138 303.23 73.0792C302.974 72.9381 302.686 72.8627 302.367 72.853C301.907 72.8392 301.509 72.9739 301.174 73.2573C300.845 73.5408 300.65 73.9418 300.587 74.4602L304.046 74.5644ZM305.835 74.9985C305.852 74.4388 305.98 73.9524 306.219 73.5395C306.458 73.1198 306.778 72.7993 307.178 72.5779C307.585 72.3568 308.032 72.2535 308.518 72.2682C308.998 72.2826 309.411 72.3985 309.758 72.6157C310.105 72.8329 310.361 73.1007 310.524 73.4192L310.555 72.4196L311.474 72.4473L311.309 77.9249L310.389 77.8971L310.42 76.8776C310.231 77.192 309.953 77.4504 309.586 77.6528C309.227 77.8487 308.811 77.9396 308.338 77.9253C307.851 77.9106 307.415 77.7774 307.029 77.5257C306.643 77.2739 306.343 76.9281 306.13 76.4881C305.916 76.0481 305.818 75.5516 305.835 74.9985ZM310.472 75.1484C310.485 74.7352 310.412 74.3729 310.255 74.0613C310.098 73.7498 309.878 73.5097 309.596 73.3412C309.321 73.1661 309.014 73.0735 308.674 73.0632C308.334 73.053 308.022 73.1236 307.737 73.2751C307.453 73.4266 307.223 73.6531 307.047 73.9546C306.871 74.2561 306.777 74.6134 306.764 75.0266C306.752 75.4464 306.824 75.8154 306.981 76.1336C307.138 76.4452 307.354 76.6884 307.629 76.8635C307.904 77.0318 308.212 77.1211 308.552 77.1314C308.891 77.1416 309.204 77.071 309.488 76.9195C309.78 76.7616 310.014 76.5318 310.19 76.2303C310.366 75.9222 310.46 75.5615 310.472 75.1484ZM314.782 78.1196C314.363 78.107 313.988 78.0256 313.659 77.8757C313.331 77.719 313.073 77.5112 312.888 77.2521C312.702 76.9864 312.605 76.6867 312.595 76.3529L313.534 76.3812C313.553 76.6552 313.673 76.8823 313.894 77.0624C314.122 77.2427 314.423 77.3384 314.796 77.3497C315.142 77.3601 315.418 77.2917 315.622 77.1445C315.827 76.9973 315.933 76.807 315.94 76.5738C315.947 76.3339 315.846 76.1541 315.636 76.0344C315.426 75.908 315.1 75.7815 314.657 75.6547C314.253 75.5358 313.923 75.4192 313.667 75.3047C313.417 75.1838 313.202 75.0139 313.022 74.7951C312.849 74.5697 312.767 74.2805 312.778 73.9273C312.786 73.6474 312.877 73.3934 313.051 73.1652C313.225 72.937 313.467 72.7609 313.777 72.6368C314.088 72.5061 314.44 72.4467 314.833 72.4586C315.44 72.4769 315.925 72.6449 316.289 72.9627C316.653 73.2805 316.84 73.7063 316.85 74.2402L315.941 74.2128C315.929 73.9256 315.82 73.6922 315.612 73.5125C315.41 73.333 315.133 73.238 314.78 73.2273C314.453 73.2175 314.191 73.2796 313.994 73.4137C313.796 73.5478 313.694 73.7282 313.688 73.9547C313.682 74.1347 313.734 74.2863 313.844 74.4097C313.96 74.5265 314.104 74.6243 314.275 74.7028C314.453 74.7748 314.697 74.8589 315.008 74.955C315.398 75.0735 315.715 75.1897 315.958 75.3038C316.201 75.4112 316.407 75.5707 316.574 75.7825C316.747 75.9945 316.833 76.2672 316.829 76.6006C316.82 76.9005 316.729 77.1678 316.555 77.4027C316.381 77.6376 316.139 77.8204 315.828 77.9511C315.524 78.0753 315.176 78.1315 314.782 78.1196ZM323.155 75.3307C323.15 75.5039 323.134 75.6869 323.108 75.8795L318.73 75.7475C318.747 76.2883 318.918 76.717 319.242 77.0335C319.573 77.3436 319.978 77.5059 320.458 77.5204C320.851 77.5322 321.18 77.4521 321.445 77.28C321.718 77.1015 321.912 76.8606 322.027 76.5573L323.007 76.5868C322.845 77.1088 322.538 77.5298 322.089 77.8497C321.639 78.1629 321.088 78.3097 320.435 78.29C319.915 78.2744 319.452 78.1437 319.046 77.898C318.646 77.6525 318.336 77.313 318.116 76.8795C317.896 76.4394 317.794 75.9361 317.811 75.3697C317.828 74.8032 317.957 74.3102 318.196 73.8906C318.436 73.4709 318.762 73.154 319.175 72.9397C319.595 72.7189 320.072 72.6165 320.605 72.6326C321.125 72.6483 321.581 72.7754 321.974 73.014C322.367 73.2527 322.664 73.5751 322.865 73.9813C323.074 74.3811 323.17 74.8309 323.155 75.3307ZM322.221 75.1124C322.232 74.7659 322.164 74.4671 322.018 74.2159C321.872 73.9581 321.668 73.7618 321.405 73.6272C321.15 73.4861 320.862 73.4107 320.542 73.4011C320.082 73.3872 319.685 73.5219 319.349 73.8053C319.02 74.0889 318.825 74.4898 318.763 75.0082L322.221 75.1124Z" fill="white"/>
<path d="M44.7046 54.1006L39.0034 57.6133L33.5366 50.3213C33.5146 50.2919 33.4861 50.2681 33.4533 50.2517C33.4205 50.2353 33.3843 50.2267 33.3477 50.2267C33.311 50.2267 33.2748 50.2353 33.242 50.2517C33.2092 50.2681 33.1807 50.2919 33.1587 50.3213L27.6948 57.6133L21.9907 54.1006C21.8237 53.998 21.6069 54.1357 21.6333 54.332L23.8716 71.3418C23.9038 71.5732 24.103 71.7519 24.3403 71.7519H42.3608C42.5952 71.7519 42.7974 71.5762 42.8267 71.3418L45.0649 54.332C45.0884 54.1357 44.8745 53.998 44.7046 54.1006ZM33.3491 67.5098C31.5298 67.5098 30.0503 66.0303 30.0503 64.2109C30.0503 62.3916 31.5298 60.9121 33.3491 60.9121C35.1685 60.9121 36.6479 62.3916 36.6479 64.2109C36.6479 66.0303 35.1685 67.5098 33.3491 67.5098ZM33.3491 62.7959C32.5698 62.7959 31.937 63.4287 31.937 64.2109C31.937 64.9902 32.5698 65.626 33.3491 65.626C34.1284 65.626 34.7612 64.9932 34.7612 64.2109C34.7612 63.4316 34.1284 62.7959 33.3491 62.7959Z" fill="#EEEEEE"/>
<g filter="url(#filter1_f_80_561)">
<ellipse cx="151.849" cy="76.5" rx="44.5" ry="22.5" fill="#D8BA4F" fill-opacity="0.8"/>
</g>
<g filter="url(#filter2_f_80_561)">
<ellipse cx="245.849" cy="47" rx="45.5" ry="22" fill="#D8BA4F" fill-opacity="0.8"/>
</g>
<defs>
<filter id="filter0_b_80_561" x="-19.6509" y="4" width="382" height="116" filterUnits="userSpaceOnUse" color-interpolation-filters="sRGB">
<feFlood flood-opacity="0" result="BackgroundImageFix"/>
<feGaussianBlur in="BackgroundImageFix" stdDeviation="10"/>
<feComposite in2="SourceAlpha" operator="in" result="effect1_backgroundBlur_80_561"/>
<feBlend mode="normal" in="SourceGraphic" in2="effect1_backgroundBlur_80_561" result="shape"/>
</filter>
<filter id="filter1_f_80_561" x="82.3491" y="29" width="139" height="95" filterUnits="userSpaceOnUse" color-interpolation-filters="sRGB">
<feFlood flood-opacity="0" result="BackgroundImageFix"/>
<feBlend mode="normal" in="SourceGraphic" in2="BackgroundImageFix" result="shape"/>
<feGaussianBlur stdDeviation="12.5" result="effect1_foregroundBlur_80_561"/>
</filter>
<filter id="filter2_f_80_561" x="175.349" y="0" width="141" height="94" filterUnits="userSpaceOnUse" color-interpolation-filters="sRGB">
<feFlood flood-opacity="0" result="BackgroundImageFix"/>
<feBlend mode="normal" in="SourceGraphic" in2="BackgroundImageFix" result="shape"/>
<feGaussianBlur stdDeviation="12.5" result="effect1_foregroundBlur_80_561"/>
</filter>
</defs>
</svg>
