<svg width="26" height="26" viewBox="0 0 26 26" fill="none" xmlns="http://www.w3.org/2000/svg">
<path d="M16.62 3.96002C15.2215 3.96002 13.954 4.2221 12.9634 4.71584C11.9736 5.20958 11.16 6.01376 11.16 7.08002V10.2C11.16 10.3006 11.1936 10.3981 11.2092 10.4925C10.4284 10.2941 9.62561 10.1958 8.82005 10.2C7.42151 10.2 6.15401 10.4621 5.16341 10.9558C4.17359 11.4496 3.36005 12.2538 3.36005 13.32V19.56C3.36005 20.6263 4.17359 21.4305 5.16419 21.9242C6.15401 22.4179 7.42151 22.68 8.82005 22.68C10.2186 22.68 11.4861 22.4179 12.4767 21.9242C13.4657 21.4305 14.28 20.6263 14.28 19.56V19.2433C15.0431 19.4496 15.8296 19.5561 16.62 19.56C18.0186 19.56 19.2861 19.2979 20.2767 18.8042C21.2657 18.3105 22.08 17.5063 22.08 16.44V7.08002C22.08 6.01376 21.2665 5.20958 20.2759 4.71584C19.2869 4.2221 18.0194 3.96002 16.62 3.96002ZM16.62 5.52002C17.808 5.52002 18.8657 5.77586 19.5692 6.1292C20.2736 6.48254 20.52 6.8546 20.52 7.08002C20.52 7.30622 20.2736 7.6775 19.5692 8.03084C18.8664 8.38418 17.808 8.64002 16.62 8.64002C15.4321 8.64002 14.3744 8.38418 13.6709 8.03084C12.9665 7.6775 12.72 7.30544 12.72 7.08002C12.72 6.85382 12.9665 6.48254 13.6709 6.1292C14.3736 5.77586 15.4321 5.52002 16.62 5.52002ZM12.72 9.29834C12.8019 9.34358 12.8784 9.40208 12.9642 9.4442C13.954 9.93794 15.2215 10.2 16.62 10.2C18.0186 10.2 19.2861 9.93794 20.2767 9.4442C20.3617 9.40208 20.4381 9.34358 20.52 9.29834V10.2C20.52 10.4262 20.2736 10.7975 19.5692 11.1508C18.8657 11.5042 17.808 11.76 16.62 11.76C15.4321 11.76 14.3744 11.5042 13.6709 11.1508C12.9665 10.7975 12.72 10.4254 12.72 10.2V9.29834ZM8.82005 11.76C10.008 11.76 11.0657 12.0159 11.7692 12.3692C12.4736 12.7225 12.72 13.0946 12.72 13.32C12.72 13.5462 12.4736 13.9175 11.7692 14.2708C11.0657 14.6242 10.008 14.88 8.82005 14.88C7.63211 14.88 6.57443 14.6242 5.87087 14.2708C5.16653 13.9175 4.92005 13.5454 4.92005 13.32C4.92005 13.0938 5.16653 12.7225 5.87087 12.3692C6.57365 12.0159 7.63211 11.76 8.82005 11.76ZM20.52 12.4183V13.32C20.52 13.5462 20.2736 13.9175 19.5692 14.2708C18.8657 14.6242 17.808 14.88 16.62 14.88C15.8255 14.8843 15.0354 14.7608 14.28 14.5142V13.32C14.28 13.2194 14.2465 13.1219 14.2309 13.0275C14.9563 13.2163 15.7605 13.32 16.62 13.32C18.0186 13.32 19.2861 13.0579 20.2767 12.5642C20.3617 12.5221 20.4381 12.4636 20.52 12.4183V12.4183ZM4.92005 15.5383C5.00195 15.5836 5.07839 15.6421 5.16419 15.6842C6.15401 16.1779 7.42151 16.44 8.82005 16.44C10.2186 16.44 11.4861 16.1779 12.4767 15.6842C12.5617 15.6421 12.6381 15.5836 12.72 15.5383V16.44C12.72 16.6662 12.4736 17.0375 11.7692 17.3908C11.0657 17.7442 10.008 18 8.82005 18C7.63211 18 6.57443 17.7442 5.87087 17.3908C5.16653 17.0375 4.92005 16.6654 4.92005 16.44V15.5383ZM20.52 15.5383V16.44C20.52 16.6662 20.2736 17.0375 19.5692 17.3908C18.8657 17.7442 17.808 18 16.62 18C15.7332 18 14.9321 17.8752 14.28 17.6584V16.1475C14.9961 16.3363 15.7761 16.44 16.62 16.44C18.0186 16.44 19.2861 16.1779 20.2767 15.6842C20.3617 15.6421 20.4381 15.5836 20.52 15.5383V15.5383ZM4.92005 18.6583C5.00195 18.7036 5.07839 18.7621 5.16419 18.8042C6.15401 19.2979 7.42151 19.56 8.82005 19.56C10.2186 19.56 11.4861 19.2979 12.4767 18.8042C12.5617 18.7621 12.6381 18.7036 12.72 18.6583V19.56C12.72 19.7862 12.4736 20.1575 11.7692 20.5108C11.0657 20.8642 10.008 21.12 8.82005 21.12C7.63211 21.12 6.57443 20.8642 5.87087 20.5108C5.16653 20.1575 4.92005 19.7854 4.92005 19.56V18.6583Z" fill="white"/>
</svg>
