<svg width="36" height="37" viewBox="0 0 36 37" fill="none" xmlns="http://www.w3.org/2000/svg">
<rect y="0.5" width="36" height="36" rx="12" fill="white"/>
<rect width="27" height="26" transform="translate(3 6.5)" fill="white"/>
<path d="M22.5693 21.7254C26.5839 21.7254 29.8384 18.5424 29.8384 14.616C29.8384 10.6896 26.5839 7.50665 22.5693 7.50665V21.7254ZM7.40771 21.7254H22.5693V7.50665H7.40771V21.7254Z" fill="#043BD8"/>
<path d="M22.6268 11.9843H9.12679C7.69298 11.9843 6.53064 13.1211 6.53064 14.5234C6.53064 15.9257 7.69298 17.0624 9.12679 17.0624H22.6268C24.0606 17.0624 25.2229 15.9257 25.2229 14.5234C25.2229 13.1211 24.0606 11.9843 22.6268 11.9843Z" fill="white"/>
<path d="M20.7355 28.8736C20.7355 28.8736 14.8805 23.2178 9.48462 17.992L14.599 17.9919L16.804 17.9919L27.982 28.825L20.7355 28.8736Z" fill="#043BD8"/>
<path d="M11.1462 12.0187C11.1462 12.0187 8.6354 9.50763 6.5564 7.49414H7.61546H8.13469L12.7227 12.0188L11.1462 12.0187Z" fill="white"/>
<path d="M14.1151 11.9904C14.1151 11.9904 11.6043 9.47936 9.52527 7.46588H10.5843H11.1036L15.6915 11.9905L14.1151 11.9904Z" fill="white"/>
<path d="M16.8151 11.9904C16.8151 11.9904 14.3042 9.47936 12.2252 7.46588H13.2843H13.8035L18.3915 11.9905L16.8151 11.9904Z" fill="white"/>
<path d="M20.9034 21.9602C20.9034 21.9602 18.3986 19.4233 16.1309 17.0105L18.4612 17.0106L19.447 17.0427L24.1446 22.0444L20.9034 21.9602Z" fill="white"/>
<path d="M9.64267 21.6894C9.64267 21.6894 9.82515 24.4088 5.85505 20.5278L5.16223 15.9018L11.6193 15.8588L6.8133 15.3643L14.1232 22.5351L9.64267 21.6894Z" fill="white"/>
<path d="M9.3438 12.0243C9.3438 12.0243 9.61796 15.6525 7.88219 13.9557L6.79326 12.8904L6.35962 8.73948L7.67651 7.98627L8.12789 8.46478L11.7236 11.9823L9.3438 12.0243Z" fill="white"/>
</svg>
