<svg xmlns="http://www.w3.org/2000/svg" width="60" height="42" fill="none" viewBox="0 0 60 42">
  <path fill="#fff" d="M42.471 24.595c8.11 0 14.686-5.142 14.686-11.484 0-6.343-6.575-11.485-14.686-11.485v22.969Zm-30.63 0h30.63V1.626h-30.63v22.969Z"/>
  <path fill="#1B47C3" d="M42.681 8.845H14.15c-2.897 0-5.245 1.836-5.245 4.101 0 2.266 2.348 4.102 5.245 4.102h28.53c2.897 0 5.245-1.836 5.245-4.101 0-2.266-2.348-4.102-5.245-4.102Z"/>
  <path fill="#fff" d="M38.767 36.142s-11.829-9.136-22.73-17.578h14.788l22.582 17.5-14.64.078ZM19.394 8.915s-5.072-4.056-9.272-7.309h3.188l9.269 7.309h-3.185Z"/>
  <path fill="#1C2CBC" d="M25.392 8.87S20.32 4.812 16.12 1.56h3.188l9.269 7.31h-3.185Zm5.454 0s-5.072-4.057-9.272-7.31h3.189l9.268 7.31h-3.184Z"/>
  <path fill="#1B47C3" d="M39.106 24.974s-5.06-4.098-9.642-7.995h4.708l1.992.052 9.49 8.08-6.548-.137Zm-18.022 2.969s-.8 3.493-11.65-4.989l-1.159-7.218-2.145-3.334 3.304.917 22.481 17.578-10.831-2.954Z"/>
  <path fill="#1B47C3" d="M17.806 10.27s-4.2 8.537-9.808 4.153V1.914l3.33-1.223 1.476 1.223 11.62 9.087-6.618-.73Z"/>
</svg>
