<svg width="375" height="242" viewBox="0 0 375 242" fill="none" xmlns="http://www.w3.org/2000/svg">
<g filter="url(#filter0_d_2_4181)">
<rect x="25" y="62" width="149" height="168" rx="14" fill="white"/>
</g>
<path d="M40.52 190.788C40.48 190.856 40.438 190.906 40.394 190.938C40.35 190.97 40.294 190.986 40.226 190.986C40.154 190.986 40.072 190.954 39.98 190.89C39.888 190.822 39.772 190.748 39.632 190.668C39.496 190.584 39.332 190.51 39.14 190.446C38.948 190.378 38.718 190.344 38.45 190.344C38.198 190.344 37.976 190.378 37.784 190.446C37.596 190.51 37.438 190.6 37.31 190.716C37.182 190.828 37.084 190.962 37.016 191.118C36.952 191.27 36.92 191.436 36.92 191.616C36.92 191.848 36.978 192.04 37.094 192.192C37.214 192.344 37.37 192.474 37.562 192.582C37.754 192.69 37.972 192.784 38.216 192.864C38.46 192.944 38.71 193.028 38.966 193.116C39.222 193.2 39.472 193.298 39.716 193.41C39.96 193.522 40.178 193.664 40.37 193.836C40.562 194.004 40.716 194.212 40.832 194.46C40.952 194.704 41.012 195.004 41.012 195.36C41.012 195.74 40.946 196.096 40.814 196.428C40.686 196.76 40.498 197.05 40.25 197.298C40.002 197.546 39.696 197.742 39.332 197.886C38.972 198.026 38.562 198.096 38.102 198.096C37.826 198.096 37.558 198.068 37.298 198.012C37.038 197.96 36.792 197.886 36.56 197.79C36.328 197.69 36.11 197.572 35.906 197.436C35.706 197.296 35.526 197.14 35.366 196.968L35.732 196.356C35.768 196.308 35.81 196.268 35.858 196.236C35.91 196.204 35.968 196.188 36.032 196.188C36.116 196.188 36.212 196.232 36.32 196.32C36.432 196.408 36.568 196.506 36.728 196.614C36.892 196.718 37.086 196.814 37.31 196.902C37.538 196.99 37.814 197.034 38.138 197.034C38.402 197.034 38.638 197 38.846 196.932C39.054 196.86 39.228 196.76 39.368 196.632C39.512 196.5 39.622 196.342 39.698 196.158C39.774 195.974 39.812 195.77 39.812 195.546C39.812 195.294 39.754 195.088 39.638 194.928C39.522 194.768 39.368 194.634 39.176 194.526C38.984 194.418 38.766 194.326 38.522 194.25C38.278 194.174 38.028 194.096 37.772 194.016C37.516 193.932 37.266 193.836 37.022 193.728C36.778 193.62 36.56 193.48 36.368 193.308C36.176 193.132 36.022 192.914 35.906 192.654C35.79 192.39 35.732 192.066 35.732 191.682C35.732 191.374 35.792 191.076 35.912 190.788C36.032 190.5 36.206 190.246 36.434 190.026C36.666 189.802 36.95 189.624 37.286 189.492C37.622 189.356 38.006 189.288 38.438 189.288C38.922 189.288 39.366 189.366 39.77 189.522C40.178 189.674 40.532 189.894 40.832 190.182L40.52 190.788ZM43.9878 198.096C43.4958 198.096 43.1158 197.958 42.8478 197.682C42.5838 197.406 42.4518 197.012 42.4518 196.5V192.852H41.7438C41.6758 192.852 41.6178 192.832 41.5698 192.792C41.5258 192.748 41.5038 192.684 41.5038 192.6V192.126L42.4938 191.988L42.7578 190.17C42.7738 190.102 42.8038 190.05 42.8478 190.014C42.8958 189.974 42.9558 189.954 43.0278 189.954H43.6218V192H45.3498V192.852H43.6218V196.422C43.6218 196.662 43.6798 196.842 43.7958 196.962C43.9158 197.078 44.0678 197.136 44.2518 197.136C44.3598 197.136 44.4518 197.122 44.5278 197.094C44.6078 197.066 44.6758 197.036 44.7318 197.004C44.7878 196.968 44.8358 196.936 44.8758 196.908C44.9158 196.88 44.9518 196.866 44.9838 196.866C45.0238 196.866 45.0538 196.876 45.0738 196.896C45.0978 196.912 45.1218 196.94 45.1458 196.98L45.4938 197.544C45.3018 197.72 45.0738 197.856 44.8098 197.952C44.5458 198.048 44.2718 198.096 43.9878 198.096ZM49.7035 195.294C49.2275 195.31 48.8235 195.348 48.4915 195.408C48.1595 195.464 47.8895 195.54 47.6815 195.636C47.4735 195.732 47.3235 195.846 47.2315 195.978C47.1395 196.106 47.0935 196.25 47.0935 196.41C47.0935 196.562 47.1175 196.694 47.1655 196.806C47.2175 196.914 47.2855 197.004 47.3695 197.076C47.4575 197.144 47.5595 197.194 47.6755 197.226C47.7915 197.258 47.9175 197.274 48.0535 197.274C48.2335 197.274 48.3975 197.256 48.5455 197.22C48.6975 197.184 48.8395 197.134 48.9715 197.07C49.1035 197.002 49.2295 196.92 49.3495 196.824C49.4695 196.728 49.5875 196.618 49.7035 196.494V195.294ZM46.2715 192.756C46.6115 192.432 46.9795 192.19 47.3755 192.03C47.7755 191.87 48.2135 191.79 48.6895 191.79C49.0375 191.79 49.3455 191.848 49.6135 191.964C49.8815 192.076 50.1075 192.234 50.2915 192.438C50.4755 192.642 50.6135 192.886 50.7055 193.17C50.8015 193.454 50.8495 193.768 50.8495 194.112V198H50.3275C50.2115 198 50.1235 197.982 50.0635 197.946C50.0035 197.906 49.9555 197.834 49.9195 197.73L49.7935 197.196C49.6375 197.34 49.4835 197.468 49.3315 197.58C49.1795 197.688 49.0195 197.782 48.8515 197.862C48.6875 197.938 48.5115 197.996 48.3235 198.036C48.1355 198.076 47.9275 198.096 47.6995 198.096C47.4595 198.096 47.2335 198.064 47.0215 198C46.8135 197.932 46.6315 197.83 46.4755 197.694C46.3195 197.558 46.1955 197.388 46.1035 197.184C46.0155 196.98 45.9715 196.742 45.9715 196.47C45.9715 196.23 46.0355 196 46.1635 195.78C46.2955 195.556 46.5075 195.356 46.7995 195.18C47.0955 195.004 47.4795 194.86 47.9515 194.748C48.4275 194.636 49.0115 194.572 49.7035 194.556V194.112C49.7035 193.652 49.6055 193.308 49.4095 193.08C49.2135 192.852 48.9255 192.738 48.5455 192.738C48.2895 192.738 48.0735 192.77 47.8975 192.834C47.7255 192.898 47.5755 192.97 47.4475 193.05C47.3235 193.126 47.2135 193.196 47.1175 193.26C47.0255 193.324 46.9295 193.356 46.8295 193.356C46.7495 193.356 46.6795 193.334 46.6195 193.29C46.5635 193.246 46.5175 193.194 46.4815 193.134L46.2715 192.756ZM53.5198 193.074C53.7158 192.674 53.9518 192.36 54.2278 192.132C54.5038 191.904 54.8358 191.79 55.2238 191.79C55.3558 191.79 55.4798 191.806 55.5958 191.838C55.7158 191.866 55.8198 191.91 55.9078 191.97L55.8298 192.852C55.8018 192.96 55.7358 193.014 55.6318 193.014C55.5758 193.014 55.4918 193.004 55.3798 192.984C55.2678 192.96 55.1478 192.948 55.0198 192.948C54.8318 192.948 54.6658 192.976 54.5218 193.032C54.3778 193.084 54.2478 193.164 54.1318 193.272C54.0198 193.376 53.9198 193.506 53.8318 193.662C53.7438 193.814 53.6618 193.988 53.5858 194.184V198H52.4158V191.904H53.0878C53.2158 191.904 53.3018 191.928 53.3458 191.976C53.3938 192.02 53.4278 192.1 53.4478 192.216L53.5198 193.074ZM58.7183 198.096C58.2263 198.096 57.8463 197.958 57.5783 197.682C57.3143 197.406 57.1823 197.012 57.1823 196.5V192.852H56.4743C56.4063 192.852 56.3483 192.832 56.3003 192.792C56.2563 192.748 56.2343 192.684 56.2343 192.6V192.126L57.2243 191.988L57.4883 190.17C57.5043 190.102 57.5343 190.05 57.5783 190.014C57.6263 189.974 57.6863 189.954 57.7583 189.954H58.3523V192H60.0803V192.852H58.3523V196.422C58.3523 196.662 58.4103 196.842 58.5263 196.962C58.6463 197.078 58.7983 197.136 58.9823 197.136C59.0903 197.136 59.1823 197.122 59.2583 197.094C59.3383 197.066 59.4063 197.036 59.4623 197.004C59.5183 196.968 59.5663 196.936 59.6063 196.908C59.6463 196.88 59.6823 196.866 59.7143 196.866C59.7543 196.866 59.7843 196.876 59.8043 196.896C59.8283 196.912 59.8523 196.94 59.8763 196.98L60.2243 197.544C60.0323 197.72 59.8043 197.856 59.5403 197.952C59.2763 198.048 59.0023 198.096 58.7183 198.096ZM65.1608 194.274C65.1608 194.042 65.1268 193.828 65.0588 193.632C64.9948 193.436 64.8988 193.266 64.7708 193.122C64.6428 192.978 64.4868 192.866 64.3028 192.786C64.1188 192.706 63.9068 192.666 63.6668 192.666C63.1748 192.666 62.7868 192.808 62.5028 193.092C62.2228 193.376 62.0448 193.77 61.9688 194.274H65.1608ZM66.1268 197.13C65.9828 197.298 65.8168 197.444 65.6288 197.568C65.4408 197.688 65.2408 197.786 65.0288 197.862C64.8168 197.938 64.5968 197.994 64.3688 198.03C64.1448 198.066 63.9228 198.084 63.7028 198.084C63.2828 198.084 62.8928 198.014 62.5328 197.874C62.1768 197.73 61.8668 197.522 61.6028 197.25C61.3428 196.974 61.1388 196.634 60.9908 196.23C60.8468 195.822 60.7748 195.354 60.7748 194.826C60.7748 194.402 60.8408 194.008 60.9728 193.644C61.1048 193.276 61.2928 192.956 61.5368 192.684C61.7848 192.412 62.0868 192.198 62.4428 192.042C62.7988 191.886 63.1988 191.808 63.6428 191.808C64.0148 191.808 64.3568 191.87 64.6688 191.994C64.9848 192.114 65.2568 192.29 65.4848 192.522C65.7128 192.754 65.8908 193.04 66.0188 193.38C66.1508 193.72 66.2168 194.108 66.2168 194.544C66.2168 194.724 66.1968 194.846 66.1568 194.91C66.1168 194.97 66.0428 195 65.9348 195H61.9388C61.9508 195.364 62.0028 195.682 62.0948 195.954C62.1868 196.222 62.3128 196.446 62.4728 196.626C62.6368 196.806 62.8308 196.94 63.0548 197.028C63.2788 197.116 63.5288 197.16 63.8048 197.16C64.0648 197.16 64.2888 197.13 64.4768 197.07C64.6688 197.01 64.8328 196.946 64.9688 196.878C65.1088 196.806 65.2248 196.74 65.3168 196.68C65.4128 196.62 65.4968 196.59 65.5688 196.59C65.6648 196.59 65.7388 196.626 65.7908 196.698L66.1268 197.13ZM68.5783 193.074C68.7743 192.674 69.0103 192.36 69.2863 192.132C69.5623 191.904 69.8943 191.79 70.2823 191.79C70.4143 191.79 70.5383 191.806 70.6543 191.838C70.7743 191.866 70.8783 191.91 70.9663 191.97L70.8883 192.852C70.8603 192.96 70.7943 193.014 70.6903 193.014C70.6343 193.014 70.5503 193.004 70.4383 192.984C70.3263 192.96 70.2063 192.948 70.0783 192.948C69.8903 192.948 69.7243 192.976 69.5803 193.032C69.4363 193.084 69.3063 193.164 69.1903 193.272C69.0783 193.376 68.9783 193.506 68.8903 193.662C68.8023 193.814 68.7203 193.988 68.6443 194.184V198H67.4743V191.904H68.1463C68.2743 191.904 68.3603 191.928 68.4043 191.976C68.4523 192.02 68.4863 192.1 68.5063 192.216L68.5783 193.074Z" fill="#0D265E"/>
<path d="M140.225 196.89C140.353 196.89 140.453 196.928 140.525 197.004C140.597 197.076 140.633 197.172 140.633 197.292V198H134.849V197.598C134.849 197.518 134.865 197.434 134.897 197.346C134.929 197.254 134.983 197.172 135.059 197.1L137.783 194.37C138.011 194.142 138.217 193.922 138.401 193.71C138.585 193.498 138.741 193.288 138.869 193.08C138.997 192.868 139.095 192.652 139.163 192.432C139.235 192.212 139.271 191.98 139.271 191.736C139.271 191.496 139.233 191.286 139.157 191.106C139.081 190.922 138.977 190.77 138.845 190.65C138.713 190.53 138.557 190.44 138.377 190.38C138.197 190.32 138.003 190.29 137.795 190.29C137.587 190.29 137.395 190.32 137.219 190.38C137.047 190.44 136.893 190.524 136.757 190.632C136.621 190.74 136.507 190.868 136.415 191.016C136.323 191.164 136.257 191.324 136.217 191.496C136.161 191.648 136.089 191.75 136.001 191.802C135.917 191.854 135.793 191.866 135.629 191.838L135.017 191.73C135.073 191.33 135.183 190.978 135.347 190.674C135.511 190.37 135.717 190.116 135.965 189.912C136.213 189.704 136.497 189.548 136.817 189.444C137.141 189.34 137.489 189.288 137.861 189.288C138.237 189.288 138.583 189.344 138.899 189.456C139.219 189.564 139.495 189.722 139.727 189.93C139.959 190.138 140.141 190.392 140.273 190.692C140.405 190.988 140.471 191.324 140.471 191.7C140.471 192.02 140.423 192.318 140.327 192.594C140.235 192.866 140.107 193.126 139.943 193.374C139.783 193.622 139.595 193.864 139.379 194.1C139.167 194.332 138.941 194.568 138.701 194.808L136.517 197.04C136.685 196.996 136.853 196.96 137.021 196.932C137.193 196.904 137.355 196.89 137.507 196.89H140.225ZM147.725 191.808C148.173 191.808 148.577 191.882 148.937 192.03C149.301 192.174 149.609 192.384 149.861 192.66C150.117 192.932 150.313 193.262 150.449 193.65C150.585 194.034 150.653 194.466 150.653 194.946C150.653 195.426 150.585 195.86 150.449 196.248C150.313 196.636 150.117 196.966 149.861 197.238C149.609 197.51 149.301 197.72 148.937 197.868C148.577 198.012 148.173 198.084 147.725 198.084C147.273 198.084 146.865 198.012 146.501 197.868C146.141 197.72 145.833 197.51 145.577 197.238C145.321 196.966 145.123 196.636 144.983 196.248C144.847 195.86 144.779 195.426 144.779 194.946C144.779 194.466 144.847 194.034 144.983 193.65C145.123 193.262 145.321 192.932 145.577 192.66C145.833 192.384 146.141 192.174 146.501 192.03C146.865 191.882 147.273 191.808 147.725 191.808ZM147.725 197.172C148.301 197.172 148.731 196.978 149.015 196.59C149.299 196.202 149.441 195.656 149.441 194.952C149.441 194.248 149.299 193.702 149.015 193.314C148.731 192.922 148.301 192.726 147.725 192.726C147.141 192.726 146.705 192.922 146.417 193.314C146.133 193.702 145.991 194.248 145.991 194.952C145.991 195.656 146.133 196.202 146.417 196.59C146.705 196.978 147.141 197.172 147.725 197.172ZM152.22 198V192.864L151.584 192.786C151.492 192.766 151.416 192.734 151.356 192.69C151.3 192.642 151.272 192.574 151.272 192.486V192H152.22V191.448C152.22 191.1 152.27 190.79 152.37 190.518C152.47 190.246 152.612 190.016 152.796 189.828C152.984 189.636 153.208 189.492 153.468 189.396C153.732 189.296 154.028 189.246 154.356 189.246C154.632 189.246 154.886 189.286 155.118 189.366L155.094 189.954C155.09 190.006 155.074 190.046 155.046 190.074C155.018 190.098 154.98 190.116 154.932 190.128C154.888 190.14 154.832 190.148 154.764 190.152C154.7 190.152 154.63 190.152 154.554 190.152C154.374 190.152 154.21 190.174 154.062 190.218C153.914 190.262 153.788 190.336 153.684 190.44C153.58 190.544 153.5 190.682 153.444 190.854C153.388 191.022 153.36 191.232 153.36 191.484V192H155.07V192.852H153.396V198H152.22ZM160.277 192.6C160.717 192.508 161.115 192.462 161.471 192.462C161.919 192.462 162.315 192.53 162.659 192.666C163.003 192.798 163.291 192.982 163.523 193.218C163.759 193.45 163.935 193.726 164.051 194.046C164.171 194.362 164.231 194.706 164.231 195.078C164.231 195.534 164.151 195.948 163.991 196.32C163.831 196.692 163.611 197.01 163.331 197.274C163.051 197.538 162.719 197.742 162.335 197.886C161.955 198.026 161.545 198.096 161.105 198.096C160.845 198.096 160.597 198.07 160.361 198.018C160.129 197.966 159.911 197.898 159.707 197.814C159.503 197.726 159.313 197.626 159.137 197.514C158.965 197.402 158.811 197.284 158.675 197.16L159.035 196.656C159.111 196.544 159.213 196.488 159.341 196.488C159.425 196.488 159.517 196.52 159.617 196.584C159.721 196.644 159.843 196.712 159.983 196.788C160.123 196.864 160.289 196.934 160.481 196.998C160.673 197.058 160.901 197.088 161.165 197.088C161.457 197.088 161.719 197.042 161.951 196.95C162.187 196.854 162.385 196.72 162.545 196.548C162.709 196.376 162.833 196.17 162.917 195.93C163.005 195.69 163.049 195.424 163.049 195.132C163.049 194.872 163.011 194.638 162.935 194.43C162.859 194.222 162.745 194.044 162.593 193.896C162.441 193.748 162.251 193.636 162.023 193.56C161.795 193.48 161.529 193.44 161.225 193.44C160.801 193.44 160.349 193.516 159.869 193.668L159.131 193.452L159.833 189.384H163.961V189.894C163.961 190.062 163.907 190.2 163.799 190.308C163.695 190.412 163.519 190.464 163.271 190.464H160.649L160.277 192.6Z" fill="#C1CDE1"/>
<rect x="35" y="172" width="115" height="8" rx="4" fill="#E3EBF8"/>
<rect x="35" y="172" width="40" height="8" rx="4" fill="#35D487"/>
<rect x="29" y="109.359" width="88.1891" height="97.6847" rx="44.0946" transform="rotate(-45 29 109.359)" fill="url(#paint0_linear_2_4181)" fill-opacity="0.15"/>
<rect x="32.0848" y="109.359" width="83.8265" height="93.3221" rx="41.9133" transform="rotate(-45 32.0848 109.359)" stroke="url(#paint1_linear_2_4181)" stroke-opacity="0.28" stroke-width="4.3626"/>
<path d="M122.304 211.5C122.671 211.423 123.003 211.385 123.299 211.385C123.673 211.385 124.003 211.442 124.289 211.555C124.576 211.665 124.816 211.818 125.009 212.015C125.206 212.208 125.353 212.438 125.449 212.705C125.549 212.968 125.599 213.255 125.599 213.565C125.599 213.945 125.533 214.29 125.399 214.6C125.266 214.91 125.083 215.175 124.849 215.395C124.616 215.615 124.339 215.785 124.019 215.905C123.703 216.022 123.361 216.08 122.994 216.08C122.778 216.08 122.571 216.058 122.374 216.015C122.181 215.972 121.999 215.915 121.829 215.845C121.659 215.772 121.501 215.688 121.354 215.595C121.211 215.502 121.083 215.403 120.969 215.3L121.269 214.88C121.333 214.787 121.418 214.74 121.524 214.74C121.594 214.74 121.671 214.767 121.754 214.82C121.841 214.87 121.943 214.927 122.059 214.99C122.176 215.053 122.314 215.112 122.474 215.165C122.634 215.215 122.824 215.24 123.044 215.24C123.288 215.24 123.506 215.202 123.699 215.125C123.896 215.045 124.061 214.933 124.194 214.79C124.331 214.647 124.434 214.475 124.504 214.275C124.578 214.075 124.614 213.853 124.614 213.61C124.614 213.393 124.583 213.198 124.519 213.025C124.456 212.852 124.361 212.703 124.234 212.58C124.108 212.457 123.949 212.363 123.759 212.3C123.569 212.233 123.348 212.2 123.094 212.2C122.741 212.2 122.364 212.263 121.964 212.39L121.349 212.21L121.934 208.82H125.374V209.245C125.374 209.385 125.329 209.5 125.239 209.59C125.153 209.677 125.006 209.72 124.799 209.72H122.614L122.304 211.5ZM131.75 212.41C131.75 213.037 131.682 213.58 131.545 214.04C131.412 214.5 131.227 214.882 130.99 215.185C130.757 215.485 130.48 215.708 130.16 215.855C129.844 216.002 129.502 216.075 129.135 216.075C128.769 216.075 128.425 216.002 128.105 215.855C127.789 215.708 127.514 215.485 127.28 215.185C127.047 214.882 126.864 214.5 126.73 214.04C126.597 213.58 126.53 213.037 126.53 212.41C126.53 211.783 126.597 211.24 126.73 210.78C126.864 210.317 127.047 209.935 127.28 209.635C127.514 209.332 127.789 209.107 128.105 208.96C128.425 208.813 128.769 208.74 129.135 208.74C129.502 208.74 129.844 208.813 130.16 208.96C130.48 209.107 130.757 209.332 130.99 209.635C131.227 209.935 131.412 210.317 131.545 210.78C131.682 211.24 131.75 211.783 131.75 212.41ZM130.74 212.41C130.74 211.87 130.695 211.418 130.605 211.055C130.519 210.692 130.4 210.4 130.25 210.18C130.104 209.957 129.934 209.798 129.74 209.705C129.547 209.612 129.345 209.565 129.135 209.565C128.925 209.565 128.724 209.612 128.53 209.705C128.337 209.798 128.165 209.957 128.015 210.18C127.869 210.4 127.752 210.692 127.665 211.055C127.579 211.418 127.535 211.87 127.535 212.41C127.535 212.95 127.579 213.402 127.665 213.765C127.752 214.128 127.869 214.42 128.015 214.64C128.165 214.86 128.337 215.017 128.53 215.11C128.724 215.203 128.925 215.25 129.135 215.25C129.345 215.25 129.547 215.203 129.74 215.11C129.934 215.017 130.104 214.86 130.25 214.64C130.4 214.42 130.519 214.128 130.605 213.765C130.695 213.402 130.74 212.95 130.74 212.41ZM137.551 212.41C137.551 213.037 137.483 213.58 137.346 214.04C137.213 214.5 137.028 214.882 136.791 215.185C136.558 215.485 136.281 215.708 135.961 215.855C135.644 216.002 135.303 216.075 134.936 216.075C134.569 216.075 134.226 216.002 133.906 215.855C133.589 215.708 133.314 215.485 133.081 215.185C132.848 214.882 132.664 214.5 132.531 214.04C132.398 213.58 132.331 213.037 132.331 212.41C132.331 211.783 132.398 211.24 132.531 210.78C132.664 210.317 132.848 209.935 133.081 209.635C133.314 209.332 133.589 209.107 133.906 208.96C134.226 208.813 134.569 208.74 134.936 208.74C135.303 208.74 135.644 208.813 135.961 208.96C136.281 209.107 136.558 209.332 136.791 209.635C137.028 209.935 137.213 210.317 137.346 210.78C137.483 211.24 137.551 211.783 137.551 212.41ZM136.541 212.41C136.541 211.87 136.496 211.418 136.406 211.055C136.319 210.692 136.201 210.4 136.051 210.18C135.904 209.957 135.734 209.798 135.541 209.705C135.348 209.612 135.146 209.565 134.936 209.565C134.726 209.565 134.524 209.612 134.331 209.705C134.138 209.798 133.966 209.957 133.816 210.18C133.669 210.4 133.553 210.692 133.466 211.055C133.379 211.418 133.336 211.87 133.336 212.41C133.336 212.95 133.379 213.402 133.466 213.765C133.553 214.128 133.669 214.42 133.816 214.64C133.966 214.86 134.138 215.017 134.331 215.11C134.524 215.203 134.726 215.25 134.936 215.25C135.146 215.25 135.348 215.203 135.541 215.11C135.734 215.017 135.904 214.86 136.051 214.64C136.201 214.42 136.319 214.128 136.406 213.765C136.496 213.402 136.541 212.95 136.541 212.41ZM146.271 214.46C146.331 214.46 146.383 214.483 146.426 214.53L146.846 214.99C146.553 215.337 146.194 215.605 145.771 215.795C145.351 215.985 144.844 216.08 144.251 216.08C143.731 216.08 143.259 215.99 142.836 215.81C142.416 215.63 142.056 215.378 141.756 215.055C141.459 214.732 141.229 214.345 141.066 213.895C140.903 213.445 140.821 212.95 140.821 212.41C140.821 211.87 140.906 211.375 141.076 210.925C141.249 210.475 141.491 210.088 141.801 209.765C142.111 209.442 142.481 209.19 142.911 209.01C143.344 208.83 143.823 208.74 144.346 208.74C144.856 208.74 145.309 208.823 145.706 208.99C146.103 209.157 146.448 209.378 146.741 209.655L146.391 210.15C146.368 210.187 146.338 210.217 146.301 210.24C146.268 210.263 146.223 210.275 146.166 210.275C146.103 210.275 146.028 210.243 145.941 210.18C145.858 210.117 145.746 210.047 145.606 209.97C145.469 209.89 145.299 209.818 145.096 209.755C144.893 209.692 144.639 209.66 144.336 209.66C143.979 209.66 143.653 209.723 143.356 209.85C143.059 209.973 142.803 210.153 142.586 210.39C142.373 210.623 142.206 210.912 142.086 211.255C141.969 211.595 141.911 211.98 141.911 212.41C141.911 212.847 141.973 213.235 142.096 213.575C142.219 213.915 142.389 214.203 142.606 214.44C142.823 214.677 143.078 214.857 143.371 214.98C143.664 215.103 143.981 215.165 144.321 215.165C144.528 215.165 144.713 215.153 144.876 215.13C145.043 215.103 145.194 215.065 145.331 215.015C145.471 214.965 145.603 214.902 145.726 214.825C145.849 214.745 145.971 214.65 146.091 214.54C146.118 214.517 146.146 214.498 146.176 214.485C146.206 214.468 146.238 214.46 146.271 214.46ZM149.784 210.84C150.157 210.84 150.494 210.902 150.794 211.025C151.097 211.145 151.354 211.32 151.564 211.55C151.777 211.777 151.94 212.052 152.054 212.375C152.167 212.695 152.224 213.055 152.224 213.455C152.224 213.855 152.167 214.217 152.054 214.54C151.94 214.863 151.777 215.138 151.564 215.365C151.354 215.592 151.097 215.767 150.794 215.89C150.494 216.01 150.157 216.07 149.784 216.07C149.407 216.07 149.067 216.01 148.764 215.89C148.464 215.767 148.207 215.592 147.994 215.365C147.78 215.138 147.615 214.863 147.499 214.54C147.385 214.217 147.329 213.855 147.329 213.455C147.329 213.055 147.385 212.695 147.499 212.375C147.615 212.052 147.78 211.777 147.994 211.55C148.207 211.32 148.464 211.145 148.764 211.025C149.067 210.902 149.407 210.84 149.784 210.84ZM149.784 215.31C150.264 215.31 150.622 215.148 150.859 214.825C151.095 214.502 151.214 214.047 151.214 213.46C151.214 212.873 151.095 212.418 150.859 212.095C150.622 211.768 150.264 211.605 149.784 211.605C149.297 211.605 148.934 211.768 148.694 212.095C148.457 212.418 148.339 212.873 148.339 213.46C148.339 214.047 148.457 214.502 148.694 214.825C148.934 215.148 149.297 215.31 149.784 215.31ZM154.332 210.92V216H153.357V210.92H154.332ZM154.517 209.35C154.517 209.44 154.499 209.527 154.462 209.61C154.425 209.69 154.375 209.762 154.312 209.825C154.252 209.885 154.18 209.933 154.097 209.97C154.014 210.003 153.927 210.02 153.837 210.02C153.747 210.02 153.662 210.003 153.582 209.97C153.502 209.933 153.43 209.885 153.367 209.825C153.307 209.762 153.259 209.69 153.222 209.61C153.189 209.527 153.172 209.44 153.172 209.35C153.172 209.257 153.189 209.17 153.222 209.09C153.259 209.007 153.307 208.935 153.367 208.875C153.43 208.812 153.502 208.763 153.582 208.73C153.662 208.693 153.747 208.675 153.837 208.675C153.927 208.675 154.014 208.693 154.097 208.73C154.18 208.763 154.252 208.812 154.312 208.875C154.375 208.935 154.425 209.007 154.462 209.09C154.499 209.17 154.517 209.257 154.517 209.35ZM156.659 211.625C156.769 211.508 156.884 211.402 157.004 211.305C157.124 211.208 157.25 211.127 157.384 211.06C157.52 210.99 157.665 210.937 157.819 210.9C157.975 210.86 158.142 210.84 158.319 210.84C158.599 210.84 158.844 210.887 159.054 210.98C159.267 211.073 159.445 211.205 159.589 211.375C159.732 211.542 159.84 211.743 159.914 211.98C159.987 212.217 160.024 212.478 160.024 212.765V216H159.044V212.765C159.044 212.402 158.96 212.12 158.794 211.92C158.627 211.717 158.372 211.615 158.029 211.615C157.779 211.615 157.544 211.675 157.324 211.795C157.107 211.912 156.905 212.072 156.719 212.275V216H155.744V210.92H156.329C156.465 210.92 156.55 210.985 156.584 211.115L156.659 211.625ZM164.334 211.795C164.308 211.838 164.279 211.87 164.249 211.89C164.219 211.907 164.181 211.915 164.134 211.915C164.081 211.915 164.021 211.897 163.954 211.86C163.891 211.823 163.813 211.783 163.719 211.74C163.629 211.697 163.523 211.657 163.399 211.62C163.276 211.583 163.129 211.565 162.959 211.565C162.819 211.565 162.691 211.583 162.574 211.62C162.461 211.653 162.364 211.702 162.284 211.765C162.204 211.825 162.143 211.898 162.099 211.985C162.056 212.068 162.034 212.158 162.034 212.255C162.034 212.382 162.071 212.487 162.144 212.57C162.221 212.653 162.319 212.725 162.439 212.785C162.563 212.845 162.701 212.9 162.854 212.95C163.011 212.997 163.169 213.047 163.329 213.1C163.493 213.153 163.651 213.215 163.804 213.285C163.961 213.352 164.099 213.437 164.219 213.54C164.343 213.64 164.441 213.762 164.514 213.905C164.591 214.048 164.629 214.223 164.629 214.43C164.629 214.667 164.586 214.887 164.499 215.09C164.416 215.29 164.291 215.463 164.124 215.61C163.961 215.757 163.758 215.872 163.514 215.955C163.271 216.038 162.993 216.08 162.679 216.08C162.329 216.08 162.006 216.022 161.709 215.905C161.413 215.788 161.164 215.64 160.964 215.46L161.194 215.085C161.221 215.038 161.254 215.003 161.294 214.98C161.334 214.953 161.388 214.94 161.454 214.94C161.518 214.94 161.583 214.963 161.649 215.01C161.716 215.057 161.796 215.108 161.889 215.165C161.983 215.218 162.096 215.268 162.229 215.315C162.363 215.358 162.529 215.38 162.729 215.38C162.896 215.38 163.041 215.36 163.164 215.32C163.288 215.277 163.389 215.22 163.469 215.15C163.553 215.077 163.614 214.993 163.654 214.9C163.694 214.807 163.714 214.708 163.714 214.605C163.714 214.472 163.676 214.362 163.599 214.275C163.526 214.185 163.428 214.108 163.304 214.045C163.184 213.982 163.046 213.927 162.889 213.88C162.733 213.833 162.573 213.783 162.409 213.73C162.246 213.677 162.086 213.615 161.929 213.545C161.773 213.475 161.633 213.387 161.509 213.28C161.389 213.173 161.291 213.043 161.214 212.89C161.141 212.737 161.104 212.55 161.104 212.33C161.104 212.133 161.144 211.945 161.224 211.765C161.308 211.585 161.426 211.427 161.579 211.29C161.736 211.153 161.928 211.045 162.154 210.965C162.384 210.882 162.646 210.84 162.939 210.84C163.276 210.84 163.579 210.893 163.849 211C164.123 211.107 164.356 211.253 164.549 211.44L164.334 211.795Z" fill="#35D487"/>
<path d="M40.11 215.255V216H36.23V215.255H37.75V210.55C37.75 210.4 37.755 210.245 37.765 210.085L36.545 211.12C36.4983 211.157 36.4517 211.18 36.405 211.19C36.3583 211.2 36.3133 211.202 36.27 211.195C36.23 211.188 36.1933 211.175 36.16 211.155C36.13 211.132 36.105 211.108 36.085 211.085L35.78 210.66L37.93 208.805H38.725V215.255H40.11ZM42.6658 211.5C43.0324 211.423 43.3641 211.385 43.6608 211.385C44.0341 211.385 44.3641 211.442 44.6508 211.555C44.9374 211.665 45.1774 211.818 45.3708 212.015C45.5674 212.208 45.7141 212.438 45.8108 212.705C45.9108 212.968 45.9608 213.255 45.9608 213.565C45.9608 213.945 45.8941 214.29 45.7608 214.6C45.6274 214.91 45.4441 215.175 45.2108 215.395C44.9774 215.615 44.7008 215.785 44.3808 215.905C44.0641 216.022 43.7224 216.08 43.3558 216.08C43.1391 216.08 42.9324 216.058 42.7358 216.015C42.5424 215.972 42.3608 215.915 42.1908 215.845C42.0208 215.772 41.8624 215.688 41.7158 215.595C41.5724 215.502 41.4441 215.403 41.3308 215.3L41.6308 214.88C41.6941 214.787 41.7791 214.74 41.8858 214.74C41.9558 214.74 42.0324 214.767 42.1158 214.82C42.2024 214.87 42.3041 214.927 42.4208 214.99C42.5374 215.053 42.6758 215.112 42.8358 215.165C42.9958 215.215 43.1858 215.24 43.4058 215.24C43.6491 215.24 43.8674 215.202 44.0608 215.125C44.2574 215.045 44.4224 214.933 44.5558 214.79C44.6924 214.647 44.7958 214.475 44.8658 214.275C44.9391 214.075 44.9758 213.853 44.9758 213.61C44.9758 213.393 44.9441 213.198 44.8808 213.025C44.8174 212.852 44.7224 212.703 44.5958 212.58C44.4691 212.457 44.3108 212.363 44.1208 212.3C43.9308 212.233 43.7091 212.2 43.4558 212.2C43.1024 212.2 42.7258 212.263 42.3258 212.39L41.7108 212.21L42.2958 208.82H45.7358V209.245C45.7358 209.385 45.6908 209.5 45.6008 209.59C45.5141 209.677 45.3674 209.72 45.1608 209.72H42.9758L42.6658 211.5ZM56.2809 212.41C56.2809 212.947 56.1942 213.435 56.0209 213.875C55.8509 214.315 55.6092 214.693 55.2959 215.01C54.9825 215.323 54.6075 215.567 54.1709 215.74C53.7342 215.913 53.2492 216 52.7159 216H50.0159V208.82H52.7159C53.2492 208.82 53.7342 208.907 54.1709 209.08C54.6075 209.253 54.9825 209.498 55.2959 209.815C55.6092 210.128 55.8509 210.507 56.0209 210.95C56.1942 211.39 56.2809 211.877 56.2809 212.41ZM55.1909 212.41C55.1909 211.983 55.1325 211.602 55.0159 211.265C54.8992 210.925 54.7325 210.638 54.5159 210.405C54.3025 210.168 54.0425 209.988 53.7359 209.865C53.4325 209.742 53.0925 209.68 52.7159 209.68H51.0859V215.14H52.7159C53.0925 215.14 53.4325 215.078 53.7359 214.955C54.0425 214.832 54.3025 214.653 54.5159 214.42C54.7325 214.183 54.8992 213.897 55.0159 213.56C55.1325 213.223 55.1909 212.84 55.1909 212.41ZM59.5199 210.84C59.8933 210.84 60.2299 210.902 60.5299 211.025C60.8333 211.145 61.0899 211.32 61.2999 211.55C61.5133 211.777 61.6766 212.052 61.7899 212.375C61.9033 212.695 61.9599 213.055 61.9599 213.455C61.9599 213.855 61.9033 214.217 61.7899 214.54C61.6766 214.863 61.5133 215.138 61.2999 215.365C61.0899 215.592 60.8333 215.767 60.5299 215.89C60.2299 216.01 59.8933 216.07 59.5199 216.07C59.1433 216.07 58.8033 216.01 58.4999 215.89C58.1999 215.767 57.9433 215.592 57.7299 215.365C57.5166 215.138 57.3516 214.863 57.2349 214.54C57.1216 214.217 57.0649 213.855 57.0649 213.455C57.0649 213.055 57.1216 212.695 57.2349 212.375C57.3516 212.052 57.5166 211.777 57.7299 211.55C57.9433 211.32 58.1999 211.145 58.4999 211.025C58.8033 210.902 59.1433 210.84 59.5199 210.84ZM59.5199 215.31C59.9999 215.31 60.3583 215.148 60.5949 214.825C60.8316 214.502 60.9499 214.047 60.9499 213.46C60.9499 212.873 60.8316 212.418 60.5949 212.095C60.3583 211.768 59.9999 211.605 59.5199 211.605C59.0333 211.605 58.6699 211.768 58.4299 212.095C58.1933 212.418 58.0749 212.873 58.0749 213.46C58.0749 214.047 58.1933 214.502 58.4299 214.825C58.6699 215.148 59.0333 215.31 59.5199 215.31ZM70.0352 210.92L68.4002 216H67.6202C67.5268 216 67.4635 215.938 67.4302 215.815L66.3602 212.505C66.3335 212.422 66.3102 212.34 66.2902 212.26C66.2702 212.177 66.2518 212.093 66.2352 212.01C66.2052 212.183 66.1635 212.352 66.1102 212.515L65.0252 215.815C64.9918 215.938 64.9202 216 64.8102 216H64.0702L62.4302 210.92H63.2002C63.2768 210.92 63.3402 210.938 63.3902 210.975C63.4435 211.012 63.4785 211.058 63.4952 211.115L64.4102 214.235C64.4402 214.362 64.4668 214.485 64.4902 214.605C64.5135 214.725 64.5352 214.845 64.5552 214.965C64.5852 214.845 64.6168 214.725 64.6502 214.605C64.6868 214.485 64.7235 214.362 64.7602 214.235L65.7752 211.095C65.7918 211.038 65.8235 210.993 65.8702 210.96C65.9168 210.923 65.9735 210.905 66.0402 210.905H66.4652C66.5385 210.905 66.5985 210.923 66.6452 210.96C66.6952 210.993 66.7285 211.038 66.7452 211.095L67.7352 214.235C67.7718 214.362 67.8068 214.487 67.8402 214.61C67.8735 214.73 67.9035 214.852 67.9302 214.975C67.9502 214.855 67.9735 214.735 68.0002 214.615C68.0268 214.492 68.0568 214.365 68.0902 214.235L69.0202 211.115C69.0368 211.058 69.0702 211.012 69.1202 210.975C69.1735 210.938 69.2335 210.92 69.3002 210.92H70.0352ZM71.7758 211.625C71.8858 211.508 72.0008 211.402 72.1208 211.305C72.2408 211.208 72.3674 211.127 72.5008 211.06C72.6374 210.99 72.7824 210.937 72.9358 210.9C73.0924 210.86 73.2591 210.84 73.4358 210.84C73.7158 210.84 73.9608 210.887 74.1708 210.98C74.3841 211.073 74.5624 211.205 74.7058 211.375C74.8491 211.542 74.9574 211.743 75.0308 211.98C75.1041 212.217 75.1408 212.478 75.1408 212.765V216H74.1608V212.765C74.1608 212.402 74.0774 212.12 73.9108 211.92C73.7441 211.717 73.4891 211.615 73.1458 211.615C72.8958 211.615 72.6608 211.675 72.4408 211.795C72.2241 211.912 72.0224 212.072 71.8358 212.275V216H70.8608V210.92H71.4458C71.5824 210.92 71.6674 210.985 71.7008 211.115L71.7758 211.625ZM77.4565 208.62V216H76.4765V208.62H77.4565ZM79.8691 210.92V216H78.8941V210.92H79.8691ZM80.0541 209.35C80.0541 209.44 80.0357 209.527 79.9991 209.61C79.9624 209.69 79.9124 209.762 79.8491 209.825C79.7891 209.885 79.7174 209.933 79.6341 209.97C79.5507 210.003 79.4641 210.02 79.3741 210.02C79.2841 210.02 79.1991 210.003 79.1191 209.97C79.0391 209.933 78.9674 209.885 78.9041 209.825C78.8441 209.762 78.7957 209.69 78.7591 209.61C78.7257 209.527 78.7091 209.44 78.7091 209.35C78.7091 209.257 78.7257 209.17 78.7591 209.09C78.7957 209.007 78.8441 208.935 78.9041 208.875C78.9674 208.812 79.0391 208.763 79.1191 208.73C79.1991 208.693 79.2841 208.675 79.3741 208.675C79.4641 208.675 79.5507 208.693 79.6341 208.73C79.7174 208.763 79.7891 208.812 79.8491 208.875C79.9124 208.935 79.9624 209.007 79.9991 209.09C80.0357 209.17 80.0541 209.257 80.0541 209.35ZM82.1957 211.625C82.3057 211.508 82.4207 211.402 82.5407 211.305C82.6607 211.208 82.7874 211.127 82.9207 211.06C83.0574 210.99 83.2024 210.937 83.3557 210.9C83.5124 210.86 83.679 210.84 83.8557 210.84C84.1357 210.84 84.3807 210.887 84.5907 210.98C84.804 211.073 84.9824 211.205 85.1257 211.375C85.269 211.542 85.3774 211.743 85.4507 211.98C85.524 212.217 85.5607 212.478 85.5607 212.765V216H84.5807V212.765C84.5807 212.402 84.4974 212.12 84.3307 211.92C84.164 211.717 83.909 211.615 83.5657 211.615C83.3157 211.615 83.0807 211.675 82.8607 211.795C82.644 211.912 82.4424 212.072 82.2557 212.275V216H81.2807V210.92H81.8657C82.0024 210.92 82.0874 210.985 82.1207 211.115L82.1957 211.625ZM90.2414 212.895C90.2414 212.702 90.2131 212.523 90.1564 212.36C90.1031 212.197 90.0231 212.055 89.9164 211.935C89.8097 211.815 89.6797 211.722 89.5264 211.655C89.3731 211.588 89.1964 211.555 88.9964 211.555C88.5864 211.555 88.2631 211.673 88.0264 211.91C87.7931 212.147 87.6447 212.475 87.5814 212.895H90.2414ZM91.0464 215.275C90.9264 215.415 90.7881 215.537 90.6314 215.64C90.4747 215.74 90.3081 215.822 90.1314 215.885C89.9547 215.948 89.7714 215.995 89.5814 216.025C89.3947 216.055 89.2097 216.07 89.0264 216.07C88.6764 216.07 88.3514 216.012 88.0514 215.895C87.7547 215.775 87.4964 215.602 87.2764 215.375C87.0597 215.145 86.8897 214.862 86.7664 214.525C86.6464 214.185 86.5864 213.795 86.5864 213.355C86.5864 213.002 86.6414 212.673 86.7514 212.37C86.8614 212.063 87.0181 211.797 87.2214 211.57C87.4281 211.343 87.6797 211.165 87.9764 211.035C88.2731 210.905 88.6064 210.84 88.9764 210.84C89.2864 210.84 89.5714 210.892 89.8314 210.995C90.0947 211.095 90.3214 211.242 90.5114 211.435C90.7014 211.628 90.8497 211.867 90.9564 212.15C91.0664 212.433 91.1214 212.757 91.1214 213.12C91.1214 213.27 91.1047 213.372 91.0714 213.425C91.0381 213.475 90.9764 213.5 90.8864 213.5H87.5564C87.5664 213.803 87.6097 214.068 87.6864 214.295C87.7631 214.518 87.8681 214.705 88.0014 214.855C88.1381 215.005 88.2997 215.117 88.4864 215.19C88.6731 215.263 88.8814 215.3 89.1114 215.3C89.3281 215.3 89.5147 215.275 89.6714 215.225C89.8314 215.175 89.9681 215.122 90.0814 215.065C90.1981 215.005 90.2947 214.95 90.3714 214.9C90.4514 214.85 90.5214 214.825 90.5814 214.825C90.6614 214.825 90.7231 214.855 90.7664 214.915L91.0464 215.275ZM95.1644 211.795C95.1377 211.838 95.1094 211.87 95.0794 211.89C95.0494 211.907 95.011 211.915 94.9644 211.915C94.911 211.915 94.851 211.897 94.7844 211.86C94.721 211.823 94.6427 211.783 94.5494 211.74C94.4594 211.697 94.3527 211.657 94.2294 211.62C94.106 211.583 93.9594 211.565 93.7894 211.565C93.6494 211.565 93.521 211.583 93.4044 211.62C93.291 211.653 93.1944 211.702 93.1144 211.765C93.0344 211.825 92.9727 211.898 92.9294 211.985C92.886 212.068 92.8644 212.158 92.8644 212.255C92.8644 212.382 92.901 212.487 92.9744 212.57C93.051 212.653 93.1494 212.725 93.2694 212.785C93.3927 212.845 93.531 212.9 93.6844 212.95C93.841 212.997 93.9994 213.047 94.1594 213.1C94.3227 213.153 94.481 213.215 94.6344 213.285C94.791 213.352 94.9294 213.437 95.0494 213.54C95.1727 213.64 95.271 213.762 95.3444 213.905C95.421 214.048 95.4594 214.223 95.4594 214.43C95.4594 214.667 95.416 214.887 95.3294 215.09C95.246 215.29 95.121 215.463 94.9544 215.61C94.791 215.757 94.5877 215.872 94.3444 215.955C94.101 216.038 93.8227 216.08 93.5094 216.08C93.1594 216.08 92.836 216.022 92.5394 215.905C92.2427 215.788 91.9944 215.64 91.7944 215.46L92.0244 215.085C92.051 215.038 92.0844 215.003 92.1244 214.98C92.1644 214.953 92.2177 214.94 92.2844 214.94C92.3477 214.94 92.4127 214.963 92.4794 215.01C92.546 215.057 92.626 215.108 92.7194 215.165C92.8127 215.218 92.926 215.268 93.0594 215.315C93.1927 215.358 93.3594 215.38 93.5594 215.38C93.726 215.38 93.871 215.36 93.9944 215.32C94.1177 215.277 94.2194 215.22 94.2994 215.15C94.3827 215.077 94.4444 214.993 94.4844 214.9C94.5244 214.807 94.5444 214.708 94.5444 214.605C94.5444 214.472 94.506 214.362 94.4294 214.275C94.356 214.185 94.2577 214.108 94.1344 214.045C94.0144 213.982 93.876 213.927 93.7194 213.88C93.5627 213.833 93.4027 213.783 93.2394 213.73C93.076 213.677 92.916 213.615 92.7594 213.545C92.6027 213.475 92.4627 213.387 92.3394 213.28C92.2194 213.173 92.121 213.043 92.0444 212.89C91.971 212.737 91.9344 212.55 91.9344 212.33C91.9344 212.133 91.9744 211.945 92.0544 211.765C92.1377 211.585 92.256 211.427 92.4094 211.29C92.566 211.153 92.7577 211.045 92.9844 210.965C93.2144 210.882 93.476 210.84 93.7694 210.84C94.106 210.84 94.4094 210.893 94.6794 211C94.9527 211.107 95.186 211.253 95.3794 211.44L95.1644 211.795Z" fill="#0D265E"/>
<g filter="url(#filter1_ddi_2_4181)">
<rect x="38" y="118.533" width="79.95" height="76.01" rx="26.1756" transform="rotate(-45 38 118.533)" fill="url(#paint2_diamond_2_4181)"/>
<rect x="38" y="118.533" width="79.95" height="76.01" rx="26.1756" transform="rotate(-45 38 118.533)" fill="url(#paint3_diamond_2_4181)"/>
<rect x="38" y="118.533" width="79.95" height="76.01" rx="26.1756" transform="rotate(-45 38 118.533)" fill="url(#paint4_linear_2_4181)"/>
</g>
<rect x="51.2532" y="119.946" width="60.313" height="52.7871" rx="17.4504" transform="rotate(-45 51.2532 119.946)" fill="black" fill-opacity="0.2"/>
<g filter="url(#filter2_ddi_2_4181)">
<rect x="65.9564" y="116.564" width="36.6642" height="37.6572" rx="13.0878" transform="rotate(-45 65.9564 116.564)" fill="url(#paint5_diamond_2_4181)"/>
<rect x="65.9564" y="116.564" width="36.6642" height="37.6572" rx="13.0878" transform="rotate(-45 65.9564 116.564)" fill="url(#paint6_diamond_2_4181)"/>
<rect x="65.9564" y="116.564" width="36.6642" height="37.6572" rx="13.0878" transform="rotate(-45 65.9564 116.564)" fill="url(#paint7_linear_2_4181)"/>
</g>
<g filter="url(#filter3_d_2_4181)">
<rect x="195" y="62" width="149" height="168" rx="14" fill="white"/>
</g>
<path d="M210.994 196.926V198H206.062V189.384H207.34V196.926H210.994ZM215.637 194.274C215.637 194.042 215.603 193.828 215.535 193.632C215.471 193.436 215.375 193.266 215.247 193.122C215.119 192.978 214.963 192.866 214.779 192.786C214.595 192.706 214.383 192.666 214.143 192.666C213.651 192.666 213.263 192.808 212.979 193.092C212.699 193.376 212.521 193.77 212.445 194.274H215.637ZM216.603 197.13C216.459 197.298 216.293 197.444 216.105 197.568C215.917 197.688 215.717 197.786 215.505 197.862C215.293 197.938 215.073 197.994 214.845 198.03C214.621 198.066 214.399 198.084 214.179 198.084C213.759 198.084 213.369 198.014 213.009 197.874C212.653 197.73 212.343 197.522 212.079 197.25C211.819 196.974 211.615 196.634 211.467 196.23C211.323 195.822 211.251 195.354 211.251 194.826C211.251 194.402 211.317 194.008 211.449 193.644C211.581 193.276 211.769 192.956 212.013 192.684C212.261 192.412 212.563 192.198 212.919 192.042C213.275 191.886 213.675 191.808 214.119 191.808C214.491 191.808 214.833 191.87 215.145 191.994C215.461 192.114 215.733 192.29 215.961 192.522C216.189 192.754 216.367 193.04 216.495 193.38C216.627 193.72 216.693 194.108 216.693 194.544C216.693 194.724 216.673 194.846 216.633 194.91C216.593 194.97 216.519 195 216.411 195H212.415C212.427 195.364 212.479 195.682 212.571 195.954C212.663 196.222 212.789 196.446 212.949 196.626C213.113 196.806 213.307 196.94 213.531 197.028C213.755 197.116 214.005 197.16 214.281 197.16C214.541 197.16 214.765 197.13 214.953 197.07C215.145 197.01 215.309 196.946 215.445 196.878C215.585 196.806 215.701 196.74 215.793 196.68C215.889 196.62 215.973 196.59 216.045 196.59C216.141 196.59 216.215 196.626 216.267 196.698L216.603 197.13ZM223.102 191.904L220.63 198H219.574L217.102 191.904H218.068C218.16 191.904 218.236 191.926 218.296 191.97C218.356 192.014 218.396 192.07 218.416 192.138L219.874 195.882C219.926 196.038 219.97 196.194 220.006 196.35C220.046 196.502 220.082 196.654 220.114 196.806C220.146 196.654 220.182 196.502 220.222 196.35C220.262 196.198 220.31 196.042 220.366 195.882L221.842 192.138C221.866 192.07 221.908 192.014 221.968 191.97C222.028 191.926 222.1 191.904 222.184 191.904H223.102ZM227.895 194.274C227.895 194.042 227.861 193.828 227.793 193.632C227.729 193.436 227.633 193.266 227.505 193.122C227.377 192.978 227.221 192.866 227.037 192.786C226.853 192.706 226.641 192.666 226.401 192.666C225.909 192.666 225.521 192.808 225.237 193.092C224.957 193.376 224.779 193.77 224.703 194.274H227.895ZM228.861 197.13C228.717 197.298 228.551 197.444 228.363 197.568C228.175 197.688 227.975 197.786 227.763 197.862C227.551 197.938 227.331 197.994 227.103 198.03C226.879 198.066 226.657 198.084 226.437 198.084C226.017 198.084 225.627 198.014 225.267 197.874C224.911 197.73 224.601 197.522 224.337 197.25C224.077 196.974 223.873 196.634 223.725 196.23C223.581 195.822 223.509 195.354 223.509 194.826C223.509 194.402 223.575 194.008 223.707 193.644C223.839 193.276 224.027 192.956 224.271 192.684C224.519 192.412 224.821 192.198 225.177 192.042C225.533 191.886 225.933 191.808 226.377 191.808C226.749 191.808 227.091 191.87 227.403 191.994C227.719 192.114 227.991 192.29 228.219 192.522C228.447 192.754 228.625 193.04 228.753 193.38C228.885 193.72 228.951 194.108 228.951 194.544C228.951 194.724 228.931 194.846 228.891 194.91C228.851 194.97 228.777 195 228.669 195H224.673C224.685 195.364 224.737 195.682 224.829 195.954C224.921 196.222 225.047 196.446 225.207 196.626C225.371 196.806 225.565 196.94 225.789 197.028C226.013 197.116 226.263 197.16 226.539 197.16C226.799 197.16 227.023 197.13 227.211 197.07C227.403 197.01 227.567 196.946 227.703 196.878C227.843 196.806 227.959 196.74 228.051 196.68C228.147 196.62 228.231 196.59 228.303 196.59C228.399 196.59 228.473 196.626 228.525 196.698L228.861 197.13ZM231.409 189.144V198H230.233V189.144H231.409ZM241.209 196.89C241.337 196.89 241.437 196.928 241.509 197.004C241.581 197.076 241.617 197.172 241.617 197.292V198H235.833V197.598C235.833 197.518 235.849 197.434 235.881 197.346C235.913 197.254 235.967 197.172 236.043 197.1L238.767 194.37C238.995 194.142 239.201 193.922 239.385 193.71C239.569 193.498 239.725 193.288 239.853 193.08C239.981 192.868 240.079 192.652 240.147 192.432C240.219 192.212 240.255 191.98 240.255 191.736C240.255 191.496 240.217 191.286 240.141 191.106C240.065 190.922 239.961 190.77 239.829 190.65C239.697 190.53 239.541 190.44 239.361 190.38C239.181 190.32 238.987 190.29 238.779 190.29C238.571 190.29 238.379 190.32 238.203 190.38C238.031 190.44 237.877 190.524 237.741 190.632C237.605 190.74 237.491 190.868 237.399 191.016C237.307 191.164 237.241 191.324 237.201 191.496C237.145 191.648 237.073 191.75 236.985 191.802C236.901 191.854 236.777 191.866 236.613 191.838L236.001 191.73C236.057 191.33 236.167 190.978 236.331 190.674C236.495 190.37 236.701 190.116 236.949 189.912C237.197 189.704 237.481 189.548 237.801 189.444C238.125 189.34 238.473 189.288 238.845 189.288C239.221 189.288 239.567 189.344 239.883 189.456C240.203 189.564 240.479 189.722 240.711 189.93C240.943 190.138 241.125 190.392 241.257 190.692C241.389 190.988 241.455 191.324 241.455 191.7C241.455 192.02 241.407 192.318 241.311 192.594C241.219 192.866 241.091 193.126 240.927 193.374C240.767 193.622 240.579 193.864 240.363 194.1C240.151 194.332 239.925 194.568 239.685 194.808L237.501 197.04C237.669 196.996 237.837 196.96 238.005 196.932C238.177 196.904 238.339 196.89 238.491 196.89H241.209Z" fill="#0D265E"/>
<path d="M310.225 196.89C310.353 196.89 310.453 196.928 310.525 197.004C310.597 197.076 310.633 197.172 310.633 197.292V198H304.849V197.598C304.849 197.518 304.865 197.434 304.897 197.346C304.929 197.254 304.983 197.172 305.059 197.1L307.783 194.37C308.011 194.142 308.217 193.922 308.401 193.71C308.585 193.498 308.741 193.288 308.869 193.08C308.997 192.868 309.095 192.652 309.163 192.432C309.235 192.212 309.271 191.98 309.271 191.736C309.271 191.496 309.233 191.286 309.157 191.106C309.081 190.922 308.977 190.77 308.845 190.65C308.713 190.53 308.557 190.44 308.377 190.38C308.197 190.32 308.003 190.29 307.795 190.29C307.587 190.29 307.395 190.32 307.219 190.38C307.047 190.44 306.893 190.524 306.757 190.632C306.621 190.74 306.507 190.868 306.415 191.016C306.323 191.164 306.257 191.324 306.217 191.496C306.161 191.648 306.089 191.75 306.001 191.802C305.917 191.854 305.793 191.866 305.629 191.838L305.017 191.73C305.073 191.33 305.183 190.978 305.347 190.674C305.511 190.37 305.717 190.116 305.965 189.912C306.213 189.704 306.497 189.548 306.817 189.444C307.141 189.34 307.489 189.288 307.861 189.288C308.237 189.288 308.583 189.344 308.899 189.456C309.219 189.564 309.495 189.722 309.727 189.93C309.959 190.138 310.141 190.392 310.273 190.692C310.405 190.988 310.471 191.324 310.471 191.7C310.471 192.02 310.423 192.318 310.327 192.594C310.235 192.866 310.107 193.126 309.943 193.374C309.783 193.622 309.595 193.864 309.379 194.1C309.167 194.332 308.941 194.568 308.701 194.808L306.517 197.04C306.685 196.996 306.853 196.96 307.021 196.932C307.193 196.904 307.355 196.89 307.507 196.89H310.225ZM317.725 191.808C318.173 191.808 318.577 191.882 318.937 192.03C319.301 192.174 319.609 192.384 319.861 192.66C320.117 192.932 320.313 193.262 320.449 193.65C320.585 194.034 320.653 194.466 320.653 194.946C320.653 195.426 320.585 195.86 320.449 196.248C320.313 196.636 320.117 196.966 319.861 197.238C319.609 197.51 319.301 197.72 318.937 197.868C318.577 198.012 318.173 198.084 317.725 198.084C317.273 198.084 316.865 198.012 316.501 197.868C316.141 197.72 315.833 197.51 315.577 197.238C315.321 196.966 315.123 196.636 314.983 196.248C314.847 195.86 314.779 195.426 314.779 194.946C314.779 194.466 314.847 194.034 314.983 193.65C315.123 193.262 315.321 192.932 315.577 192.66C315.833 192.384 316.141 192.174 316.501 192.03C316.865 191.882 317.273 191.808 317.725 191.808ZM317.725 197.172C318.301 197.172 318.731 196.978 319.015 196.59C319.299 196.202 319.441 195.656 319.441 194.952C319.441 194.248 319.299 193.702 319.015 193.314C318.731 192.922 318.301 192.726 317.725 192.726C317.141 192.726 316.705 192.922 316.417 193.314C316.133 193.702 315.991 194.248 315.991 194.952C315.991 195.656 316.133 196.202 316.417 196.59C316.705 196.978 317.141 197.172 317.725 197.172ZM322.22 198V192.864L321.584 192.786C321.492 192.766 321.416 192.734 321.356 192.69C321.3 192.642 321.272 192.574 321.272 192.486V192H322.22V191.448C322.22 191.1 322.27 190.79 322.37 190.518C322.47 190.246 322.612 190.016 322.796 189.828C322.984 189.636 323.208 189.492 323.468 189.396C323.732 189.296 324.028 189.246 324.356 189.246C324.632 189.246 324.886 189.286 325.118 189.366L325.094 189.954C325.09 190.006 325.074 190.046 325.046 190.074C325.018 190.098 324.98 190.116 324.932 190.128C324.888 190.14 324.832 190.148 324.764 190.152C324.7 190.152 324.63 190.152 324.554 190.152C324.374 190.152 324.21 190.174 324.062 190.218C323.914 190.262 323.788 190.336 323.684 190.44C323.58 190.544 323.5 190.682 323.444 190.854C323.388 191.022 323.36 191.232 323.36 191.484V192H325.07V192.852H323.396V198H322.22ZM330.277 192.6C330.717 192.508 331.115 192.462 331.471 192.462C331.919 192.462 332.315 192.53 332.659 192.666C333.003 192.798 333.291 192.982 333.523 193.218C333.759 193.45 333.935 193.726 334.051 194.046C334.171 194.362 334.231 194.706 334.231 195.078C334.231 195.534 334.151 195.948 333.991 196.32C333.831 196.692 333.611 197.01 333.331 197.274C333.051 197.538 332.719 197.742 332.335 197.886C331.955 198.026 331.545 198.096 331.105 198.096C330.845 198.096 330.597 198.07 330.361 198.018C330.129 197.966 329.911 197.898 329.707 197.814C329.503 197.726 329.313 197.626 329.137 197.514C328.965 197.402 328.811 197.284 328.675 197.16L329.035 196.656C329.111 196.544 329.213 196.488 329.341 196.488C329.425 196.488 329.517 196.52 329.617 196.584C329.721 196.644 329.843 196.712 329.983 196.788C330.123 196.864 330.289 196.934 330.481 196.998C330.673 197.058 330.901 197.088 331.165 197.088C331.457 197.088 331.719 197.042 331.951 196.95C332.187 196.854 332.385 196.72 332.545 196.548C332.709 196.376 332.833 196.17 332.917 195.93C333.005 195.69 333.049 195.424 333.049 195.132C333.049 194.872 333.011 194.638 332.935 194.43C332.859 194.222 332.745 194.044 332.593 193.896C332.441 193.748 332.251 193.636 332.023 193.56C331.795 193.48 331.529 193.44 331.225 193.44C330.801 193.44 330.349 193.516 329.869 193.668L329.131 193.452L329.833 189.384H333.961V189.894C333.961 190.062 333.907 190.2 333.799 190.308C333.695 190.412 333.519 190.464 333.271 190.464H330.649L330.277 192.6Z" fill="#C1CDE1"/>
<rect x="205" y="172" width="115" height="8" rx="4" fill="#E3EBF8"/>
<rect x="205" y="172" width="40" height="8" rx="4" fill="#35D487"/>
<rect x="199" y="109.359" width="88.1891" height="97.6847" rx="44.0946" transform="rotate(-45 199 109.359)" fill="url(#paint8_linear_2_4181)" fill-opacity="0.15"/>
<rect x="202.085" y="109.359" width="83.8265" height="93.3221" rx="41.9133" transform="rotate(-45 202.085 109.359)" stroke="url(#paint9_linear_2_4181)" stroke-opacity="0.28" stroke-width="4.3626"/>
<path d="M287.464 215.255V216H283.584V215.255H285.104V210.55C285.104 210.4 285.109 210.245 285.119 210.085L283.899 211.12C283.852 211.157 283.805 211.18 283.759 211.19C283.712 211.2 283.667 211.202 283.624 211.195C283.584 211.188 283.547 211.175 283.514 211.155C283.484 211.132 283.459 211.108 283.439 211.085L283.134 210.66L285.284 208.805H286.079V215.255H287.464ZM289.279 216C289.189 216 289.106 215.983 289.029 215.95C288.956 215.917 288.891 215.872 288.834 215.815C288.781 215.755 288.739 215.685 288.709 215.605C288.679 215.525 288.664 215.438 288.664 215.345C288.664 215.265 288.679 215.19 288.709 215.12C288.739 215.047 288.781 214.983 288.834 214.93C288.891 214.877 288.958 214.835 289.034 214.805C289.111 214.772 289.196 214.755 289.289 214.755C289.396 214.755 289.489 214.775 289.569 214.815C289.653 214.852 289.721 214.905 289.774 214.975C289.831 215.042 289.873 215.12 289.899 215.21C289.926 215.3 289.939 215.397 289.939 215.5C289.939 215.65 289.918 215.808 289.874 215.975C289.831 216.142 289.768 216.307 289.684 216.47C289.601 216.633 289.498 216.792 289.374 216.945C289.251 217.098 289.111 217.24 288.954 217.37L288.789 217.215C288.739 217.168 288.714 217.117 288.714 217.06C288.714 217.037 288.721 217.012 288.734 216.985C288.751 216.962 288.771 216.938 288.794 216.915C288.828 216.878 288.871 216.83 288.924 216.77C288.978 216.71 289.029 216.64 289.079 216.56C289.133 216.483 289.181 216.397 289.224 216.3C289.271 216.207 289.304 216.107 289.324 216H289.279ZM295.949 212.41C295.949 213.037 295.881 213.58 295.744 214.04C295.611 214.5 295.426 214.882 295.189 215.185C294.956 215.485 294.679 215.708 294.359 215.855C294.043 216.002 293.701 216.075 293.334 216.075C292.968 216.075 292.624 216.002 292.304 215.855C291.988 215.708 291.713 215.485 291.479 215.185C291.246 214.882 291.063 214.5 290.929 214.04C290.796 213.58 290.729 213.037 290.729 212.41C290.729 211.783 290.796 211.24 290.929 210.78C291.063 210.317 291.246 209.935 291.479 209.635C291.713 209.332 291.988 209.107 292.304 208.96C292.624 208.813 292.968 208.74 293.334 208.74C293.701 208.74 294.043 208.813 294.359 208.96C294.679 209.107 294.956 209.332 295.189 209.635C295.426 209.935 295.611 210.317 295.744 210.78C295.881 211.24 295.949 211.783 295.949 212.41ZM294.939 212.41C294.939 211.87 294.894 211.418 294.804 211.055C294.718 210.692 294.599 210.4 294.449 210.18C294.303 209.957 294.133 209.798 293.939 209.705C293.746 209.612 293.544 209.565 293.334 209.565C293.124 209.565 292.923 209.612 292.729 209.705C292.536 209.798 292.364 209.957 292.214 210.18C292.068 210.4 291.951 210.692 291.864 211.055C291.778 211.418 291.734 211.87 291.734 212.41C291.734 212.95 291.778 213.402 291.864 213.765C291.951 214.128 292.068 214.42 292.214 214.64C292.364 214.86 292.536 215.017 292.729 215.11C292.923 215.203 293.124 215.25 293.334 215.25C293.544 215.25 293.746 215.203 293.939 215.11C294.133 215.017 294.303 214.86 294.449 214.64C294.599 214.42 294.718 214.128 294.804 213.765C294.894 213.402 294.939 212.95 294.939 212.41ZM301.75 212.41C301.75 213.037 301.682 213.58 301.545 214.04C301.412 214.5 301.227 214.882 300.99 215.185C300.757 215.485 300.48 215.708 300.16 215.855C299.844 216.002 299.502 216.075 299.135 216.075C298.769 216.075 298.425 216.002 298.105 215.855C297.789 215.708 297.514 215.485 297.28 215.185C297.047 214.882 296.864 214.5 296.73 214.04C296.597 213.58 296.53 213.037 296.53 212.41C296.53 211.783 296.597 211.24 296.73 210.78C296.864 210.317 297.047 209.935 297.28 209.635C297.514 209.332 297.789 209.107 298.105 208.96C298.425 208.813 298.769 208.74 299.135 208.74C299.502 208.74 299.844 208.813 300.16 208.96C300.48 209.107 300.757 209.332 300.99 209.635C301.227 209.935 301.412 210.317 301.545 210.78C301.682 211.24 301.75 211.783 301.75 212.41ZM300.74 212.41C300.74 211.87 300.695 211.418 300.605 211.055C300.519 210.692 300.4 210.4 300.25 210.18C300.104 209.957 299.934 209.798 299.74 209.705C299.547 209.612 299.345 209.565 299.135 209.565C298.925 209.565 298.724 209.612 298.53 209.705C298.337 209.798 298.165 209.957 298.015 210.18C297.869 210.4 297.752 210.692 297.665 211.055C297.579 211.418 297.535 211.87 297.535 212.41C297.535 212.95 297.579 213.402 297.665 213.765C297.752 214.128 297.869 214.42 298.015 214.64C298.165 214.86 298.337 215.017 298.53 215.11C298.724 215.203 298.925 215.25 299.135 215.25C299.345 215.25 299.547 215.203 299.74 215.11C299.934 215.017 300.104 214.86 300.25 214.64C300.4 214.42 300.519 214.128 300.605 213.765C300.695 213.402 300.74 212.95 300.74 212.41ZM307.551 212.41C307.551 213.037 307.483 213.58 307.346 214.04C307.213 214.5 307.028 214.882 306.791 215.185C306.558 215.485 306.281 215.708 305.961 215.855C305.644 216.002 305.303 216.075 304.936 216.075C304.569 216.075 304.226 216.002 303.906 215.855C303.589 215.708 303.314 215.485 303.081 215.185C302.848 214.882 302.664 214.5 302.531 214.04C302.398 213.58 302.331 213.037 302.331 212.41C302.331 211.783 302.398 211.24 302.531 210.78C302.664 210.317 302.848 209.935 303.081 209.635C303.314 209.332 303.589 209.107 303.906 208.96C304.226 208.813 304.569 208.74 304.936 208.74C305.303 208.74 305.644 208.813 305.961 208.96C306.281 209.107 306.558 209.332 306.791 209.635C307.028 209.935 307.213 210.317 307.346 210.78C307.483 211.24 307.551 211.783 307.551 212.41ZM306.541 212.41C306.541 211.87 306.496 211.418 306.406 211.055C306.319 210.692 306.201 210.4 306.051 210.18C305.904 209.957 305.734 209.798 305.541 209.705C305.348 209.612 305.146 209.565 304.936 209.565C304.726 209.565 304.524 209.612 304.331 209.705C304.138 209.798 303.966 209.957 303.816 210.18C303.669 210.4 303.553 210.692 303.466 211.055C303.379 211.418 303.336 211.87 303.336 212.41C303.336 212.95 303.379 213.402 303.466 213.765C303.553 214.128 303.669 214.42 303.816 214.64C303.966 214.86 304.138 215.017 304.331 215.11C304.524 215.203 304.726 215.25 304.936 215.25C305.146 215.25 305.348 215.203 305.541 215.11C305.734 215.017 305.904 214.86 306.051 214.64C306.201 214.42 306.319 214.128 306.406 213.765C306.496 213.402 306.541 212.95 306.541 212.41ZM316.271 214.46C316.331 214.46 316.383 214.483 316.426 214.53L316.846 214.99C316.553 215.337 316.194 215.605 315.771 215.795C315.351 215.985 314.844 216.08 314.251 216.08C313.731 216.08 313.259 215.99 312.836 215.81C312.416 215.63 312.056 215.378 311.756 215.055C311.459 214.732 311.229 214.345 311.066 213.895C310.903 213.445 310.821 212.95 310.821 212.41C310.821 211.87 310.906 211.375 311.076 210.925C311.249 210.475 311.491 210.088 311.801 209.765C312.111 209.442 312.481 209.19 312.911 209.01C313.344 208.83 313.823 208.74 314.346 208.74C314.856 208.74 315.309 208.823 315.706 208.99C316.103 209.157 316.448 209.378 316.741 209.655L316.391 210.15C316.368 210.187 316.338 210.217 316.301 210.24C316.268 210.263 316.223 210.275 316.166 210.275C316.103 210.275 316.028 210.243 315.941 210.18C315.858 210.117 315.746 210.047 315.606 209.97C315.469 209.89 315.299 209.818 315.096 209.755C314.893 209.692 314.639 209.66 314.336 209.66C313.979 209.66 313.653 209.723 313.356 209.85C313.059 209.973 312.803 210.153 312.586 210.39C312.373 210.623 312.206 210.912 312.086 211.255C311.969 211.595 311.911 211.98 311.911 212.41C311.911 212.847 311.973 213.235 312.096 213.575C312.219 213.915 312.389 214.203 312.606 214.44C312.823 214.677 313.078 214.857 313.371 214.98C313.664 215.103 313.981 215.165 314.321 215.165C314.528 215.165 314.713 215.153 314.876 215.13C315.043 215.103 315.194 215.065 315.331 215.015C315.471 214.965 315.603 214.902 315.726 214.825C315.849 214.745 315.971 214.65 316.091 214.54C316.118 214.517 316.146 214.498 316.176 214.485C316.206 214.468 316.238 214.46 316.271 214.46ZM319.784 210.84C320.157 210.84 320.494 210.902 320.794 211.025C321.097 211.145 321.354 211.32 321.564 211.55C321.777 211.777 321.94 212.052 322.054 212.375C322.167 212.695 322.224 213.055 322.224 213.455C322.224 213.855 322.167 214.217 322.054 214.54C321.94 214.863 321.777 215.138 321.564 215.365C321.354 215.592 321.097 215.767 320.794 215.89C320.494 216.01 320.157 216.07 319.784 216.07C319.407 216.07 319.067 216.01 318.764 215.89C318.464 215.767 318.207 215.592 317.994 215.365C317.78 215.138 317.615 214.863 317.499 214.54C317.385 214.217 317.329 213.855 317.329 213.455C317.329 213.055 317.385 212.695 317.499 212.375C317.615 212.052 317.78 211.777 317.994 211.55C318.207 211.32 318.464 211.145 318.764 211.025C319.067 210.902 319.407 210.84 319.784 210.84ZM319.784 215.31C320.264 215.31 320.622 215.148 320.859 214.825C321.095 214.502 321.214 214.047 321.214 213.46C321.214 212.873 321.095 212.418 320.859 212.095C320.622 211.768 320.264 211.605 319.784 211.605C319.297 211.605 318.934 211.768 318.694 212.095C318.457 212.418 318.339 212.873 318.339 213.46C318.339 214.047 318.457 214.502 318.694 214.825C318.934 215.148 319.297 215.31 319.784 215.31ZM324.332 210.92V216H323.357V210.92H324.332ZM324.517 209.35C324.517 209.44 324.499 209.527 324.462 209.61C324.425 209.69 324.375 209.762 324.312 209.825C324.252 209.885 324.18 209.933 324.097 209.97C324.014 210.003 323.927 210.02 323.837 210.02C323.747 210.02 323.662 210.003 323.582 209.97C323.502 209.933 323.43 209.885 323.367 209.825C323.307 209.762 323.259 209.69 323.222 209.61C323.189 209.527 323.172 209.44 323.172 209.35C323.172 209.257 323.189 209.17 323.222 209.09C323.259 209.007 323.307 208.935 323.367 208.875C323.43 208.812 323.502 208.763 323.582 208.73C323.662 208.693 323.747 208.675 323.837 208.675C323.927 208.675 324.014 208.693 324.097 208.73C324.18 208.763 324.252 208.812 324.312 208.875C324.375 208.935 324.425 209.007 324.462 209.09C324.499 209.17 324.517 209.257 324.517 209.35ZM326.659 211.625C326.769 211.508 326.884 211.402 327.004 211.305C327.124 211.208 327.25 211.127 327.384 211.06C327.52 210.99 327.665 210.937 327.819 210.9C327.975 210.86 328.142 210.84 328.319 210.84C328.599 210.84 328.844 210.887 329.054 210.98C329.267 211.073 329.445 211.205 329.589 211.375C329.732 211.542 329.84 211.743 329.914 211.98C329.987 212.217 330.024 212.478 330.024 212.765V216H329.044V212.765C329.044 212.402 328.96 212.12 328.794 211.92C328.627 211.717 328.372 211.615 328.029 211.615C327.779 211.615 327.544 211.675 327.324 211.795C327.107 211.912 326.905 212.072 326.719 212.275V216H325.744V210.92H326.329C326.465 210.92 326.55 210.985 326.584 211.115L326.659 211.625ZM334.334 211.795C334.308 211.838 334.279 211.87 334.249 211.89C334.219 211.907 334.181 211.915 334.134 211.915C334.081 211.915 334.021 211.897 333.954 211.86C333.891 211.823 333.813 211.783 333.719 211.74C333.629 211.697 333.523 211.657 333.399 211.62C333.276 211.583 333.129 211.565 332.959 211.565C332.819 211.565 332.691 211.583 332.574 211.62C332.461 211.653 332.364 211.702 332.284 211.765C332.204 211.825 332.143 211.898 332.099 211.985C332.056 212.068 332.034 212.158 332.034 212.255C332.034 212.382 332.071 212.487 332.144 212.57C332.221 212.653 332.319 212.725 332.439 212.785C332.563 212.845 332.701 212.9 332.854 212.95C333.011 212.997 333.169 213.047 333.329 213.1C333.493 213.153 333.651 213.215 333.804 213.285C333.961 213.352 334.099 213.437 334.219 213.54C334.343 213.64 334.441 213.762 334.514 213.905C334.591 214.048 334.629 214.223 334.629 214.43C334.629 214.667 334.586 214.887 334.499 215.09C334.416 215.29 334.291 215.463 334.124 215.61C333.961 215.757 333.758 215.872 333.514 215.955C333.271 216.038 332.993 216.08 332.679 216.08C332.329 216.08 332.006 216.022 331.709 215.905C331.413 215.788 331.164 215.64 330.964 215.46L331.194 215.085C331.221 215.038 331.254 215.003 331.294 214.98C331.334 214.953 331.388 214.94 331.454 214.94C331.518 214.94 331.583 214.963 331.649 215.01C331.716 215.057 331.796 215.108 331.889 215.165C331.983 215.218 332.096 215.268 332.229 215.315C332.363 215.358 332.529 215.38 332.729 215.38C332.896 215.38 333.041 215.36 333.164 215.32C333.288 215.277 333.389 215.22 333.469 215.15C333.553 215.077 333.614 214.993 333.654 214.9C333.694 214.807 333.714 214.708 333.714 214.605C333.714 214.472 333.676 214.362 333.599 214.275C333.526 214.185 333.428 214.108 333.304 214.045C333.184 213.982 333.046 213.927 332.889 213.88C332.733 213.833 332.573 213.783 332.409 213.73C332.246 213.677 332.086 213.615 331.929 213.545C331.773 213.475 331.633 213.387 331.509 213.28C331.389 213.173 331.291 213.043 331.214 212.89C331.141 212.737 331.104 212.55 331.104 212.33C331.104 212.133 331.144 211.945 331.224 211.765C331.308 211.585 331.426 211.427 331.579 211.29C331.736 211.153 331.928 211.045 332.154 210.965C332.384 210.882 332.646 210.84 332.939 210.84C333.276 210.84 333.579 210.893 333.849 211C334.123 211.107 334.356 211.253 334.549 211.44L334.334 211.795Z" fill="#35D487"/>
<path d="M205.62 210.775C205.67 210.442 205.763 210.148 205.9 209.895C206.037 209.642 206.208 209.43 206.415 209.26C206.622 209.087 206.858 208.957 207.125 208.87C207.395 208.783 207.685 208.74 207.995 208.74C208.305 208.74 208.59 208.785 208.85 208.875C209.11 208.962 209.332 209.087 209.515 209.25C209.702 209.41 209.847 209.603 209.95 209.83C210.053 210.057 210.105 210.307 210.105 210.58C210.105 210.81 210.077 211.013 210.02 211.19C209.963 211.367 209.882 211.522 209.775 211.655C209.672 211.788 209.545 211.902 209.395 211.995C209.245 212.085 209.077 212.16 208.89 212.22C209.347 212.347 209.69 212.553 209.92 212.84C210.15 213.123 210.265 213.483 210.265 213.92C210.265 214.257 210.202 214.56 210.075 214.83C209.948 215.097 209.775 215.323 209.555 215.51C209.335 215.693 209.078 215.835 208.785 215.935C208.495 216.032 208.185 216.08 207.855 216.08C207.478 216.08 207.155 216.035 206.885 215.945C206.615 215.852 206.385 215.723 206.195 215.56C206.005 215.393 205.847 215.195 205.72 214.965C205.597 214.732 205.492 214.477 205.405 214.2L205.83 214.02C205.94 213.973 206.047 213.96 206.15 213.98C206.253 214 206.328 214.058 206.375 214.155C206.425 214.255 206.482 214.368 206.545 214.495C206.612 214.618 206.7 214.737 206.81 214.85C206.92 214.96 207.057 215.053 207.22 215.13C207.387 215.207 207.595 215.245 207.845 215.245C208.085 215.245 208.295 215.207 208.475 215.13C208.655 215.05 208.805 214.948 208.925 214.825C209.045 214.698 209.135 214.558 209.195 214.405C209.255 214.252 209.285 214.1 209.285 213.95C209.285 213.763 209.262 213.592 209.215 213.435C209.168 213.278 209.078 213.145 208.945 213.035C208.815 212.922 208.633 212.833 208.4 212.77C208.167 212.707 207.863 212.675 207.49 212.675V211.965C207.797 211.962 208.055 211.93 208.265 211.87C208.478 211.81 208.65 211.727 208.78 211.62C208.91 211.513 209.003 211.387 209.06 211.24C209.12 211.093 209.15 210.93 209.15 210.75C209.15 210.553 209.12 210.382 209.06 210.235C209 210.088 208.915 209.967 208.805 209.87C208.698 209.77 208.57 209.697 208.42 209.65C208.273 209.6 208.113 209.575 207.94 209.575C207.767 209.575 207.607 209.6 207.46 209.65C207.313 209.7 207.183 209.77 207.07 209.86C206.957 209.95 206.862 210.057 206.785 210.18C206.708 210.303 206.653 210.437 206.62 210.58C206.573 210.707 206.513 210.792 206.44 210.835C206.37 210.878 206.268 210.888 206.135 210.865L205.62 210.775ZM212.666 211.5C213.032 211.423 213.364 211.385 213.661 211.385C214.034 211.385 214.364 211.442 214.651 211.555C214.937 211.665 215.177 211.818 215.371 212.015C215.567 212.208 215.714 212.438 215.811 212.705C215.911 212.968 215.961 213.255 215.961 213.565C215.961 213.945 215.894 214.29 215.761 214.6C215.627 214.91 215.444 215.175 215.211 215.395C214.977 215.615 214.701 215.785 214.381 215.905C214.064 216.022 213.722 216.08 213.356 216.08C213.139 216.08 212.932 216.058 212.736 216.015C212.542 215.972 212.361 215.915 212.191 215.845C212.021 215.772 211.862 215.688 211.716 215.595C211.572 215.502 211.444 215.403 211.331 215.3L211.631 214.88C211.694 214.787 211.779 214.74 211.886 214.74C211.956 214.74 212.032 214.767 212.116 214.82C212.202 214.87 212.304 214.927 212.421 214.99C212.537 215.053 212.676 215.112 212.836 215.165C212.996 215.215 213.186 215.24 213.406 215.24C213.649 215.24 213.867 215.202 214.061 215.125C214.257 215.045 214.422 214.933 214.556 214.79C214.692 214.647 214.796 214.475 214.866 214.275C214.939 214.075 214.976 213.853 214.976 213.61C214.976 213.393 214.944 213.198 214.881 213.025C214.817 212.852 214.722 212.703 214.596 212.58C214.469 212.457 214.311 212.363 214.121 212.3C213.931 212.233 213.709 212.2 213.456 212.2C213.102 212.2 212.726 212.263 212.326 212.39L211.711 212.21L212.296 208.82H215.736V209.245C215.736 209.385 215.691 209.5 215.601 209.59C215.514 209.677 215.367 209.72 215.161 209.72H212.976L212.666 211.5ZM226.281 212.41C226.281 212.947 226.194 213.435 226.021 213.875C225.851 214.315 225.609 214.693 225.296 215.01C224.983 215.323 224.608 215.567 224.171 215.74C223.734 215.913 223.249 216 222.716 216H220.016V208.82H222.716C223.249 208.82 223.734 208.907 224.171 209.08C224.608 209.253 224.983 209.498 225.296 209.815C225.609 210.128 225.851 210.507 226.021 210.95C226.194 211.39 226.281 211.877 226.281 212.41ZM225.191 212.41C225.191 211.983 225.133 211.602 225.016 211.265C224.899 210.925 224.733 210.638 224.516 210.405C224.303 210.168 224.043 209.988 223.736 209.865C223.433 209.742 223.093 209.68 222.716 209.68H221.086V215.14H222.716C223.093 215.14 223.433 215.078 223.736 214.955C224.043 214.832 224.303 214.653 224.516 214.42C224.733 214.183 224.899 213.897 225.016 213.56C225.133 213.223 225.191 212.84 225.191 212.41ZM229.52 210.84C229.893 210.84 230.23 210.902 230.53 211.025C230.833 211.145 231.09 211.32 231.3 211.55C231.513 211.777 231.677 212.052 231.79 212.375C231.903 212.695 231.96 213.055 231.96 213.455C231.96 213.855 231.903 214.217 231.79 214.54C231.677 214.863 231.513 215.138 231.3 215.365C231.09 215.592 230.833 215.767 230.53 215.89C230.23 216.01 229.893 216.07 229.52 216.07C229.143 216.07 228.803 216.01 228.5 215.89C228.2 215.767 227.943 215.592 227.73 215.365C227.517 215.138 227.352 214.863 227.235 214.54C227.122 214.217 227.065 213.855 227.065 213.455C227.065 213.055 227.122 212.695 227.235 212.375C227.352 212.052 227.517 211.777 227.73 211.55C227.943 211.32 228.2 211.145 228.5 211.025C228.803 210.902 229.143 210.84 229.52 210.84ZM229.52 215.31C230 215.31 230.358 215.148 230.595 214.825C230.832 214.502 230.95 214.047 230.95 213.46C230.95 212.873 230.832 212.418 230.595 212.095C230.358 211.768 230 211.605 229.52 211.605C229.033 211.605 228.67 211.768 228.43 212.095C228.193 212.418 228.075 212.873 228.075 213.46C228.075 214.047 228.193 214.502 228.43 214.825C228.67 215.148 229.033 215.31 229.52 215.31ZM240.035 210.92L238.4 216H237.62C237.527 216 237.463 215.938 237.43 215.815L236.36 212.505C236.333 212.422 236.31 212.34 236.29 212.26C236.27 212.177 236.252 212.093 236.235 212.01C236.205 212.183 236.163 212.352 236.11 212.515L235.025 215.815C234.992 215.938 234.92 216 234.81 216H234.07L232.43 210.92H233.2C233.277 210.92 233.34 210.938 233.39 210.975C233.443 211.012 233.478 211.058 233.495 211.115L234.41 214.235C234.44 214.362 234.467 214.485 234.49 214.605C234.513 214.725 234.535 214.845 234.555 214.965C234.585 214.845 234.617 214.725 234.65 214.605C234.687 214.485 234.723 214.362 234.76 214.235L235.775 211.095C235.792 211.038 235.823 210.993 235.87 210.96C235.917 210.923 235.973 210.905 236.04 210.905H236.465C236.538 210.905 236.598 210.923 236.645 210.96C236.695 210.993 236.728 211.038 236.745 211.095L237.735 214.235C237.772 214.362 237.807 214.487 237.84 214.61C237.873 214.73 237.903 214.852 237.93 214.975C237.95 214.855 237.973 214.735 238 214.615C238.027 214.492 238.057 214.365 238.09 214.235L239.02 211.115C239.037 211.058 239.07 211.012 239.12 210.975C239.173 210.938 239.233 210.92 239.3 210.92H240.035ZM241.776 211.625C241.886 211.508 242.001 211.402 242.121 211.305C242.241 211.208 242.367 211.127 242.501 211.06C242.637 210.99 242.782 210.937 242.936 210.9C243.092 210.86 243.259 210.84 243.436 210.84C243.716 210.84 243.961 210.887 244.171 210.98C244.384 211.073 244.562 211.205 244.706 211.375C244.849 211.542 244.957 211.743 245.031 211.98C245.104 212.217 245.141 212.478 245.141 212.765V216H244.161V212.765C244.161 212.402 244.077 212.12 243.911 211.92C243.744 211.717 243.489 211.615 243.146 211.615C242.896 211.615 242.661 211.675 242.441 211.795C242.224 211.912 242.022 212.072 241.836 212.275V216H240.861V210.92H241.446C241.582 210.92 241.667 210.985 241.701 211.115L241.776 211.625ZM247.456 208.62V216H246.476V208.62H247.456ZM249.869 210.92V216H248.894V210.92H249.869ZM250.054 209.35C250.054 209.44 250.036 209.527 249.999 209.61C249.962 209.69 249.912 209.762 249.849 209.825C249.789 209.885 249.717 209.933 249.634 209.97C249.551 210.003 249.464 210.02 249.374 210.02C249.284 210.02 249.199 210.003 249.119 209.97C249.039 209.933 248.967 209.885 248.904 209.825C248.844 209.762 248.796 209.69 248.759 209.61C248.726 209.527 248.709 209.44 248.709 209.35C248.709 209.257 248.726 209.17 248.759 209.09C248.796 209.007 248.844 208.935 248.904 208.875C248.967 208.812 249.039 208.763 249.119 208.73C249.199 208.693 249.284 208.675 249.374 208.675C249.464 208.675 249.551 208.693 249.634 208.73C249.717 208.763 249.789 208.812 249.849 208.875C249.912 208.935 249.962 209.007 249.999 209.09C250.036 209.17 250.054 209.257 250.054 209.35ZM252.196 211.625C252.306 211.508 252.421 211.402 252.541 211.305C252.661 211.208 252.787 211.127 252.921 211.06C253.057 210.99 253.202 210.937 253.356 210.9C253.512 210.86 253.679 210.84 253.856 210.84C254.136 210.84 254.381 210.887 254.591 210.98C254.804 211.073 254.982 211.205 255.126 211.375C255.269 211.542 255.377 211.743 255.451 211.98C255.524 212.217 255.561 212.478 255.561 212.765V216H254.581V212.765C254.581 212.402 254.497 212.12 254.331 211.92C254.164 211.717 253.909 211.615 253.566 211.615C253.316 211.615 253.081 211.675 252.861 211.795C252.644 211.912 252.442 212.072 252.256 212.275V216H251.281V210.92H251.866C252.002 210.92 252.087 210.985 252.121 211.115L252.196 211.625ZM260.241 212.895C260.241 212.702 260.213 212.523 260.156 212.36C260.103 212.197 260.023 212.055 259.916 211.935C259.81 211.815 259.68 211.722 259.526 211.655C259.373 211.588 259.196 211.555 258.996 211.555C258.586 211.555 258.263 211.673 258.026 211.91C257.793 212.147 257.645 212.475 257.581 212.895H260.241ZM261.046 215.275C260.926 215.415 260.788 215.537 260.631 215.64C260.475 215.74 260.308 215.822 260.131 215.885C259.955 215.948 259.771 215.995 259.581 216.025C259.395 216.055 259.21 216.07 259.026 216.07C258.676 216.07 258.351 216.012 258.051 215.895C257.755 215.775 257.496 215.602 257.276 215.375C257.06 215.145 256.89 214.862 256.766 214.525C256.646 214.185 256.586 213.795 256.586 213.355C256.586 213.002 256.641 212.673 256.751 212.37C256.861 212.063 257.018 211.797 257.221 211.57C257.428 211.343 257.68 211.165 257.976 211.035C258.273 210.905 258.606 210.84 258.976 210.84C259.286 210.84 259.571 210.892 259.831 210.995C260.095 211.095 260.321 211.242 260.511 211.435C260.701 211.628 260.85 211.867 260.956 212.15C261.066 212.433 261.121 212.757 261.121 213.12C261.121 213.27 261.105 213.372 261.071 213.425C261.038 213.475 260.976 213.5 260.886 213.5H257.556C257.566 213.803 257.61 214.068 257.686 214.295C257.763 214.518 257.868 214.705 258.001 214.855C258.138 215.005 258.3 215.117 258.486 215.19C258.673 215.263 258.881 215.3 259.111 215.3C259.328 215.3 259.515 215.275 259.671 215.225C259.831 215.175 259.968 215.122 260.081 215.065C260.198 215.005 260.295 214.95 260.371 214.9C260.451 214.85 260.521 214.825 260.581 214.825C260.661 214.825 260.723 214.855 260.766 214.915L261.046 215.275ZM265.164 211.795C265.138 211.838 265.109 211.87 265.079 211.89C265.049 211.907 265.011 211.915 264.964 211.915C264.911 211.915 264.851 211.897 264.784 211.86C264.721 211.823 264.643 211.783 264.549 211.74C264.459 211.697 264.353 211.657 264.229 211.62C264.106 211.583 263.959 211.565 263.789 211.565C263.649 211.565 263.521 211.583 263.404 211.62C263.291 211.653 263.194 211.702 263.114 211.765C263.034 211.825 262.973 211.898 262.929 211.985C262.886 212.068 262.864 212.158 262.864 212.255C262.864 212.382 262.901 212.487 262.974 212.57C263.051 212.653 263.149 212.725 263.269 212.785C263.393 212.845 263.531 212.9 263.684 212.95C263.841 212.997 263.999 213.047 264.159 213.1C264.323 213.153 264.481 213.215 264.634 213.285C264.791 213.352 264.929 213.437 265.049 213.54C265.173 213.64 265.271 213.762 265.344 213.905C265.421 214.048 265.459 214.223 265.459 214.43C265.459 214.667 265.416 214.887 265.329 215.09C265.246 215.29 265.121 215.463 264.954 215.61C264.791 215.757 264.588 215.872 264.344 215.955C264.101 216.038 263.823 216.08 263.509 216.08C263.159 216.08 262.836 216.022 262.539 215.905C262.243 215.788 261.994 215.64 261.794 215.46L262.024 215.085C262.051 215.038 262.084 215.003 262.124 214.98C262.164 214.953 262.218 214.94 262.284 214.94C262.348 214.94 262.413 214.963 262.479 215.01C262.546 215.057 262.626 215.108 262.719 215.165C262.813 215.218 262.926 215.268 263.059 215.315C263.193 215.358 263.359 215.38 263.559 215.38C263.726 215.38 263.871 215.36 263.994 215.32C264.118 215.277 264.219 215.22 264.299 215.15C264.383 215.077 264.444 214.993 264.484 214.9C264.524 214.807 264.544 214.708 264.544 214.605C264.544 214.472 264.506 214.362 264.429 214.275C264.356 214.185 264.258 214.108 264.134 214.045C264.014 213.982 263.876 213.927 263.719 213.88C263.563 213.833 263.403 213.783 263.239 213.73C263.076 213.677 262.916 213.615 262.759 213.545C262.603 213.475 262.463 213.387 262.339 213.28C262.219 213.173 262.121 213.043 262.044 212.89C261.971 212.737 261.934 212.55 261.934 212.33C261.934 212.133 261.974 211.945 262.054 211.765C262.138 211.585 262.256 211.427 262.409 211.29C262.566 211.153 262.758 211.045 262.984 210.965C263.214 210.882 263.476 210.84 263.769 210.84C264.106 210.84 264.409 210.893 264.679 211C264.953 211.107 265.186 211.253 265.379 211.44L265.164 211.795Z" fill="#0D265E"/>
<g filter="url(#filter4_ddi_2_4181)">
<rect x="208" y="115.533" width="79.95" height="76.01" rx="26.1756" transform="rotate(-45 208 115.533)" fill="url(#paint10_diamond_2_4181)"/>
<rect x="208" y="115.533" width="79.95" height="76.01" rx="26.1756" transform="rotate(-45 208 115.533)" fill="url(#paint11_diamond_2_4181)"/>
<rect x="208" y="115.533" width="79.95" height="76.01" rx="26.1756" transform="rotate(-45 208 115.533)" fill="url(#paint12_linear_2_4181)"/>
<rect x="208" y="115.533" width="79.95" height="76.01" rx="26.1756" transform="rotate(-45 208 115.533)" fill="url(#paint13_linear_2_4181)"/>
<rect x="208" y="115.533" width="79.95" height="76.01" rx="26.1756" transform="rotate(-45 208 115.533)" fill="url(#paint14_linear_2_4181)"/>
</g>
<rect x="216.351" y="115.322" width="67.8398" height="64.4966" rx="17.4504" transform="rotate(-45 216.351 115.322)" fill="black" fill-opacity="0.2"/>
<g filter="url(#filter5_ddi_2_4181)">
<rect x="229.342" y="114.994" width="49.005" height="46.59" rx="13.0878" transform="rotate(-45 229.342 114.994)" fill="url(#paint15_diamond_2_4181)"/>
<rect x="229.342" y="114.994" width="49.005" height="46.59" rx="13.0878" transform="rotate(-45 229.342 114.994)" fill="url(#paint16_linear_2_4181)"/>
</g>
<g filter="url(#filter6_d_2_4181)">
<rect x="365" y="62" width="149" height="168" rx="14" fill="white"/>
</g>
<rect x="369" y="109.359" width="88.1891" height="97.6847" rx="44.0946" transform="rotate(-45 369 109.359)" fill="url(#paint17_linear_2_4181)" fill-opacity="0.15"/>
<rect x="372.085" y="109.359" width="83.8265" height="93.3221" rx="41.9133" transform="rotate(-45 372.085 109.359)" stroke="url(#paint18_linear_2_4181)" stroke-opacity="0.28" stroke-width="4.3626"/>
<g filter="url(#filter7_ddi_2_4181)">
<rect x="377" y="115.535" width="79.9531" height="76.0066" rx="26.1756" transform="rotate(-45 377 115.535)" fill="url(#paint19_diamond_2_4181)"/>
<rect x="377" y="115.535" width="79.9531" height="76.0066" rx="26.1756" transform="rotate(-45 377 115.535)" fill="url(#paint20_diamond_2_4181)"/>
<rect x="377" y="115.535" width="79.9531" height="76.0066" rx="26.1756" transform="rotate(-45 377 115.535)" fill="url(#paint21_linear_2_4181)"/>
<rect x="377" y="115.535" width="79.9531" height="76.0066" rx="26.1756" transform="rotate(-45 377 115.535)" fill="url(#paint22_linear_2_4181)"/>
<rect x="377" y="115.535" width="79.9531" height="76.0066" rx="26.1756" transform="rotate(-45 377 115.535)" fill="url(#paint23_linear_2_4181)"/>
</g>
<g filter="url(#filter8_dd_2_4181)">
<rect x="398.342" y="114.995" width="49.0069" height="46.5879" rx="13.0878" transform="rotate(-45 398.342 114.995)" fill="url(#paint24_linear_2_4181)"/>
</g>
<defs>
<filter id="filter0_d_2_4181" x="15" y="54" width="169" height="188" filterUnits="userSpaceOnUse" color-interpolation-filters="sRGB">
<feFlood flood-opacity="0" result="BackgroundImageFix"/>
<feColorMatrix in="SourceAlpha" type="matrix" values="0 0 0 0 0 0 0 0 0 0 0 0 0 0 0 0 0 0 127 0" result="hardAlpha"/>
<feOffset dy="2"/>
<feGaussianBlur stdDeviation="5"/>
<feComposite in2="hardAlpha" operator="out"/>
<feColorMatrix type="matrix" values="0 0 0 0 0.176471 0 0 0 0 0.384314 0 0 0 0 0.85098 0 0 0 0.15 0"/>
<feBlend mode="normal" in2="BackgroundImageFix" result="effect1_dropShadow_2_4181"/>
<feBlend mode="normal" in="SourceGraphic" in2="effect1_dropShadow_2_4181" result="shape"/>
</filter>
<filter id="filter1_ddi_2_4181" x="-24.1877" y="3.4888" width="234.656" height="234.656" filterUnits="userSpaceOnUse" color-interpolation-filters="sRGB">
<feFlood flood-opacity="0" result="BackgroundImageFix"/>
<feColorMatrix in="SourceAlpha" type="matrix" values="0 0 0 0 0 0 0 0 0 0 0 0 0 0 0 0 0 0 127 0" result="hardAlpha"/>
<feOffset dy="3.67647"/>
<feGaussianBlur stdDeviation="30.6691"/>
<feComposite in2="hardAlpha" operator="out"/>
<feColorMatrix type="matrix" values="0 0 0 0 0.843137 0 0 0 0 0.886275 0 0 0 0 0.92549 0 0 0 0.34 0"/>
<feBlend mode="normal" in2="BackgroundImageFix" result="effect1_dropShadow_2_4181"/>
<feColorMatrix in="SourceAlpha" type="matrix" values="0 0 0 0 0 0 0 0 0 0 0 0 0 0 0 0 0 0 127 0" result="hardAlpha"/>
<feOffset dy="3.67647"/>
<feGaussianBlur stdDeviation="36.515"/>
<feComposite in2="hardAlpha" operator="out"/>
<feColorMatrix type="matrix" values="0 0 0 0 1 0 0 0 0 1 0 0 0 0 1 0 0 0 0.25 0"/>
<feBlend mode="normal" in2="effect1_dropShadow_2_4181" result="effect2_dropShadow_2_4181"/>
<feBlend mode="normal" in="SourceGraphic" in2="effect2_dropShadow_2_4181" result="shape"/>
<feColorMatrix in="SourceAlpha" type="matrix" values="0 0 0 0 0 0 0 0 0 0 0 0 0 0 0 0 0 0 127 0" result="hardAlpha"/>
<feOffset/>
<feGaussianBlur stdDeviation="13.4469"/>
<feComposite in2="hardAlpha" operator="arithmetic" k2="-1" k3="1"/>
<feColorMatrix type="matrix" values="0 0 0 0 1 0 0 0 0 1 0 0 0 0 1 0 0 0 1 0"/>
<feBlend mode="normal" in2="shape" result="effect3_innerShadow_2_4181"/>
</filter>
<filter id="filter2_ddi_2_4181" x="-1.65244" y="26.7058" width="187.771" height="187.771" filterUnits="userSpaceOnUse" color-interpolation-filters="sRGB">
<feFlood flood-opacity="0" result="BackgroundImageFix"/>
<feColorMatrix in="SourceAlpha" type="matrix" values="0 0 0 0 0 0 0 0 0 0 0 0 0 0 0 0 0 0 127 0" result="hardAlpha"/>
<feOffset dy="3.67647"/>
<feGaussianBlur stdDeviation="30.6691"/>
<feComposite in2="hardAlpha" operator="out"/>
<feColorMatrix type="matrix" values="0 0 0 0 0.827451 0 0 0 0 0.87451 0 0 0 0 0.913725 0 0 0 0.39 0"/>
<feBlend mode="normal" in2="BackgroundImageFix" result="effect1_dropShadow_2_4181"/>
<feColorMatrix in="SourceAlpha" type="matrix" values="0 0 0 0 0 0 0 0 0 0 0 0 0 0 0 0 0 0 127 0" result="hardAlpha"/>
<feOffset dy="3.67647"/>
<feGaussianBlur stdDeviation="36.515"/>
<feComposite in2="hardAlpha" operator="out"/>
<feColorMatrix type="matrix" values="0 0 0 0 1 0 0 0 0 1 0 0 0 0 1 0 0 0 0.25 0"/>
<feBlend mode="normal" in2="effect1_dropShadow_2_4181" result="effect2_dropShadow_2_4181"/>
<feBlend mode="normal" in="SourceGraphic" in2="effect2_dropShadow_2_4181" result="shape"/>
<feColorMatrix in="SourceAlpha" type="matrix" values="0 0 0 0 0 0 0 0 0 0 0 0 0 0 0 0 0 0 127 0" result="hardAlpha"/>
<feOffset/>
<feGaussianBlur stdDeviation="13.4469"/>
<feComposite in2="hardAlpha" operator="arithmetic" k2="-1" k3="1"/>
<feColorMatrix type="matrix" values="0 0 0 0 1 0 0 0 0 1 0 0 0 0 1 0 0 0 1 0"/>
<feBlend mode="normal" in2="shape" result="effect3_innerShadow_2_4181"/>
</filter>
<filter id="filter3_d_2_4181" x="185" y="54" width="169" height="188" filterUnits="userSpaceOnUse" color-interpolation-filters="sRGB">
<feFlood flood-opacity="0" result="BackgroundImageFix"/>
<feColorMatrix in="SourceAlpha" type="matrix" values="0 0 0 0 0 0 0 0 0 0 0 0 0 0 0 0 0 0 127 0" result="hardAlpha"/>
<feOffset dy="2"/>
<feGaussianBlur stdDeviation="5"/>
<feComposite in2="hardAlpha" operator="out"/>
<feColorMatrix type="matrix" values="0 0 0 0 0.176471 0 0 0 0 0.384314 0 0 0 0 0.85098 0 0 0 0.15 0"/>
<feBlend mode="normal" in2="BackgroundImageFix" result="effect1_dropShadow_2_4181"/>
<feBlend mode="normal" in="SourceGraphic" in2="effect1_dropShadow_2_4181" result="shape"/>
</filter>
<filter id="filter4_ddi_2_4181" x="145.812" y="0.488799" width="234.656" height="234.656" filterUnits="userSpaceOnUse" color-interpolation-filters="sRGB">
<feFlood flood-opacity="0" result="BackgroundImageFix"/>
<feColorMatrix in="SourceAlpha" type="matrix" values="0 0 0 0 0 0 0 0 0 0 0 0 0 0 0 0 0 0 127 0" result="hardAlpha"/>
<feOffset dy="3.67647"/>
<feGaussianBlur stdDeviation="30.6691"/>
<feComposite in2="hardAlpha" operator="out"/>
<feColorMatrix type="matrix" values="0 0 0 0 0.501961 0 0 0 0 0.435294 0 0 0 0 0.403922 0 0 0 0.34 0"/>
<feBlend mode="normal" in2="BackgroundImageFix" result="effect1_dropShadow_2_4181"/>
<feColorMatrix in="SourceAlpha" type="matrix" values="0 0 0 0 0 0 0 0 0 0 0 0 0 0 0 0 0 0 127 0" result="hardAlpha"/>
<feOffset dy="3.67647"/>
<feGaussianBlur stdDeviation="36.515"/>
<feComposite in2="hardAlpha" operator="out"/>
<feColorMatrix type="matrix" values="0 0 0 0 0.805127 0 0 0 0 0.720072 0 0 0 0 0.680047 0 0 0 0.25 0"/>
<feBlend mode="normal" in2="effect1_dropShadow_2_4181" result="effect2_dropShadow_2_4181"/>
<feBlend mode="normal" in="SourceGraphic" in2="effect2_dropShadow_2_4181" result="shape"/>
<feColorMatrix in="SourceAlpha" type="matrix" values="0 0 0 0 0 0 0 0 0 0 0 0 0 0 0 0 0 0 127 0" result="hardAlpha"/>
<feOffset/>
<feGaussianBlur stdDeviation="7.39578"/>
<feComposite in2="hardAlpha" operator="arithmetic" k2="-1" k3="1"/>
<feColorMatrix type="matrix" values="0 0 0 0 1 0 0 0 0 1 0 0 0 0 1 0 0 0 1 0"/>
<feBlend mode="normal" in2="shape" result="effect3_innerShadow_2_4181"/>
</filter>
<filter id="filter5_ddi_2_4181" x="161.733" y="16.41" width="202.813" height="202.813" filterUnits="userSpaceOnUse" color-interpolation-filters="sRGB">
<feFlood flood-opacity="0" result="BackgroundImageFix"/>
<feColorMatrix in="SourceAlpha" type="matrix" values="0 0 0 0 0 0 0 0 0 0 0 0 0 0 0 0 0 0 127 0" result="hardAlpha"/>
<feOffset dy="3.67647"/>
<feGaussianBlur stdDeviation="30.6691"/>
<feComposite in2="hardAlpha" operator="out"/>
<feColorMatrix type="matrix" values="0 0 0 0 0.50389 0 0 0 0 0.436059 0 0 0 0 0.402144 0 0 0 1 0"/>
<feBlend mode="normal" in2="BackgroundImageFix" result="effect1_dropShadow_2_4181"/>
<feColorMatrix in="SourceAlpha" type="matrix" values="0 0 0 0 0 0 0 0 0 0 0 0 0 0 0 0 0 0 127 0" result="hardAlpha"/>
<feOffset dy="3.67647"/>
<feGaussianBlur stdDeviation="36.515"/>
<feComposite in2="hardAlpha" operator="out"/>
<feColorMatrix type="matrix" values="0 0 0 0 1 0 0 0 0 1 0 0 0 0 1 0 0 0 0.25 0"/>
<feBlend mode="normal" in2="effect1_dropShadow_2_4181" result="effect2_dropShadow_2_4181"/>
<feBlend mode="normal" in="SourceGraphic" in2="effect2_dropShadow_2_4181" result="shape"/>
<feColorMatrix in="SourceAlpha" type="matrix" values="0 0 0 0 0 0 0 0 0 0 0 0 0 0 0 0 0 0 127 0" result="hardAlpha"/>
<feOffset/>
<feGaussianBlur stdDeviation="7.39578"/>
<feComposite in2="hardAlpha" operator="arithmetic" k2="-1" k3="1"/>
<feColorMatrix type="matrix" values="0 0 0 0 1 0 0 0 0 1 0 0 0 0 1 0 0 0 1 0"/>
<feBlend mode="normal" in2="shape" result="effect3_innerShadow_2_4181"/>
</filter>
<filter id="filter6_d_2_4181" x="355" y="54" width="169" height="188" filterUnits="userSpaceOnUse" color-interpolation-filters="sRGB">
<feFlood flood-opacity="0" result="BackgroundImageFix"/>
<feColorMatrix in="SourceAlpha" type="matrix" values="0 0 0 0 0 0 0 0 0 0 0 0 0 0 0 0 0 0 127 0" result="hardAlpha"/>
<feOffset dy="2"/>
<feGaussianBlur stdDeviation="5"/>
<feComposite in2="hardAlpha" operator="out"/>
<feColorMatrix type="matrix" values="0 0 0 0 0.176471 0 0 0 0 0.384314 0 0 0 0 0.85098 0 0 0 0.15 0"/>
<feBlend mode="normal" in2="BackgroundImageFix" result="effect1_dropShadow_2_4181"/>
<feBlend mode="normal" in="SourceGraphic" in2="effect1_dropShadow_2_4181" result="shape"/>
</filter>
<filter id="filter7_ddi_2_4181" x="314.812" y="0.488799" width="234.655" height="234.655" filterUnits="userSpaceOnUse" color-interpolation-filters="sRGB">
<feFlood flood-opacity="0" result="BackgroundImageFix"/>
<feColorMatrix in="SourceAlpha" type="matrix" values="0 0 0 0 0 0 0 0 0 0 0 0 0 0 0 0 0 0 127 0" result="hardAlpha"/>
<feOffset dy="3.67647"/>
<feGaussianBlur stdDeviation="30.6691"/>
<feComposite in2="hardAlpha" operator="out"/>
<feColorMatrix type="matrix" values="0 0 0 0 0.501961 0 0 0 0 0.435294 0 0 0 0 0.403922 0 0 0 0.34 0"/>
<feBlend mode="normal" in2="BackgroundImageFix" result="effect1_dropShadow_2_4181"/>
<feColorMatrix in="SourceAlpha" type="matrix" values="0 0 0 0 0 0 0 0 0 0 0 0 0 0 0 0 0 0 127 0" result="hardAlpha"/>
<feOffset dy="3.67647"/>
<feGaussianBlur stdDeviation="36.515"/>
<feComposite in2="hardAlpha" operator="out"/>
<feColorMatrix type="matrix" values="0 0 0 0 0.805127 0 0 0 0 0.720072 0 0 0 0 0.680047 0 0 0 0.25 0"/>
<feBlend mode="normal" in2="effect1_dropShadow_2_4181" result="effect2_dropShadow_2_4181"/>
<feBlend mode="normal" in="SourceGraphic" in2="effect2_dropShadow_2_4181" result="shape"/>
<feColorMatrix in="SourceAlpha" type="matrix" values="0 0 0 0 0 0 0 0 0 0 0 0 0 0 0 0 0 0 127 0" result="hardAlpha"/>
<feOffset/>
<feGaussianBlur stdDeviation="7.39578"/>
<feComposite in2="hardAlpha" operator="arithmetic" k2="-1" k3="1"/>
<feColorMatrix type="matrix" values="0 0 0 0 1 0 0 0 0 1 0 0 0 0 1 0 0 0 0.7 0"/>
<feBlend mode="normal" in2="shape" result="effect3_innerShadow_2_4181"/>
</filter>
<filter id="filter8_dd_2_4181" x="330.733" y="16.41" width="202.813" height="202.813" filterUnits="userSpaceOnUse" color-interpolation-filters="sRGB">
<feFlood flood-opacity="0" result="BackgroundImageFix"/>
<feColorMatrix in="SourceAlpha" type="matrix" values="0 0 0 0 0 0 0 0 0 0 0 0 0 0 0 0 0 0 127 0" result="hardAlpha"/>
<feOffset dy="3.67647"/>
<feGaussianBlur stdDeviation="30.6691"/>
<feComposite in2="hardAlpha" operator="out"/>
<feColorMatrix type="matrix" values="0 0 0 0 0.50389 0 0 0 0 0.436059 0 0 0 0 0.402144 0 0 0 1 0"/>
<feBlend mode="normal" in2="BackgroundImageFix" result="effect1_dropShadow_2_4181"/>
<feColorMatrix in="SourceAlpha" type="matrix" values="0 0 0 0 0 0 0 0 0 0 0 0 0 0 0 0 0 0 127 0" result="hardAlpha"/>
<feOffset dy="3.67647"/>
<feGaussianBlur stdDeviation="36.515"/>
<feComposite in2="hardAlpha" operator="out"/>
<feColorMatrix type="matrix" values="0 0 0 0 1 0 0 0 0 1 0 0 0 0 1 0 0 0 0.25 0"/>
<feBlend mode="normal" in2="effect1_dropShadow_2_4181" result="effect2_dropShadow_2_4181"/>
<feBlend mode="normal" in="SourceGraphic" in2="effect2_dropShadow_2_4181" result="shape"/>
</filter>
<linearGradient id="paint0_linear_2_4181" x1="73.0946" y1="177.326" x2="73.0946" y2="207.044" gradientUnits="userSpaceOnUse">
<stop stop-color="#004BBC" stop-opacity="0"/>
<stop offset="1" stop-color="#0057FF"/>
</linearGradient>
<linearGradient id="paint1_linear_2_4181" x1="73.0946" y1="109.359" x2="73.0946" y2="189.949" gradientUnits="userSpaceOnUse">
<stop stop-color="white"/>
<stop offset="1" stop-color="white" stop-opacity="0"/>
</linearGradient>
<radialGradient id="paint2_diamond_2_4181" cx="0" cy="0" r="1" gradientUnits="userSpaceOnUse" gradientTransform="translate(25.0081 174.274) rotate(-16.6578) scale(130.778 125.42)">
<stop offset="0.421875" stop-color="#A349EF"/>
<stop offset="1" stop-color="#FF65E6"/>
</radialGradient>
<radialGradient id="paint3_diamond_2_4181" cx="0" cy="0" r="1" gradientUnits="userSpaceOnUse" gradientTransform="translate(62.7345 136.111) rotate(-25.1276) scale(62.0909 31.851)">
<stop stop-color="#FF9FEA"/>
<stop offset="1" stop-color="white" stop-opacity="0"/>
</radialGradient>
<linearGradient id="paint4_linear_2_4181" x1="114.92" y1="159.619" x2="39.3413" y2="187.915" gradientUnits="userSpaceOnUse">
<stop stop-color="#7A96AC"/>
<stop offset="0.18" stop-color="#EAEFF3"/>
<stop offset="0.315" stop-color="#C2D4E1"/>
<stop offset="0.491919" stop-color="white"/>
<stop offset="0.615" stop-color="#D4DEE5"/>
<stop offset="0.785" stop-color="#ABBDC8"/>
<stop offset="0.955" stop-color="#BCCAD7"/>
</linearGradient>
<radialGradient id="paint5_diamond_2_4181" cx="0" cy="0" r="1" gradientUnits="userSpaceOnUse" gradientTransform="translate(59.9984 144.179) rotate(-17.9132) scale(60.3839 61.7139)">
<stop offset="0.421875" stop-color="#A349EF"/>
<stop offset="1" stop-color="#FF65E6"/>
</radialGradient>
<radialGradient id="paint6_diamond_2_4181" cx="0" cy="0" r="1" gradientUnits="userSpaceOnUse" gradientTransform="translate(77.2994 125.272) rotate(-26.8711) scale(28.9 15.5473)">
<stop stop-color="#FF9FEA"/>
<stop offset="1" stop-color="white" stop-opacity="0"/>
</radialGradient>
<linearGradient id="paint7_linear_2_4181" x1="66.873" y1="117.348" x2="101.632" y2="154.866" gradientUnits="userSpaceOnUse">
<stop stop-color="#7A96AC"/>
<stop offset="0.18" stop-color="#EAEFF3"/>
<stop offset="0.315" stop-color="#C2D4E1"/>
<stop offset="0.491919" stop-color="white"/>
<stop offset="0.615" stop-color="#D4DEE5"/>
<stop offset="0.785" stop-color="#ABBDC8"/>
<stop offset="0.955" stop-color="#BCCAD7"/>
</linearGradient>
<linearGradient id="paint8_linear_2_4181" x1="243.095" y1="177.326" x2="243.095" y2="207.044" gradientUnits="userSpaceOnUse">
<stop stop-color="#004BBC" stop-opacity="0"/>
<stop offset="1" stop-color="#0057FF"/>
</linearGradient>
<linearGradient id="paint9_linear_2_4181" x1="243.095" y1="109.359" x2="243.095" y2="189.949" gradientUnits="userSpaceOnUse">
<stop stop-color="white"/>
<stop offset="1" stop-color="white" stop-opacity="0"/>
</linearGradient>
<radialGradient id="paint10_diamond_2_4181" cx="0" cy="0" r="1" gradientUnits="userSpaceOnUse" gradientTransform="translate(195.008 171.274) rotate(-16.6578) scale(130.778 125.42)">
<stop offset="0.421875" stop-color="#A349EF"/>
<stop offset="1" stop-color="#FF65E6"/>
</radialGradient>
<radialGradient id="paint11_diamond_2_4181" cx="0" cy="0" r="1" gradientUnits="userSpaceOnUse" gradientTransform="translate(232.735 133.111) rotate(-25.1276) scale(62.0909 31.8511)">
<stop stop-color="#FF9FEA"/>
<stop offset="1" stop-color="white" stop-opacity="0"/>
</radialGradient>
<linearGradient id="paint12_linear_2_4181" x1="209.999" y1="117.117" x2="279.541" y2="198.208" gradientUnits="userSpaceOnUse">
<stop stop-color="#7A96AC"/>
<stop offset="0.18" stop-color="#EAEFF3"/>
<stop offset="0.315" stop-color="#C2D4E1"/>
<stop offset="0.491919" stop-color="white"/>
<stop offset="0.615" stop-color="#D4DEE5"/>
<stop offset="0.785" stop-color="#ABBDC8"/>
<stop offset="0.955" stop-color="#BCCAD7"/>
</linearGradient>
<linearGradient id="paint13_linear_2_4181" x1="218.66" y1="128.835" x2="277.461" y2="191.349" gradientUnits="userSpaceOnUse">
<stop stop-color="#9E8976"/>
<stop offset="0.195" stop-color="#7A5E50"/>
<stop offset="0.41" stop-color="#F6D0AB"/>
<stop offset="0.61" stop-color="#9D774E"/>
<stop offset="0.855" stop-color="#C99B70"/>
<stop offset="1" stop-color="#795F52"/>
</linearGradient>
<linearGradient id="paint14_linear_2_4181" x1="286.216" y1="151.69" x2="217.026" y2="177.296" gradientUnits="userSpaceOnUse">
<stop stop-color="#8C421D"/>
<stop offset="0.325272" stop-color="#FBE67B"/>
<stop offset="0.535488" stop-color="#FCFBE7"/>
<stop offset="0.769917" stop-color="#F7D14E"/>
<stop offset="1" stop-color="#D4A041"/>
</linearGradient>
<radialGradient id="paint15_diamond_2_4181" cx="0" cy="0" r="1" gradientUnits="userSpaceOnUse" gradientTransform="translate(221.379 149.16) rotate(-16.6578) scale(80.16 76.8757)">
<stop offset="0.421875" stop-color="#A349EF"/>
<stop offset="1" stop-color="#FF65E6"/>
</radialGradient>
<linearGradient id="paint16_linear_2_4181" x1="240.234" y1="114.257" x2="265.383" y2="163.383" gradientUnits="userSpaceOnUse">
<stop stop-color="#8C421D"/>
<stop offset="0.325272" stop-color="#FBE67B"/>
<stop offset="0.535488" stop-color="#FCFBE7"/>
<stop offset="0.769917" stop-color="#F7D14E"/>
<stop offset="1" stop-color="#D4A041"/>
</linearGradient>
<linearGradient id="paint17_linear_2_4181" x1="413.095" y1="177.326" x2="413.095" y2="207.044" gradientUnits="userSpaceOnUse">
<stop stop-color="#004BBC" stop-opacity="0"/>
<stop offset="1" stop-color="#0057FF"/>
</linearGradient>
<linearGradient id="paint18_linear_2_4181" x1="413.095" y1="109.359" x2="413.095" y2="189.949" gradientUnits="userSpaceOnUse">
<stop stop-color="white"/>
<stop offset="1" stop-color="white" stop-opacity="0"/>
</linearGradient>
<radialGradient id="paint19_diamond_2_4181" cx="0" cy="0" r="1" gradientUnits="userSpaceOnUse" gradientTransform="translate(364.008 171.274) rotate(-16.6565) scale(130.783 125.415)">
<stop offset="0.421875" stop-color="#A349EF"/>
<stop offset="1" stop-color="#FF65E6"/>
</radialGradient>
<radialGradient id="paint20_diamond_2_4181" cx="0" cy="0" r="1" gradientUnits="userSpaceOnUse" gradientTransform="translate(401.736 133.112) rotate(-25.1257) scale(62.0923 31.8501)">
<stop stop-color="#FF9FEA"/>
<stop offset="1" stop-color="white" stop-opacity="0"/>
</radialGradient>
<linearGradient id="paint21_linear_2_4181" x1="378.999" y1="117.119" x2="448.537" y2="198.212" gradientUnits="userSpaceOnUse">
<stop stop-color="#7A96AC"/>
<stop offset="0.18" stop-color="#EAEFF3"/>
<stop offset="0.315" stop-color="#C2D4E1"/>
<stop offset="0.491919" stop-color="white"/>
<stop offset="0.615" stop-color="#D4DEE5"/>
<stop offset="0.785" stop-color="#ABBDC8"/>
<stop offset="0.955" stop-color="#BCCAD7"/>
</linearGradient>
<linearGradient id="paint22_linear_2_4181" x1="387.66" y1="128.837" x2="446.458" y2="191.353" gradientUnits="userSpaceOnUse">
<stop stop-color="#9E8976"/>
<stop offset="0.195" stop-color="#7A5E50"/>
<stop offset="0.41" stop-color="#F6D0AB"/>
<stop offset="0.61" stop-color="#9D774E"/>
<stop offset="0.855" stop-color="#C99B70"/>
<stop offset="1" stop-color="#795F52"/>
</linearGradient>
<linearGradient id="paint23_linear_2_4181" x1="456.516" y1="146.761" x2="384.736" y2="183.512" gradientUnits="userSpaceOnUse">
<stop stop-color="#9E8976"/>
<stop offset="0.195" stop-color="#7A5E50"/>
<stop offset="0.41" stop-color="#F6D0AB"/>
<stop offset="0.61" stop-color="#9D774E"/>
<stop offset="0.855" stop-color="#C99B70"/>
<stop offset="1" stop-color="#795F52"/>
</linearGradient>
<linearGradient id="paint24_linear_2_4181" x1="402.104" y1="118.572" x2="424.8" y2="166.321" gradientUnits="userSpaceOnUse">
<stop stop-color="#9E8976"/>
<stop offset="0.195" stop-color="#7A5E50"/>
<stop offset="0.41" stop-color="#F6D0AB"/>
<stop offset="0.61" stop-color="#9D774E"/>
<stop offset="0.855" stop-color="#C99B70"/>
<stop offset="1" stop-color="#795F52"/>
</linearGradient>
</defs>
</svg>
