<svg width="15" height="15" viewBox="0 0 15 15" fill="none" xmlns="http://www.w3.org/2000/svg">
<rect x="0.458984" y="0.458984" width="14" height="14" rx="7" fill="#A9BCE7"/>
<path d="M10.1127 6.61268H9.58771V5.03768C9.58771 3.88268 8.64271 2.93768 7.48771 2.93768C6.33271 2.93768 5.38771 3.88268 5.38771 5.03768V6.61268H4.86271C4.60021 6.61268 4.33771 6.87518 4.33771 7.13768V10.8127C4.33771 11.0752 4.60021 11.3377 4.86271 11.3377H10.1127C10.3752 11.3377 10.6377 11.0752 10.6377 10.8127V7.13768C10.6377 6.87518 10.3752 6.61268 10.1127 6.61268ZM8.01271 10.2877H6.96271L7.17271 9.13268C6.91021 9.02768 6.70021 8.71268 6.70021 8.45018C6.70021 8.03018 7.06771 7.66268 7.48771 7.66268C7.90771 7.66268 8.27521 8.03018 8.27521 8.45018C8.27521 8.76518 8.11771 9.02768 7.80271 9.13268L8.01271 10.2877ZM8.53771 6.61268H6.43771V5.03768C6.43771 4.46018 6.91021 3.98768 7.48771 3.98768C8.06521 3.98768 8.53771 4.46018 8.53771 5.03768V6.61268Z" fill="white"/>
</svg>
