<svg width="12" height="12" viewBox="0 0 12 12" fill="none" xmlns="http://www.w3.org/2000/svg">
<rect width="12" height="12.0029" rx="5" fill="#1B47C3"/>
<g clip-path="url(#clip0_126_1243)">
<path d="M7.26939 7.07511C8.39459 7.07511 9.30674 6.09786 9.30674 4.89238C9.30674 3.6869 8.39459 2.70966 7.26939 2.70966V7.07511ZM3.02008 7.07511H7.26939V2.70966H3.02008V7.07511Z" fill="white"/>
<path d="M7.2985 4.08165H3.34023C2.93838 4.08165 2.61261 4.43066 2.61261 4.86119C2.61261 5.29172 2.93838 5.64074 3.34023 5.64074H7.2985C7.70036 5.64074 8.02612 5.29172 8.02612 4.86119C8.02612 4.43066 7.70036 4.08165 7.2985 4.08165Z" fill="#1B47C3"/>
<path d="M6.75546 9.26973C6.75546 9.26973 5.11448 7.5333 3.60217 5.92888L5.03558 5.92885L5.65357 5.92883L8.78644 9.25482L6.75546 9.26973Z" fill="white"/>
<path d="M4.06782 4.09494C4.06782 4.09494 3.36411 3.32399 2.78143 2.70581H3.07825H3.22378L4.50965 4.09496L4.06782 4.09494Z" fill="white"/>
<path d="M4.89992 4.08627C4.89992 4.08627 4.19621 3.31532 3.61353 2.69714H3.91035H4.05587L5.34175 4.08629L4.89992 4.08627Z" fill="#1B47C3"/>
<path d="M5.65664 4.08627C5.65664 4.08627 4.95293 3.31532 4.37024 2.69714H4.66706H4.81259L6.09846 4.08629L5.65664 4.08627Z" fill="#1B47C3"/>
<path d="M6.80244 7.1472C6.80244 7.1472 6.10041 6.3683 5.46484 5.62752L6.11796 5.62754L6.39426 5.63741L7.71081 7.17303L6.80244 7.1472Z" fill="#1B47C3"/>
<path d="M4.30217 7.71142C4.30217 7.71142 4.19126 8.37524 2.68596 6.76327L2.52525 5.39129L2.22766 4.75771L2.68601 4.9319L5.80491 8.2729L4.30217 7.71142Z" fill="#1B47C3"/>
<path d="M3.84755 4.35266C3.84755 4.35266 3.26483 5.97503 2.48676 5.14182V2.7644L2.94888 2.53194L3.15355 2.7644L4.76554 4.4915L3.84755 4.35266Z" fill="#1B47C3"/>
</g>
<defs>
<clipPath id="clip0_126_1243">
<rect width="9.25536" height="7.98254" fill="white" transform="translate(1.3772 2.40057)"/>
</clipPath>
</defs>
</svg>
