<svg width="389" height="192" viewBox="0 0 389 192" fill="none" xmlns="http://www.w3.org/2000/svg">
<mask id="mask0_4_3860" style="mask-type:alpha" maskUnits="userSpaceOnUse" x="-1" y="0" width="391" height="192">
<path d="M-1 13.7036C-1 6.13532 13.0045 0 30.28 0H358.72C375.995 0 390 6.13532 390 13.7036V191.851H-1V13.7036Z" fill="#1B47C3"/>
</mask>
<g mask="url(#mask0_4_3860)">
<g style="mix-blend-mode:soft-light">
<path opacity="0.0526316" d="M195.021 -293.895C286.601 -293.895 360.925 -203.487 360.925 -91.85C360.925 19.7865 286.601 110.195 195.021 110.195C103.44 110.195 29.1172 19.7865 29.1172 -91.85C29.1172 -203.487 103.44 -293.895 195.021 -293.895Z" stroke="white" stroke-width="0.521333"/>
<path opacity="0.105263" d="M217.134 -293.127C308.365 -286.771 372.511 -191.549 360.293 -80.3364C348.074 30.8764 264.138 115.782 172.907 109.426C81.6761 103.07 17.53 7.84801 29.7487 -103.365C41.9674 -214.578 125.904 -299.483 217.134 -293.127Z" stroke="white" stroke-width="0.521333"/>
<path opacity="0.157895" d="M239.081 -290.83C329.266 -278.167 382.748 -178.857 358.403 -68.9119C334.058 41.033 241.147 119.788 150.962 107.125C60.7769 94.4618 7.29459 -4.84827 31.6397 -114.793C55.9847 -224.738 148.896 -303.493 239.081 -290.83Z" stroke="white" stroke-width="0.521333"/>
<path opacity="0.210526" d="M260.692 -287.016C349.143 -268.144 391.556 -165.502 355.268 -57.6594C318.981 50.1827 217.801 122.186 129.35 103.313C40.8992 84.4404 -1.51419 -18.2016 34.7734 -126.044C71.061 -233.886 172.24 -305.889 260.692 -287.016Z" stroke="white" stroke-width="0.521333"/>
<path opacity="0.263158" d="M281.804 -281.72C367.846 -256.782 398.87 -151.589 350.914 -46.6695C302.958 58.2505 194.28 122.953 108.238 98.0152C22.1956 73.0772 -8.82797 -32.1157 39.1278 -137.036C87.0836 -241.956 195.761 -306.658 281.804 -281.72Z" stroke="white" stroke-width="0.521333"/>
<path opacity="0.315789" d="M302.257 -274.978C343.75 -259.571 369.342 -225.14 377.155 -181.896C384.967 -138.652 374.996 -86.6093 345.373 -36.0228C315.75 14.5638 272.095 54.0991 225.473 77.1299C178.851 100.161 129.278 106.681 87.7856 91.2736C46.293 75.8663 20.7007 41.4353 12.8879 -1.80853C5.07511 -45.0525 15.0469 -97.0953 44.6696 -147.682C74.2923 -198.268 117.947 -237.804 164.57 -260.834C211.192 -283.865 260.764 -290.385 302.257 -274.978Z" stroke="white" stroke-width="0.521333"/>
<path opacity="0.368421" d="M321.895 -266.841C361.538 -248.615 383.265 -212.541 386.315 -168.918C389.366 -125.296 373.735 -74.1407 338.687 -25.8002C303.639 22.5403 255.821 58.8968 206.854 78.6048C157.886 98.3128 107.791 101.366 68.1476 83.1399C28.5038 64.9136 6.77699 28.8402 3.72684 -14.7829C0.676714 -58.4057 16.3071 -109.561 51.3554 -157.901C86.4038 -206.242 134.222 -242.598 183.189 -262.306C232.156 -282.014 282.251 -285.067 321.895 -266.841Z" stroke="white" stroke-width="0.521333"/>
<path opacity="0.421053" d="M340.568 -257.375C378.061 -236.47 395.758 -199.029 394.022 -155.358C392.286 -111.688 371.115 -61.8109 330.907 -16.0846C290.699 29.6418 239.082 62.5426 188.143 78.7776C137.203 95.0129 86.9674 94.5761 49.4744 73.6706C11.9813 52.7651 -5.71554 15.3241 -3.9795 -28.3465C-2.24348 -72.0164 18.927 -121.894 59.1348 -167.62C99.3427 -213.347 150.96 -246.247 201.899 -262.482C252.839 -278.718 303.075 -278.281 340.568 -257.375Z" stroke="white" stroke-width="0.521333"/>
<path opacity="0.473684" d="M358.135 -246.645C393.192 -223.22 406.725 -184.697 400.216 -141.311C393.706 -97.926 367.156 -49.7053 322.094 -6.94138C277.033 35.8225 222.008 65.0169 169.484 77.6552C116.958 90.2939 66.9658 86.3706 31.9088 62.9461C-3.14812 39.5216 -16.6812 0.998007 -10.1717 -42.3881C-3.66249 -85.7727 22.8876 -133.993 67.9493 -176.757C113.011 -219.521 168.036 -248.716 220.56 -261.354C273.085 -273.993 323.078 -270.069 358.135 -246.645Z" stroke="white" stroke-width="0.521333"/>
<path opacity="0.526316" d="M374.46 -234.742C406.814 -208.978 416.082 -169.665 404.848 -126.894C393.615 -84.1244 361.887 -37.9278 312.313 1.54781C262.74 41.0234 204.727 66.2888 151.018 75.234C97.3059 84.1797 47.9371 76.8001 15.5827 51.0359C-16.7717 25.2717 -26.039 -14.0412 -14.8051 -56.8128C-3.57178 -99.582 28.1562 -145.779 77.7293 -185.254C127.302 -224.73 185.316 -249.995 239.025 -258.94C292.737 -267.886 342.106 -260.506 374.46 -234.742Z" stroke="white" stroke-width="0.521333"/>
<path opacity="0.578947" d="M389.42 -221.747C418.826 -193.84 423.758 -154.037 407.885 -112.205C392.013 -70.3771 355.348 -26.5565 301.64 9.32994C247.933 45.2163 187.373 66.3601 132.887 71.5439C78.3969 76.728 30.028 65.9487 0.621784 38.042C-28.7844 10.1353 -33.7162 -29.6682 -17.8428 -71.4998C-1.97066 -113.328 34.6943 -157.149 88.4016 -193.035C142.109 -228.921 202.669 -250.065 257.155 -255.249C311.645 -260.433 360.014 -249.654 389.42 -221.747Z" stroke="white" stroke-width="0.521333"/>
<path opacity="0.631579" d="M402.902 -207.761C429.137 -177.925 429.696 -137.934 409.304 -97.3606C388.913 -56.7917 347.59 -15.6809 290.157 16.3427C232.724 48.3663 170.078 65.2272 115.23 66.6098C60.3768 67.9925 13.3762 53.896 -12.859 24.06C-39.0942 -5.77594 -39.6538 -45.7672 -19.261 -86.3406C1.12951 -126.909 42.4526 -168.02 99.8855 -200.044C157.318 -232.068 219.965 -248.928 274.812 -250.311C329.666 -251.694 376.667 -237.597 402.902 -207.761Z" stroke="white" stroke-width="0.521333"/>
<path opacity="0.684211" d="M414.801 -192.894C437.666 -161.356 433.85 -121.481 409.093 -82.4747C384.339 -43.4742 338.672 -5.38647 277.95 22.5302C217.229 50.4469 152.973 62.8962 98.1815 60.4668C43.3818 58.0372 -1.89269 40.7313 -24.7583 9.19377C-47.624 -22.3437 -43.8077 -62.2191 -19.0503 -101.225C5.70366 -140.226 51.3706 -178.314 112.092 -206.23C172.813 -234.147 237.069 -246.596 291.861 -244.167C346.661 -241.737 391.935 -224.431 414.801 -192.894Z" stroke="white" stroke-width="0.521333"/>
<path opacity="0.736842" d="M425.027 -177.259C444.351 -144.26 436.188 -104.803 407.254 -67.6614C378.325 -30.5262 328.661 4.24815 265.114 27.845C201.566 51.4419 136.191 59.3845 81.8715 53.1615C27.5429 46.9374 -15.661 26.5545 -34.9845 -6.44421C-54.308 -39.4429 -46.1453 -78.8996 -17.2111 -116.041C11.7181 -153.177 61.3814 -187.951 124.929 -211.548C188.477 -235.145 253.852 -243.087 308.171 -236.864C362.5 -230.64 405.704 -210.257 425.027 -177.259Z" stroke="white" stroke-width="0.521333"/>
<path opacity="0.789474" d="M433.503 -160.971C449.139 -126.763 436.692 -88.0241 403.801 -53.0298C370.917 -18.0429 317.635 13.1532 251.745 32.2503C185.855 51.3475 119.857 54.7227 66.4247 44.7532C12.9811 34.7816 -27.8237 11.4773 -43.4595 -22.7315C-59.0953 -56.9403 -46.6485 -95.6788 -13.7574 -130.673C19.1269 -165.66 72.4086 -196.856 138.299 -215.953C204.189 -235.05 270.186 -238.426 323.619 -228.456C377.063 -218.485 417.867 -195.18 433.503 -160.971Z" stroke="white" stroke-width="0.521333"/>
<path opacity="0.842105" d="M440.163 -144.157C451.994 -108.998 435.357 -71.2718 398.759 -38.6918C362.17 -6.11963 305.676 21.2603 237.945 35.7121C170.214 50.1638 104.097 48.9457 51.958 35.3055C-0.193446 21.6621 -38.2891 -4.38567 -50.1197 -39.5447C-61.9503 -74.7038 -45.3138 -112.43 -8.71598 -145.01C27.8732 -177.582 84.3677 -204.962 152.098 -219.414C219.829 -233.865 285.946 -232.647 338.085 -219.007C390.237 -205.364 428.333 -179.316 440.163 -144.157Z" stroke="white" stroke-width="0.521333"/>
<path opacity="0.894737" d="M444.957 -126.946C452.894 -91.1031 432.194 -54.6759 392.168 -24.7589C352.152 5.15044 292.875 28.5056 223.82 38.2018C154.764 47.898 89.0307 42.0957 38.5822 24.8885C-11.8793 7.67695 -46.9767 -20.9157 -54.9133 -56.7584C-62.8499 -92.601 -42.1499 -129.028 -2.12405 -158.945C37.8915 -188.855 97.1686 -212.21 166.224 -221.906C235.28 -231.602 301.013 -225.8 351.462 -208.593C401.923 -191.381 437.021 -162.788 444.957 -126.946Z" stroke="white" stroke-width="0.521333"/>
<path opacity="0.947368" d="M447.848 -109.466C451.831 -73.2109 427.224 -38.3592 384.076 -11.3334C340.938 15.6852 279.33 34.8376 209.475 39.7043C139.621 44.5709 74.7721 34.2285 26.3984 13.5854C-21.9884 -7.06338 -53.8213 -37.983 -57.8045 -74.2378C-61.7877 -110.493 -37.181 -145.344 5.96798 -172.37C49.1052 -199.389 110.713 -218.541 180.568 -223.408C250.423 -228.274 315.271 -217.932 363.645 -197.289C412.032 -176.64 443.865 -145.72 447.848 -109.466Z" stroke="white" stroke-width="0.521333"/>
<path d="M448.814 -91.8513C448.814 -55.4589 420.486 -22.4477 374.543 1.48088C328.613 25.4028 265.143 40.2066 195.021 40.2066C124.9 40.2066 61.4294 25.4028 15.4991 1.48088C-30.444 -22.4477 -58.7711 -55.4589 -58.7711 -91.8513C-58.7711 -128.244 -30.444 -161.255 15.4991 -185.184C61.4294 -209.105 124.9 -223.909 195.021 -223.909C265.143 -223.909 328.613 -209.105 374.543 -185.184C420.486 -161.255 448.814 -128.244 448.814 -91.8513Z" stroke="white" stroke-width="0.521333"/>
</g>
</g>
</svg>
