<svg width="12" height="12" viewBox="0 0 12 12" fill="none" xmlns="http://www.w3.org/2000/svg">
<rect width="12" height="12.0029" rx="5" fill="#1B47C3"/>
<g clip-path="url(#clip0_0_4361)">
<path d="M7.26933 7.07511C8.39453 7.07511 9.30668 6.09786 9.30668 4.89238C9.30668 3.6869 8.39453 2.70966 7.26933 2.70966V7.07511ZM3.02002 7.07511H7.26933V2.70966H3.02002V7.07511Z" fill="white"/>
<path d="M7.29844 4.08167H3.34017C2.93832 4.08167 2.61255 4.43068 2.61255 4.86121C2.61255 5.29174 2.93832 5.64075 3.34017 5.64075H7.29844C7.7003 5.64075 8.02606 5.29174 8.02606 4.86121C8.02606 4.43068 7.7003 4.08167 7.29844 4.08167Z" fill="#1B47C3"/>
<path d="M6.75546 9.26973C6.75546 9.26973 5.11448 7.5333 3.60217 5.92888L5.03558 5.92885L5.65357 5.92883L8.78644 9.25482L6.75546 9.26973Z" fill="white"/>
<path d="M4.06788 4.09494C4.06788 4.09494 3.36417 3.32399 2.78149 2.70581H3.07831H3.22384L4.50971 4.09496L4.06788 4.09494Z" fill="white"/>
<path d="M4.89992 4.08627C4.89992 4.08627 4.19621 3.31532 3.61353 2.69714H3.91035H4.05587L5.34175 4.08629L4.89992 4.08627Z" fill="#1B47C3"/>
<path d="M5.65664 4.08627C5.65664 4.08627 4.95293 3.31532 4.37024 2.69714H4.66706H4.81259L6.09846 4.08629L5.65664 4.08627Z" fill="#1B47C3"/>
<path d="M6.80244 7.14718C6.80244 7.14718 6.10041 6.36829 5.46484 5.6275L6.11796 5.62752L6.39426 5.6374L7.71081 7.17301L6.80244 7.14718Z" fill="#1B47C3"/>
<path d="M4.30217 7.7114C4.30217 7.7114 4.19126 8.37522 2.68596 6.76326L2.52525 5.39127L2.22766 4.75769L2.68601 4.93188L5.80491 8.27289L4.30217 7.7114Z" fill="#1B47C3"/>
<path d="M3.84749 4.35265C3.84749 4.35265 3.26477 5.97502 2.48669 5.14181V2.76439L2.94882 2.53192L3.15349 2.76439L4.76548 4.49149L3.84749 4.35265Z" fill="#1B47C3"/>
</g>
<defs>
<clipPath id="clip0_0_4361">
<rect width="9.25536" height="7.98254" fill="white" transform="translate(1.3772 2.40057)"/>
</clipPath>
</defs>
</svg>
