<svg width="275" height="64" viewBox="0 0 275 64" fill="none" xmlns="http://www.w3.org/2000/svg">
<g filter="url(#filter0_d_1_4751)">
<circle cx="32" cy="28" r="24" fill="white"/>
</g>
<path d="M24.2295 31.89V33H19.4295V31.89H21.1875V26.832C21.1875 26.632 21.1935 26.426 21.2055 26.214L19.9575 27.258C19.8855 27.314 19.8135 27.35 19.7415 27.366C19.6735 27.378 19.6075 27.378 19.5435 27.366C19.4835 27.354 19.4295 27.334 19.3815 27.306C19.3335 27.274 19.2975 27.24 19.2735 27.204L18.8055 26.562L21.4515 24.312H22.6695V31.89H24.2295Z" fill="#0D265E"/>
<path d="M30.4646 26.826C30.9086 26.826 31.3086 26.9 31.6646 27.048C32.0206 27.196 32.3246 27.406 32.5766 27.678C32.8286 27.95 33.0206 28.28 33.1526 28.668C33.2886 29.052 33.3566 29.482 33.3566 29.958C33.3566 30.438 33.2886 30.87 33.1526 31.254C33.0206 31.638 32.8286 31.966 32.5766 32.238C32.3246 32.51 32.0206 32.72 31.6646 32.868C31.3086 33.012 30.9086 33.084 30.4646 33.084C30.0166 33.084 29.6126 33.012 29.2526 32.868C28.8966 32.72 28.5926 32.51 28.3406 32.238C28.0886 31.966 27.8946 31.638 27.7586 31.254C27.6266 30.87 27.5606 30.438 27.5606 29.958C27.5606 29.482 27.6266 29.052 27.7586 28.668C27.8946 28.28 28.0886 27.95 28.3406 27.678C28.5926 27.406 28.8966 27.196 29.2526 27.048C29.6126 26.9 30.0166 26.826 30.4646 26.826ZM30.4646 32.25C31.0646 32.25 31.5126 32.05 31.8086 31.65C32.1046 31.246 32.2526 30.684 32.2526 29.964C32.2526 29.24 32.1046 28.676 31.8086 28.272C31.5126 27.868 31.0646 27.666 30.4646 27.666C30.1606 27.666 29.8946 27.718 29.6666 27.822C29.4426 27.926 29.2546 28.076 29.1026 28.272C28.9546 28.468 28.8426 28.71 28.7666 28.998C28.6946 29.282 28.6586 29.604 28.6586 29.964C28.6586 30.684 28.8066 31.246 29.1026 31.65C29.4026 32.05 29.8566 32.25 30.4646 32.25ZM34.9783 33V27.834L34.3063 27.756C34.2223 27.736 34.1523 27.706 34.0963 27.666C34.0443 27.622 34.0183 27.56 34.0183 27.48V27.042H34.9783V26.454C34.9783 26.106 35.0263 25.798 35.1223 25.53C35.2223 25.258 35.3623 25.03 35.5423 24.846C35.7263 24.658 35.9463 24.516 36.2023 24.42C36.4583 24.324 36.7463 24.276 37.0663 24.276C37.3383 24.276 37.5883 24.316 37.8163 24.396L37.7923 24.93C37.7843 25.026 37.7303 25.078 37.6303 25.086C37.5343 25.094 37.4043 25.098 37.2403 25.098C37.0563 25.098 36.8883 25.122 36.7363 25.17C36.5883 25.218 36.4603 25.296 36.3523 25.404C36.2443 25.512 36.1603 25.654 36.1003 25.83C36.0443 26.006 36.0163 26.224 36.0163 26.484V27.042H37.7683V27.816H36.0523V33H34.9783Z" fill="#0D265E"/>
<path d="M43.1515 27.474L42.8515 27.846C43.0195 27.762 43.1995 27.698 43.3915 27.654C43.5875 27.606 43.7975 27.582 44.0215 27.582C44.3495 27.582 44.6675 27.636 44.9755 27.744C45.2875 27.852 45.5615 28.016 45.7975 28.236C46.0335 28.452 46.2235 28.722 46.3675 29.046C46.5115 29.37 46.5835 29.748 46.5835 30.18C46.5835 30.584 46.5095 30.964 46.3615 31.32C46.2135 31.672 46.0055 31.98 45.7375 32.244C45.4695 32.508 45.1455 32.716 44.7655 32.868C44.3895 33.02 43.9735 33.096 43.5175 33.096C43.0535 33.096 42.6375 33.022 42.2695 32.874C41.9015 32.726 41.5875 32.52 41.3275 32.256C41.0675 31.988 40.8675 31.668 40.7275 31.296C40.5915 30.92 40.5235 30.504 40.5235 30.048C40.5235 29.64 40.6055 29.222 40.7695 28.794C40.9375 28.362 41.1955 27.914 41.5435 27.45L43.6135 24.672C43.6855 24.576 43.7895 24.494 43.9255 24.426C44.0655 24.358 44.2255 24.324 44.4055 24.324H45.7255L43.1515 27.474ZM43.4875 31.884C43.7235 31.884 43.9395 31.844 44.1355 31.764C44.3355 31.684 44.5055 31.572 44.6455 31.428C44.7895 31.284 44.9015 31.116 44.9815 30.924C45.0615 30.728 45.1015 30.516 45.1015 30.288C45.1015 30.04 45.0635 29.818 44.9875 29.622C44.9115 29.422 44.8035 29.254 44.6635 29.118C44.5235 28.978 44.3555 28.872 44.1595 28.8C43.9635 28.728 43.7475 28.692 43.5115 28.692C43.2755 28.692 43.0615 28.732 42.8695 28.812C42.6775 28.892 42.5135 29.004 42.3775 29.148C42.2415 29.288 42.1355 29.456 42.0595 29.652C41.9835 29.844 41.9455 30.052 41.9455 30.276C41.9455 30.516 41.9775 30.736 42.0415 30.936C42.1095 31.132 42.2075 31.3 42.3355 31.44C42.4675 31.58 42.6295 31.69 42.8215 31.77C43.0135 31.846 43.2355 31.884 43.4875 31.884Z" fill="#0D265E"/>
<path d="M21.4535 8.6927C23.989 7.30772 26.7724 6.43569 29.6449 6.12642C32.5174 5.81714 35.4227 6.07667 38.1948 6.89019C40.967 7.70371 43.5518 9.05528 45.8017 10.8677C48.0515 12.6802 49.9223 14.9181 51.3073 17.4535C52.6923 19.989 53.5643 22.7724 53.8736 25.6449C54.1829 28.5174 53.9233 31.4227 53.1098 34.1948C52.2963 36.967 50.9447 39.5518 49.1323 41.8017C47.3198 44.0515 45.0819 45.9223 42.5465 47.3073C40.011 48.6923 37.2276 49.5643 34.3551 49.8736C31.4826 50.1829 28.5773 49.9233 25.8052 49.1098C23.033 48.2963 20.4482 46.9447 18.1983 45.1323C15.9485 43.3198 14.0777 41.0819 12.6927 38.5465C11.3077 36.011 10.4357 33.2276 10.1264 30.3551C9.81714 27.4826 10.0767 24.5773 10.8902 21.8052C11.7037 19.033 13.0553 16.4482 14.8677 14.1983C16.6802 11.9485 18.9181 10.0777 21.4535 8.69269L21.4535 8.6927Z" stroke="#F7F7F7" stroke-width="4" stroke-linecap="round" stroke-linejoin="round"/>
<path d="M50.1268 15.5333C48.1049 12.5934 45.3983 10.1894 42.2404 8.52863C39.0825 6.86782 35.568 6 32 6" stroke="#35D487" stroke-width="4" stroke-linecap="round" stroke-linejoin="round"/>
<path d="M73.656 10.094V14H71.556V10.094L67.867 3.843H69.715C69.897 3.843 70.0417 3.88733 70.149 3.976C70.261 4.06 70.3497 4.16967 70.415 4.305L72.081 7.504C72.193 7.71867 72.2933 7.91933 72.382 8.106C72.4753 8.29267 72.557 8.47933 72.627 8.666C72.6923 8.47933 72.767 8.29267 72.851 8.106C72.9397 7.91467 73.0377 7.714 73.145 7.504L74.797 4.305C74.853 4.193 74.937 4.088 75.049 3.99C75.161 3.892 75.3057 3.843 75.483 3.843H77.345L73.656 10.094ZM79.6682 6.671C80.2096 6.671 80.7019 6.75733 81.1452 6.93C81.5886 7.10267 81.9689 7.35 82.2862 7.672C82.6036 7.98933 82.8486 8.37667 83.0212 8.834C83.1939 9.29133 83.2802 9.807 83.2802 10.381C83.2802 10.955 83.1939 11.473 83.0212 11.935C82.8486 12.3923 82.6036 12.782 82.2862 13.104C81.9689 13.426 81.5886 13.6733 81.1452 13.846C80.7019 14.0187 80.2096 14.105 79.6682 14.105C79.1222 14.105 78.6252 14.0187 78.1772 13.846C77.7339 13.6733 77.3536 13.426 77.0362 13.104C76.7189 12.782 76.4716 12.3923 76.2942 11.935C76.1216 11.473 76.0352 10.955 76.0352 10.381C76.0352 9.807 76.1216 9.29133 76.2942 8.834C76.4716 8.37667 76.7189 7.98933 77.0362 7.672C77.3536 7.35 77.7339 7.10267 78.1772 6.93C78.6252 6.75733 79.1222 6.671 79.6682 6.671ZM79.6682 12.656C80.2189 12.656 80.6272 12.467 80.8932 12.089C81.1592 11.7063 81.2922 11.1393 81.2922 10.388C81.2922 9.64133 81.1592 9.079 80.8932 8.701C80.6272 8.31833 80.2189 8.127 79.6682 8.127C79.1036 8.127 78.6882 8.31833 78.4222 8.701C78.1562 9.079 78.0232 9.64133 78.0232 10.388C78.0232 11.1393 78.1562 11.7063 78.4222 12.089C78.6882 12.467 79.1036 12.656 79.6682 12.656ZM90.8283 6.783V14H89.6383C89.391 14 89.2323 13.888 89.1623 13.664L89.0363 13.16C88.8916 13.3 88.7423 13.4283 88.5883 13.545C88.4343 13.6617 88.2686 13.762 88.0913 13.846C87.9186 13.93 87.7296 13.9953 87.5243 14.042C87.3236 14.0887 87.1043 14.112 86.8663 14.112C86.4743 14.112 86.1243 14.0443 85.8163 13.909C85.513 13.7737 85.2586 13.5847 85.0533 13.342C84.848 13.0993 84.6916 12.81 84.5843 12.474C84.477 12.138 84.4233 11.7693 84.4233 11.368V6.783H86.3553V11.368C86.3553 11.7693 86.4463 12.082 86.6283 12.306C86.815 12.5253 87.0903 12.635 87.4543 12.635C87.725 12.635 87.9793 12.5767 88.2173 12.46C88.4553 12.3387 88.6816 12.1753 88.8963 11.97V6.783H90.8283ZM94.236 7.973C94.4647 7.56233 94.7283 7.238 95.027 7C95.3257 6.762 95.6757 6.643 96.077 6.643C96.4037 6.643 96.6697 6.72 96.875 6.874L96.749 8.302C96.7257 8.39533 96.6883 8.46067 96.637 8.498C96.5903 8.53067 96.525 8.547 96.441 8.547C96.3663 8.547 96.259 8.53767 96.119 8.519C95.979 8.49567 95.8483 8.484 95.727 8.484C95.5497 8.484 95.391 8.50967 95.251 8.561C95.1157 8.61233 94.9943 8.68467 94.887 8.778C94.7797 8.87133 94.6817 8.98567 94.593 9.121C94.509 9.25633 94.4297 9.41033 94.355 9.583V14H92.423V6.783H93.564C93.76 6.783 93.8953 6.818 93.97 6.888C94.0447 6.958 94.0983 7.07933 94.131 7.252L94.236 7.973ZM102.668 12.096C102.85 12.306 103.046 12.453 103.256 12.537C103.47 12.621 103.699 12.663 103.942 12.663C104.175 12.663 104.387 12.6187 104.579 12.53C104.77 12.4413 104.933 12.3037 105.069 12.117C105.209 11.9257 105.316 11.683 105.391 11.389C105.465 11.095 105.503 10.745 105.503 10.339C105.503 9.93767 105.47 9.597 105.405 9.317C105.344 9.037 105.255 8.81067 105.139 8.638C105.027 8.46533 104.889 8.34167 104.726 8.267C104.562 8.18767 104.38 8.148 104.18 8.148C103.839 8.148 103.552 8.21567 103.319 8.351C103.09 8.48167 102.873 8.67533 102.668 8.932V12.096ZM102.556 7.728C102.7 7.56933 102.854 7.42467 103.018 7.294C103.181 7.15867 103.356 7.04433 103.543 6.951C103.729 6.853 103.93 6.77833 104.145 6.727C104.359 6.671 104.593 6.643 104.845 6.643C105.232 6.643 105.587 6.727 105.909 6.895C106.235 7.05833 106.515 7.29867 106.749 7.616C106.982 7.92867 107.164 8.31367 107.294 8.771C107.425 9.22833 107.49 9.751 107.49 10.339C107.49 10.8803 107.416 11.382 107.267 11.844C107.122 12.3013 106.914 12.698 106.644 13.034C106.373 13.37 106.046 13.6337 105.664 13.825C105.286 14.0117 104.863 14.105 104.397 14.105C104.005 14.105 103.671 14.0467 103.396 13.93C103.125 13.8133 102.882 13.6547 102.668 13.454V16.331H100.736V6.783H101.926C102.168 6.783 102.329 6.895 102.409 7.119L102.556 7.728ZM110.547 7.973C110.775 7.56233 111.039 7.238 111.338 7C111.636 6.762 111.986 6.643 112.388 6.643C112.714 6.643 112.98 6.72 113.186 6.874L113.06 8.302C113.036 8.39533 112.999 8.46067 112.948 8.498C112.901 8.53067 112.836 8.547 112.752 8.547C112.677 8.547 112.57 8.53767 112.43 8.519C112.29 8.49567 112.159 8.484 112.038 8.484C111.86 8.484 111.702 8.50967 111.562 8.561C111.426 8.61233 111.305 8.68467 111.198 8.778C111.09 8.87133 110.992 8.98567 110.904 9.121C110.82 9.25633 110.74 9.41033 110.666 9.583V14H108.734V6.783H109.875C110.071 6.783 110.206 6.818 110.281 6.888C110.355 6.958 110.409 7.07933 110.442 7.252L110.547 7.973ZM117.102 6.671C117.643 6.671 118.135 6.75733 118.579 6.93C119.022 7.10267 119.402 7.35 119.72 7.672C120.037 7.98933 120.282 8.37667 120.455 8.834C120.627 9.29133 120.714 9.807 120.714 10.381C120.714 10.955 120.627 11.473 120.455 11.935C120.282 12.3923 120.037 12.782 119.72 13.104C119.402 13.426 119.022 13.6733 118.579 13.846C118.135 14.0187 117.643 14.105 117.102 14.105C116.556 14.105 116.059 14.0187 115.611 13.846C115.167 13.6733 114.787 13.426 114.47 13.104C114.152 12.782 113.905 12.3923 113.728 11.935C113.555 11.473 113.469 10.955 113.469 10.381C113.469 9.807 113.555 9.29133 113.728 8.834C113.905 8.37667 114.152 7.98933 114.47 7.672C114.787 7.35 115.167 7.10267 115.611 6.93C116.059 6.75733 116.556 6.671 117.102 6.671ZM117.102 12.656C117.652 12.656 118.061 12.467 118.327 12.089C118.593 11.7063 118.726 11.1393 118.726 10.388C118.726 9.64133 118.593 9.079 118.327 8.701C118.061 8.31833 117.652 8.127 117.102 8.127C116.537 8.127 116.122 8.31833 115.856 8.701C115.59 9.079 115.457 9.64133 115.457 10.388C115.457 11.1393 115.59 11.7063 115.856 12.089C116.122 12.467 116.537 12.656 117.102 12.656ZM124.547 10.122C124.943 10.122 125.235 10.0217 125.422 9.821C125.613 9.62033 125.709 9.36133 125.709 9.044C125.709 8.71267 125.613 8.45367 125.422 8.267C125.235 8.07567 124.943 7.98 124.547 7.98C124.15 7.98 123.858 8.07567 123.672 8.267C123.485 8.45367 123.392 8.71267 123.392 9.044C123.392 9.35667 123.485 9.61567 123.672 9.821C123.863 10.0217 124.155 10.122 124.547 10.122ZM126.374 14.294C126.374 14.168 126.334 14.0653 126.255 13.986C126.175 13.9067 126.068 13.8437 125.933 13.797C125.802 13.7503 125.646 13.7177 125.464 13.699C125.282 13.6757 125.088 13.6593 124.883 13.65C124.677 13.636 124.465 13.6243 124.246 13.615C124.026 13.6057 123.812 13.5893 123.602 13.566C123.438 13.664 123.303 13.7807 123.196 13.916C123.093 14.0467 123.042 14.196 123.042 14.364C123.042 14.4807 123.067 14.588 123.119 14.686C123.175 14.784 123.266 14.868 123.392 14.938C123.518 15.008 123.683 15.0617 123.889 15.099C124.094 15.141 124.351 15.162 124.659 15.162C124.976 15.162 125.244 15.141 125.464 15.099C125.683 15.057 125.86 14.9963 125.996 14.917C126.131 14.8423 126.227 14.7513 126.283 14.644C126.343 14.5367 126.374 14.42 126.374 14.294ZM128.292 7.021V7.728C128.292 7.84 128.259 7.92867 128.194 7.994C128.133 8.05933 128.03 8.10833 127.886 8.141L127.298 8.26C127.377 8.48867 127.417 8.73367 127.417 8.995C127.417 9.35433 127.342 9.67867 127.193 9.968C127.048 10.2527 126.847 10.4977 126.591 10.703C126.334 10.9037 126.031 11.06 125.681 11.172C125.331 11.2793 124.953 11.333 124.547 11.333C124.29 11.333 124.05 11.312 123.826 11.27C123.63 11.3913 123.532 11.5243 123.532 11.669C123.532 11.8043 123.597 11.9023 123.728 11.963C123.863 12.0237 124.038 12.068 124.253 12.096C124.472 12.1193 124.719 12.1357 124.995 12.145C125.275 12.1497 125.557 12.1637 125.842 12.187C126.131 12.2103 126.413 12.2523 126.689 12.313C126.969 12.369 127.216 12.4647 127.431 12.6C127.65 12.7307 127.825 12.9057 127.956 13.125C128.091 13.3443 128.159 13.6267 128.159 13.972C128.159 14.294 128.079 14.6067 127.921 14.91C127.762 15.2133 127.531 15.484 127.228 15.722C126.929 15.96 126.56 16.1513 126.122 16.296C125.683 16.4407 125.184 16.513 124.624 16.513C124.068 16.513 123.585 16.4593 123.175 16.352C122.769 16.2493 122.43 16.1093 122.16 15.932C121.894 15.7593 121.695 15.5587 121.565 15.33C121.434 15.1013 121.369 14.8633 121.369 14.616C121.369 14.294 121.467 14.021 121.663 13.797C121.859 13.573 122.129 13.3933 122.475 13.258C122.293 13.1553 122.146 13.0223 122.034 12.859C121.926 12.691 121.873 12.474 121.873 12.208C121.873 11.9933 121.95 11.767 122.104 11.529C122.262 11.291 122.505 11.0927 122.832 10.934C122.463 10.738 122.171 10.4767 121.957 10.15C121.742 9.81867 121.635 9.43367 121.635 8.995C121.635 8.63567 121.707 8.31133 121.852 8.022C122.001 7.73267 122.206 7.48767 122.468 7.287C122.729 7.08167 123.037 6.92533 123.392 6.818C123.746 6.71067 124.131 6.657 124.547 6.657C125.163 6.657 125.706 6.77833 126.178 7.021H128.292ZM131.109 7.973C131.338 7.56233 131.601 7.238 131.9 7C132.199 6.762 132.549 6.643 132.95 6.643C133.277 6.643 133.543 6.72 133.748 6.874L133.622 8.302C133.599 8.39533 133.561 8.46067 133.51 8.498C133.463 8.53067 133.398 8.547 133.314 8.547C133.239 8.547 133.132 8.53767 132.992 8.519C132.852 8.49567 132.721 8.484 132.6 8.484C132.423 8.484 132.264 8.50967 132.124 8.561C131.989 8.61233 131.867 8.68467 131.76 8.778C131.653 8.87133 131.555 8.98567 131.466 9.121C131.382 9.25633 131.303 9.41033 131.228 9.583V14H129.296V6.783H130.437C130.633 6.783 130.768 6.818 130.843 6.888C130.918 6.958 130.971 7.07933 131.004 7.252L131.109 7.973ZM138.987 9.541C138.987 9.34033 138.959 9.149 138.903 8.967C138.852 8.785 138.768 8.624 138.651 8.484C138.535 8.344 138.388 8.23433 138.21 8.155C138.033 8.071 137.821 8.029 137.573 8.029C137.111 8.029 136.75 8.15967 136.488 8.421C136.227 8.68233 136.057 9.05567 135.977 9.541H138.987ZM135.949 10.689C136.01 11.3657 136.201 11.8603 136.523 12.173C136.85 12.4857 137.275 12.642 137.797 12.642C138.063 12.642 138.292 12.6117 138.483 12.551C138.679 12.4857 138.85 12.4157 138.994 12.341C139.144 12.2617 139.277 12.1917 139.393 12.131C139.515 12.0657 139.634 12.033 139.75 12.033C139.9 12.033 140.016 12.089 140.1 12.201L140.66 12.901C140.455 13.139 140.229 13.3373 139.981 13.496C139.734 13.65 139.477 13.7737 139.211 13.867C138.945 13.9557 138.677 14.0163 138.406 14.049C138.136 14.0863 137.874 14.105 137.622 14.105C137.118 14.105 136.647 14.0233 136.208 13.86C135.774 13.692 135.394 13.447 135.067 13.125C134.745 12.7983 134.491 12.3947 134.304 11.914C134.118 11.4333 134.024 10.8757 134.024 10.241C134.024 9.751 134.104 9.289 134.262 8.855C134.426 8.421 134.659 8.043 134.962 7.721C135.266 7.399 135.634 7.14467 136.068 6.958C136.502 6.76667 136.992 6.671 137.538 6.671C138 6.671 138.425 6.74567 138.812 6.895C139.204 7.03967 139.54 7.252 139.82 7.532C140.105 7.812 140.324 8.15733 140.478 8.568C140.637 8.974 140.716 9.43833 140.716 9.961C140.716 10.1057 140.709 10.2247 140.695 10.318C140.681 10.4113 140.658 10.486 140.625 10.542C140.593 10.598 140.548 10.6377 140.492 10.661C140.436 10.6797 140.364 10.689 140.275 10.689H135.949ZM146.402 8.267C146.351 8.34633 146.297 8.40467 146.241 8.442C146.19 8.47467 146.118 8.491 146.024 8.491C145.931 8.491 145.835 8.46767 145.737 8.421C145.639 8.37433 145.53 8.32533 145.408 8.274C145.287 8.218 145.147 8.16667 144.988 8.12C144.834 8.07333 144.655 8.05 144.449 8.05C144.137 8.05 143.894 8.11533 143.721 8.246C143.549 8.372 143.462 8.54 143.462 8.75C143.462 8.89467 143.511 9.016 143.609 9.114C143.707 9.212 143.836 9.29833 143.994 9.373C144.158 9.443 144.342 9.51067 144.547 9.576C144.753 9.63667 144.963 9.70433 145.177 9.779C145.397 9.85367 145.609 9.94 145.814 10.038C146.02 10.136 146.202 10.2597 146.36 10.409C146.524 10.5537 146.654 10.731 146.752 10.941C146.85 11.1463 146.899 11.396 146.899 11.69C146.899 12.04 146.834 12.3643 146.703 12.663C146.577 12.957 146.391 13.2113 146.143 13.426C145.896 13.6407 145.588 13.8087 145.219 13.93C144.851 14.0513 144.426 14.112 143.945 14.112C143.698 14.112 143.453 14.0887 143.21 14.042C142.968 14 142.737 13.9393 142.517 13.86C142.298 13.776 142.093 13.6803 141.901 13.573C141.71 13.4657 141.544 13.349 141.404 13.223L141.852 12.502C141.904 12.418 141.967 12.3527 142.041 12.306C142.121 12.2593 142.221 12.236 142.342 12.236C142.459 12.236 142.566 12.2663 142.664 12.327C142.762 12.383 142.872 12.446 142.993 12.516C143.115 12.5813 143.257 12.6443 143.42 12.705C143.588 12.761 143.796 12.789 144.043 12.789C144.23 12.789 144.391 12.768 144.526 12.726C144.662 12.684 144.771 12.628 144.855 12.558C144.939 12.4833 145 12.4017 145.037 12.313C145.079 12.2197 145.1 12.124 145.1 12.026C145.1 11.8673 145.049 11.739 144.946 11.641C144.848 11.5383 144.718 11.4497 144.554 11.375C144.396 11.3003 144.211 11.2327 144.001 11.172C143.791 11.1113 143.577 11.0437 143.357 10.969C143.143 10.8943 142.93 10.8057 142.72 10.703C142.515 10.6003 142.331 10.472 142.167 10.318C142.009 10.1593 141.878 9.96567 141.775 9.737C141.677 9.50833 141.628 9.23067 141.628 8.904C141.628 8.60533 141.687 8.323 141.803 8.057C141.92 7.78633 142.095 7.54833 142.328 7.343C142.562 7.13767 142.851 6.97433 143.196 6.853C143.546 6.73167 143.95 6.671 144.407 6.671C144.921 6.671 145.387 6.755 145.807 6.923C146.227 7.091 146.573 7.31033 146.843 7.581L146.402 8.267ZM152.596 8.267C152.544 8.34633 152.491 8.40467 152.435 8.442C152.383 8.47467 152.311 8.491 152.218 8.491C152.124 8.491 152.029 8.46767 151.931 8.421C151.833 8.37433 151.723 8.32533 151.602 8.274C151.48 8.218 151.34 8.16667 151.182 8.12C151.028 8.07333 150.848 8.05 150.643 8.05C150.33 8.05 150.087 8.11533 149.915 8.246C149.742 8.372 149.656 8.54 149.656 8.75C149.656 8.89467 149.705 9.016 149.803 9.114C149.901 9.212 150.029 9.29833 150.188 9.373C150.351 9.443 150.535 9.51067 150.741 9.576C150.946 9.63667 151.156 9.70433 151.371 9.779C151.59 9.85367 151.802 9.94 152.008 10.038C152.213 10.136 152.395 10.2597 152.554 10.409C152.717 10.5537 152.848 10.731 152.946 10.941C153.044 11.1463 153.093 11.396 153.093 11.69C153.093 12.04 153.027 12.3643 152.897 12.663C152.771 12.957 152.584 13.2113 152.337 13.426C152.089 13.6407 151.781 13.8087 151.413 13.93C151.044 14.0513 150.619 14.112 150.139 14.112C149.891 14.112 149.646 14.0887 149.404 14.042C149.161 14 148.93 13.9393 148.711 13.86C148.491 13.776 148.286 13.6803 148.095 13.573C147.903 13.4657 147.738 13.349 147.598 13.223L148.046 12.502C148.097 12.418 148.16 12.3527 148.235 12.306C148.314 12.2593 148.414 12.236 148.536 12.236C148.652 12.236 148.76 12.2663 148.858 12.327C148.956 12.383 149.065 12.446 149.187 12.516C149.308 12.5813 149.45 12.6443 149.614 12.705C149.782 12.761 149.989 12.789 150.237 12.789C150.423 12.789 150.584 12.768 150.72 12.726C150.855 12.684 150.965 12.628 151.049 12.558C151.133 12.4833 151.193 12.4017 151.231 12.313C151.273 12.2197 151.294 12.124 151.294 12.026C151.294 11.8673 151.242 11.739 151.14 11.641C151.042 11.5383 150.911 11.4497 150.748 11.375C150.589 11.3003 150.405 11.2327 150.195 11.172C149.985 11.1113 149.77 11.0437 149.551 10.969C149.336 10.8943 149.124 10.8057 148.914 10.703C148.708 10.6003 148.524 10.472 148.361 10.318C148.202 10.1593 148.071 9.96567 147.969 9.737C147.871 9.50833 147.822 9.23067 147.822 8.904C147.822 8.60533 147.88 8.323 147.997 8.057C148.113 7.78633 148.288 7.54833 148.522 7.343C148.755 7.13767 149.044 6.97433 149.39 6.853C149.74 6.73167 150.143 6.671 150.601 6.671C151.114 6.671 151.581 6.755 152.001 6.923C152.421 7.091 152.766 7.31033 153.037 7.581L152.596 8.267Z" fill="#0D265E"/>
<path d="M75.08 31.152C75.152 31.152 75.214 31.18 75.266 31.236L75.77 31.788C75.418 32.204 74.988 32.526 74.48 32.754C73.976 32.982 73.368 33.096 72.656 33.096C72.032 33.096 71.466 32.988 70.958 32.772C70.454 32.556 70.022 32.254 69.662 31.866C69.306 31.478 69.03 31.014 68.834 30.474C68.638 29.934 68.54 29.34 68.54 28.692C68.54 28.044 68.642 27.45 68.846 26.91C69.054 26.37 69.344 25.906 69.716 25.518C70.088 25.13 70.532 24.828 71.048 24.612C71.568 24.396 72.142 24.288 72.77 24.288C73.382 24.288 73.926 24.388 74.402 24.588C74.878 24.788 75.292 25.054 75.644 25.386L75.224 25.98C75.196 26.024 75.16 26.06 75.116 26.088C75.076 26.116 75.022 26.13 74.954 26.13C74.878 26.13 74.788 26.092 74.684 26.016C74.584 25.94 74.45 25.856 74.282 25.764C74.118 25.668 73.914 25.582 73.67 25.506C73.426 25.43 73.122 25.392 72.758 25.392C72.33 25.392 71.938 25.468 71.582 25.62C71.226 25.768 70.918 25.984 70.658 26.268C70.402 26.548 70.202 26.894 70.058 27.306C69.918 27.714 69.848 28.176 69.848 28.692C69.848 29.216 69.922 29.682 70.07 30.09C70.218 30.498 70.422 30.844 70.682 31.128C70.942 31.412 71.248 31.628 71.6 31.776C71.952 31.924 72.332 31.998 72.74 31.998C72.988 31.998 73.21 31.984 73.406 31.956C73.606 31.924 73.788 31.878 73.952 31.818C74.12 31.758 74.278 31.682 74.426 31.59C74.574 31.494 74.72 31.38 74.864 31.248C74.896 31.22 74.93 31.198 74.966 31.182C75.002 31.162 75.04 31.152 75.08 31.152ZM79.295 26.808C79.743 26.808 80.147 26.882 80.507 27.03C80.871 27.174 81.179 27.384 81.431 27.66C81.687 27.932 81.883 28.262 82.019 28.65C82.155 29.034 82.223 29.466 82.223 29.946C82.223 30.426 82.155 30.86 82.019 31.248C81.883 31.636 81.687 31.966 81.431 32.238C81.179 32.51 80.871 32.72 80.507 32.868C80.147 33.012 79.743 33.084 79.295 33.084C78.843 33.084 78.435 33.012 78.071 32.868C77.711 32.72 77.403 32.51 77.147 32.238C76.891 31.966 76.693 31.636 76.553 31.248C76.417 30.86 76.349 30.426 76.349 29.946C76.349 29.466 76.417 29.034 76.553 28.65C76.693 28.262 76.891 27.932 77.147 27.66C77.403 27.384 77.711 27.174 78.071 27.03C78.435 26.882 78.843 26.808 79.295 26.808ZM79.295 32.172C79.871 32.172 80.301 31.978 80.585 31.59C80.869 31.202 81.011 30.656 81.011 29.952C81.011 29.248 80.869 28.702 80.585 28.314C80.301 27.922 79.871 27.726 79.295 27.726C78.711 27.726 78.275 27.922 77.987 28.314C77.703 28.702 77.561 29.248 77.561 29.952C77.561 30.656 77.703 31.202 77.987 31.59C78.275 31.978 78.711 32.172 79.295 32.172ZM83.529 33V26.904H84.231C84.395 26.904 84.497 26.982 84.537 27.138L84.621 27.72C84.845 27.452 85.093 27.234 85.365 27.066C85.641 26.894 85.963 26.808 86.331 26.808C86.735 26.808 87.063 26.92 87.315 27.144C87.567 27.364 87.751 27.664 87.867 28.044C87.955 27.828 88.069 27.642 88.209 27.486C88.349 27.33 88.505 27.202 88.677 27.102C88.849 27.002 89.031 26.928 89.223 26.88C89.419 26.832 89.617 26.808 89.817 26.808C90.141 26.808 90.429 26.86 90.681 26.964C90.937 27.064 91.153 27.212 91.329 27.408C91.505 27.604 91.639 27.846 91.731 28.134C91.823 28.422 91.869 28.75 91.869 29.118V33H90.693V29.118C90.693 28.662 90.593 28.318 90.393 28.086C90.197 27.854 89.909 27.738 89.529 27.738C89.361 27.738 89.201 27.768 89.049 27.828C88.897 27.884 88.763 27.97 88.647 28.086C88.535 28.202 88.445 28.346 88.377 28.518C88.313 28.69 88.281 28.89 88.281 29.118V33H87.105V29.118C87.105 28.646 87.011 28.298 86.823 28.074C86.635 27.85 86.359 27.738 85.995 27.738C85.743 27.738 85.509 27.804 85.293 27.936C85.077 28.068 84.879 28.248 84.699 28.476V33H83.529ZM94.6131 31.5C94.8051 31.752 95.0111 31.928 95.2311 32.028C95.4551 32.128 95.7051 32.178 95.9811 32.178C96.5171 32.178 96.9311 31.986 97.2231 31.602C97.5191 31.214 97.6671 30.65 97.6671 29.91C97.6671 29.522 97.6331 29.192 97.5651 28.92C97.5011 28.644 97.4051 28.42 97.2771 28.248C97.1531 28.072 96.9991 27.944 96.8151 27.864C96.6311 27.78 96.4231 27.738 96.1911 27.738C95.8511 27.738 95.5551 27.814 95.3031 27.966C95.0551 28.118 94.8251 28.334 94.6131 28.614V31.5ZM94.5531 27.816C94.6811 27.664 94.8171 27.526 94.9611 27.402C95.1091 27.274 95.2671 27.166 95.4351 27.078C95.6031 26.986 95.7811 26.916 95.9691 26.868C96.1611 26.816 96.3651 26.79 96.5811 26.79C96.9291 26.79 97.2431 26.858 97.5231 26.994C97.8071 27.13 98.0491 27.33 98.2491 27.594C98.4491 27.858 98.6031 28.184 98.7111 28.572C98.8231 28.96 98.8791 29.406 98.8791 29.91C98.8791 30.362 98.8171 30.782 98.6931 31.17C98.5731 31.554 98.3991 31.888 98.1711 32.172C97.9471 32.456 97.6711 32.68 97.3431 32.844C97.0191 33.004 96.6531 33.084 96.2451 33.084C95.8811 33.084 95.5691 33.024 95.3091 32.904C95.0491 32.784 94.8171 32.616 94.6131 32.4V35.046H93.4431V26.904H94.1451C94.3091 26.904 94.4111 26.982 94.4511 27.138L94.5531 27.816ZM101.393 24.144V33H100.217V24.144H101.393ZM107.102 29.274C107.102 29.042 107.068 28.828 107 28.632C106.936 28.436 106.84 28.266 106.712 28.122C106.584 27.978 106.428 27.866 106.244 27.786C106.06 27.706 105.848 27.666 105.608 27.666C105.116 27.666 104.728 27.808 104.444 28.092C104.164 28.376 103.986 28.77 103.91 29.274H107.102ZM108.068 32.13C107.924 32.298 107.758 32.444 107.57 32.568C107.382 32.688 107.182 32.786 106.97 32.862C106.758 32.938 106.538 32.994 106.31 33.03C106.086 33.066 105.864 33.084 105.644 33.084C105.224 33.084 104.834 33.014 104.474 32.874C104.118 32.73 103.808 32.522 103.544 32.25C103.284 31.974 103.08 31.634 102.932 31.23C102.788 30.822 102.716 30.354 102.716 29.826C102.716 29.402 102.782 29.008 102.914 28.644C103.046 28.276 103.234 27.956 103.478 27.684C103.726 27.412 104.028 27.198 104.384 27.042C104.74 26.886 105.14 26.808 105.584 26.808C105.956 26.808 106.298 26.87 106.61 26.994C106.926 27.114 107.198 27.29 107.426 27.522C107.654 27.754 107.832 28.04 107.96 28.38C108.092 28.72 108.158 29.108 108.158 29.544C108.158 29.724 108.138 29.846 108.098 29.91C108.058 29.97 107.984 30 107.876 30H103.88C103.892 30.364 103.944 30.682 104.036 30.954C104.128 31.222 104.254 31.446 104.414 31.626C104.578 31.806 104.772 31.94 104.996 32.028C105.22 32.116 105.47 32.16 105.746 32.16C106.006 32.16 106.23 32.13 106.418 32.07C106.61 32.01 106.774 31.946 106.91 31.878C107.05 31.806 107.166 31.74 107.258 31.68C107.354 31.62 107.438 31.59 107.51 31.59C107.606 31.59 107.68 31.626 107.732 31.698L108.068 32.13ZM111.277 33.096C110.785 33.096 110.405 32.958 110.137 32.682C109.873 32.406 109.741 32.012 109.741 31.5V27.852H109.033C108.965 27.852 108.907 27.832 108.859 27.792C108.815 27.748 108.793 27.684 108.793 27.6V27.126L109.783 26.988L110.047 25.17C110.063 25.102 110.093 25.05 110.137 25.014C110.185 24.974 110.245 24.954 110.317 24.954H110.911V27H112.639V27.852H110.911V31.422C110.911 31.662 110.969 31.842 111.085 31.962C111.205 32.078 111.357 32.136 111.541 32.136C111.649 32.136 111.741 32.122 111.817 32.094C111.897 32.066 111.965 32.036 112.021 32.004C112.077 31.968 112.125 31.936 112.165 31.908C112.205 31.88 112.241 31.866 112.273 31.866C112.313 31.866 112.343 31.876 112.363 31.896C112.387 31.912 112.411 31.94 112.435 31.98L112.783 32.544C112.591 32.72 112.363 32.856 112.099 32.952C111.835 33.048 111.561 33.096 111.277 33.096ZM117.719 29.274C117.719 29.042 117.685 28.828 117.617 28.632C117.553 28.436 117.457 28.266 117.329 28.122C117.201 27.978 117.045 27.866 116.861 27.786C116.677 27.706 116.465 27.666 116.225 27.666C115.733 27.666 115.345 27.808 115.061 28.092C114.781 28.376 114.603 28.77 114.527 29.274H117.719ZM118.685 32.13C118.541 32.298 118.375 32.444 118.187 32.568C117.999 32.688 117.799 32.786 117.587 32.862C117.375 32.938 117.155 32.994 116.927 33.03C116.703 33.066 116.481 33.084 116.261 33.084C115.841 33.084 115.451 33.014 115.091 32.874C114.735 32.73 114.425 32.522 114.161 32.25C113.901 31.974 113.697 31.634 113.549 31.23C113.405 30.822 113.333 30.354 113.333 29.826C113.333 29.402 113.399 29.008 113.531 28.644C113.663 28.276 113.851 27.956 114.095 27.684C114.343 27.412 114.645 27.198 115.001 27.042C115.357 26.886 115.757 26.808 116.201 26.808C116.573 26.808 116.915 26.87 117.227 26.994C117.543 27.114 117.815 27.29 118.043 27.522C118.271 27.754 118.449 28.04 118.577 28.38C118.709 28.72 118.775 29.108 118.775 29.544C118.775 29.724 118.755 29.846 118.715 29.91C118.675 29.97 118.601 30 118.493 30H114.497C114.509 30.364 114.561 30.682 114.653 30.954C114.745 31.222 114.871 31.446 115.031 31.626C115.195 31.806 115.389 31.94 115.613 32.028C115.837 32.116 116.087 32.16 116.363 32.16C116.623 32.16 116.847 32.13 117.035 32.07C117.227 32.01 117.391 31.946 117.527 31.878C117.667 31.806 117.783 31.74 117.875 31.68C117.971 31.62 118.055 31.59 118.127 31.59C118.223 31.59 118.297 31.626 118.349 31.698L118.685 32.13ZM124.976 33.096C124.484 33.096 124.104 32.958 123.836 32.682C123.572 32.406 123.44 32.012 123.44 31.5V27.852H122.732C122.664 27.852 122.606 27.832 122.558 27.792C122.514 27.748 122.492 27.684 122.492 27.6V27.126L123.482 26.988L123.746 25.17C123.762 25.102 123.792 25.05 123.836 25.014C123.884 24.974 123.944 24.954 124.016 24.954H124.61V27H126.338V27.852H124.61V31.422C124.61 31.662 124.668 31.842 124.784 31.962C124.904 32.078 125.056 32.136 125.24 32.136C125.348 32.136 125.44 32.122 125.516 32.094C125.596 32.066 125.664 32.036 125.72 32.004C125.776 31.968 125.824 31.936 125.864 31.908C125.904 31.88 125.94 31.866 125.972 31.866C126.012 31.866 126.042 31.876 126.062 31.896C126.086 31.912 126.11 31.94 126.134 31.98L126.482 32.544C126.29 32.72 126.062 32.856 125.798 32.952C125.534 33.048 125.26 33.096 124.976 33.096ZM128.586 27.678C128.842 27.418 129.124 27.208 129.432 27.048C129.744 26.888 130.102 26.808 130.506 26.808C130.842 26.808 131.136 26.864 131.388 26.976C131.644 27.088 131.858 27.246 132.03 27.45C132.202 27.65 132.332 27.892 132.42 28.176C132.508 28.46 132.552 28.774 132.552 29.118V33H131.376V29.118C131.376 28.682 131.276 28.344 131.076 28.104C130.876 27.86 130.57 27.738 130.158 27.738C129.858 27.738 129.576 27.81 129.312 27.954C129.052 28.094 128.81 28.286 128.586 28.53V33H127.416V24.144H128.586V27.678ZM138.169 29.274C138.169 29.042 138.135 28.828 138.067 28.632C138.003 28.436 137.907 28.266 137.779 28.122C137.651 27.978 137.495 27.866 137.311 27.786C137.127 27.706 136.915 27.666 136.675 27.666C136.183 27.666 135.795 27.808 135.511 28.092C135.231 28.376 135.053 28.77 134.977 29.274H138.169ZM139.135 32.13C138.991 32.298 138.825 32.444 138.637 32.568C138.449 32.688 138.249 32.786 138.037 32.862C137.825 32.938 137.605 32.994 137.377 33.03C137.153 33.066 136.931 33.084 136.711 33.084C136.291 33.084 135.901 33.014 135.541 32.874C135.185 32.73 134.875 32.522 134.611 32.25C134.351 31.974 134.147 31.634 133.999 31.23C133.855 30.822 133.783 30.354 133.783 29.826C133.783 29.402 133.849 29.008 133.981 28.644C134.113 28.276 134.301 27.956 134.545 27.684C134.793 27.412 135.095 27.198 135.451 27.042C135.807 26.886 136.207 26.808 136.651 26.808C137.023 26.808 137.365 26.87 137.677 26.994C137.993 27.114 138.265 27.29 138.493 27.522C138.721 27.754 138.899 28.04 139.027 28.38C139.159 28.72 139.225 29.108 139.225 29.544C139.225 29.724 139.205 29.846 139.165 29.91C139.125 29.97 139.051 30 138.943 30H134.947C134.959 30.364 135.011 30.682 135.103 30.954C135.195 31.222 135.321 31.446 135.481 31.626C135.645 31.806 135.839 31.94 136.063 32.028C136.287 32.116 136.537 32.16 136.813 32.16C137.073 32.16 137.297 32.13 137.485 32.07C137.677 32.01 137.841 31.946 137.977 31.878C138.117 31.806 138.233 31.74 138.325 31.68C138.421 31.62 138.505 31.59 138.577 31.59C138.673 31.59 138.747 31.626 138.799 31.698L139.135 32.13ZM145.425 33.096C144.933 33.096 144.553 32.958 144.285 32.682C144.021 32.406 143.889 32.012 143.889 31.5V27.852H143.181C143.113 27.852 143.055 27.832 143.007 27.792C142.963 27.748 142.941 27.684 142.941 27.6V27.126L143.931 26.988L144.195 25.17C144.211 25.102 144.241 25.05 144.285 25.014C144.333 24.974 144.393 24.954 144.465 24.954H145.059V27H146.787V27.852H145.059V31.422C145.059 31.662 145.117 31.842 145.233 31.962C145.353 32.078 145.505 32.136 145.689 32.136C145.797 32.136 145.889 32.122 145.965 32.094C146.045 32.066 146.113 32.036 146.169 32.004C146.225 31.968 146.273 31.936 146.313 31.908C146.353 31.88 146.389 31.866 146.421 31.866C146.461 31.866 146.491 31.876 146.511 31.896C146.535 31.912 146.559 31.94 146.583 31.98L146.931 32.544C146.739 32.72 146.511 32.856 146.247 32.952C145.983 33.048 145.709 33.096 145.425 33.096ZM151.141 30.294C150.665 30.31 150.261 30.348 149.929 30.408C149.597 30.464 149.327 30.54 149.119 30.636C148.911 30.732 148.761 30.846 148.669 30.978C148.577 31.106 148.531 31.25 148.531 31.41C148.531 31.562 148.555 31.694 148.603 31.806C148.655 31.914 148.723 32.004 148.807 32.076C148.895 32.144 148.997 32.194 149.113 32.226C149.229 32.258 149.355 32.274 149.491 32.274C149.671 32.274 149.835 32.256 149.983 32.22C150.135 32.184 150.277 32.134 150.409 32.07C150.541 32.002 150.667 31.92 150.787 31.824C150.907 31.728 151.025 31.618 151.141 31.494V30.294ZM147.709 27.756C148.049 27.432 148.417 27.19 148.813 27.03C149.213 26.87 149.651 26.79 150.127 26.79C150.475 26.79 150.783 26.848 151.051 26.964C151.319 27.076 151.545 27.234 151.729 27.438C151.913 27.642 152.051 27.886 152.143 28.17C152.239 28.454 152.287 28.768 152.287 29.112V33H151.765C151.649 33 151.561 32.982 151.501 32.946C151.441 32.906 151.393 32.834 151.357 32.73L151.231 32.196C151.075 32.34 150.921 32.468 150.769 32.58C150.617 32.688 150.457 32.782 150.289 32.862C150.125 32.938 149.949 32.996 149.761 33.036C149.573 33.076 149.365 33.096 149.137 33.096C148.897 33.096 148.671 33.064 148.459 33C148.251 32.932 148.069 32.83 147.913 32.694C147.757 32.558 147.633 32.388 147.541 32.184C147.453 31.98 147.409 31.742 147.409 31.47C147.409 31.23 147.473 31 147.601 30.78C147.733 30.556 147.945 30.356 148.237 30.18C148.533 30.004 148.917 29.86 149.389 29.748C149.865 29.636 150.449 29.572 151.141 29.556V29.112C151.141 28.652 151.043 28.308 150.847 28.08C150.651 27.852 150.363 27.738 149.983 27.738C149.727 27.738 149.511 27.77 149.335 27.834C149.163 27.898 149.013 27.97 148.885 28.05C148.761 28.126 148.651 28.196 148.555 28.26C148.463 28.324 148.367 28.356 148.267 28.356C148.187 28.356 148.117 28.334 148.057 28.29C148.001 28.246 147.955 28.194 147.919 28.134L147.709 27.756ZM157.447 27.954C157.415 28.006 157.381 28.044 157.345 28.068C157.309 28.088 157.263 28.098 157.207 28.098C157.143 28.098 157.071 28.076 156.991 28.032C156.915 27.988 156.821 27.94 156.709 27.888C156.601 27.836 156.473 27.788 156.325 27.744C156.177 27.7 156.001 27.678 155.797 27.678C155.629 27.678 155.475 27.7 155.335 27.744C155.199 27.784 155.083 27.842 154.987 27.918C154.891 27.99 154.817 28.078 154.765 28.182C154.713 28.282 154.687 28.39 154.687 28.506C154.687 28.658 154.731 28.784 154.819 28.884C154.911 28.984 155.029 29.07 155.173 29.142C155.321 29.214 155.487 29.28 155.671 29.34C155.859 29.396 156.049 29.456 156.241 29.52C156.437 29.584 156.627 29.658 156.811 29.742C156.999 29.822 157.165 29.924 157.309 30.048C157.457 30.168 157.575 30.314 157.663 30.486C157.755 30.658 157.801 30.868 157.801 31.116C157.801 31.4 157.749 31.664 157.645 31.908C157.545 32.148 157.395 32.356 157.195 32.532C156.999 32.708 156.755 32.846 156.463 32.946C156.171 33.046 155.837 33.096 155.461 33.096C155.041 33.096 154.653 33.026 154.297 32.886C153.941 32.746 153.643 32.568 153.403 32.352L153.679 31.902C153.711 31.846 153.751 31.804 153.799 31.776C153.847 31.744 153.911 31.728 153.991 31.728C154.067 31.728 154.145 31.756 154.225 31.812C154.305 31.868 154.401 31.93 154.513 31.998C154.625 32.062 154.761 32.122 154.921 32.178C155.081 32.23 155.281 32.256 155.521 32.256C155.721 32.256 155.895 32.232 156.043 32.184C156.191 32.132 156.313 32.064 156.409 31.98C156.509 31.892 156.583 31.792 156.631 31.68C156.679 31.568 156.703 31.45 156.703 31.326C156.703 31.166 156.657 31.034 156.565 30.93C156.477 30.822 156.359 30.73 156.211 30.654C156.067 30.578 155.901 30.512 155.713 30.456C155.525 30.4 155.333 30.34 155.137 30.276C154.941 30.212 154.749 30.138 154.561 30.054C154.373 29.97 154.205 29.864 154.057 29.736C153.913 29.608 153.795 29.452 153.703 29.268C153.615 29.084 153.571 28.86 153.571 28.596C153.571 28.36 153.619 28.134 153.715 27.918C153.815 27.702 153.957 27.512 154.141 27.348C154.329 27.184 154.559 27.054 154.831 26.958C155.107 26.858 155.421 26.808 155.773 26.808C156.177 26.808 156.541 26.872 156.865 27C157.193 27.128 157.473 27.304 157.705 27.528L157.447 27.954ZM160.238 24.144V29.322H160.514C160.598 29.322 160.668 29.31 160.724 29.286C160.78 29.262 160.838 29.214 160.898 29.142L162.722 27.132C162.778 27.056 162.84 27 162.908 26.964C162.976 26.924 163.062 26.904 163.166 26.904H164.234L162.08 29.262C161.964 29.41 161.84 29.524 161.708 29.604C161.784 29.656 161.85 29.716 161.906 29.784C161.966 29.852 162.024 29.926 162.08 30.006L164.372 33H163.322C163.226 33 163.142 32.984 163.07 32.952C163.002 32.92 162.94 32.862 162.884 32.778L161 30.33C160.94 30.238 160.88 30.18 160.82 30.156C160.76 30.128 160.67 30.114 160.55 30.114H160.238V33H159.068V24.144H160.238ZM168.838 27.954C168.806 28.006 168.772 28.044 168.736 28.068C168.7 28.088 168.654 28.098 168.598 28.098C168.534 28.098 168.462 28.076 168.382 28.032C168.306 27.988 168.212 27.94 168.1 27.888C167.992 27.836 167.864 27.788 167.716 27.744C167.568 27.7 167.392 27.678 167.188 27.678C167.02 27.678 166.866 27.7 166.726 27.744C166.59 27.784 166.474 27.842 166.378 27.918C166.282 27.99 166.208 28.078 166.156 28.182C166.104 28.282 166.078 28.39 166.078 28.506C166.078 28.658 166.122 28.784 166.21 28.884C166.302 28.984 166.42 29.07 166.564 29.142C166.712 29.214 166.878 29.28 167.062 29.34C167.25 29.396 167.44 29.456 167.632 29.52C167.828 29.584 168.018 29.658 168.202 29.742C168.39 29.822 168.556 29.924 168.7 30.048C168.848 30.168 168.966 30.314 169.054 30.486C169.146 30.658 169.192 30.868 169.192 31.116C169.192 31.4 169.14 31.664 169.036 31.908C168.936 32.148 168.786 32.356 168.586 32.532C168.39 32.708 168.146 32.846 167.854 32.946C167.562 33.046 167.228 33.096 166.852 33.096C166.432 33.096 166.044 33.026 165.688 32.886C165.332 32.746 165.034 32.568 164.794 32.352L165.07 31.902C165.102 31.846 165.142 31.804 165.19 31.776C165.238 31.744 165.302 31.728 165.382 31.728C165.458 31.728 165.536 31.756 165.616 31.812C165.696 31.868 165.792 31.93 165.904 31.998C166.016 32.062 166.152 32.122 166.312 32.178C166.472 32.23 166.672 32.256 166.912 32.256C167.112 32.256 167.286 32.232 167.434 32.184C167.582 32.132 167.704 32.064 167.8 31.98C167.9 31.892 167.974 31.792 168.022 31.68C168.07 31.568 168.094 31.45 168.094 31.326C168.094 31.166 168.048 31.034 167.956 30.93C167.868 30.822 167.75 30.73 167.602 30.654C167.458 30.578 167.292 30.512 167.104 30.456C166.916 30.4 166.724 30.34 166.528 30.276C166.332 30.212 166.14 30.138 165.952 30.054C165.764 29.97 165.596 29.864 165.448 29.736C165.304 29.608 165.186 29.452 165.094 29.268C165.006 29.084 164.962 28.86 164.962 28.596C164.962 28.36 165.01 28.134 165.106 27.918C165.206 27.702 165.348 27.512 165.532 27.348C165.72 27.184 165.95 27.054 166.222 26.958C166.498 26.858 166.812 26.808 167.164 26.808C167.568 26.808 167.932 26.872 168.256 27C168.584 27.128 168.864 27.304 169.096 27.528L168.838 27.954ZM174.664 31.5C174.856 31.752 175.064 31.928 175.288 32.028C175.512 32.128 175.756 32.178 176.02 32.178C176.564 32.178 176.982 31.984 177.274 31.596C177.57 31.208 177.718 30.622 177.718 29.838C177.718 29.114 177.588 28.584 177.328 28.248C177.068 27.908 176.7 27.738 176.224 27.738C175.888 27.738 175.596 27.814 175.348 27.966C175.104 28.118 174.876 28.334 174.664 28.614V31.5ZM174.664 27.744C174.916 27.464 175.202 27.238 175.522 27.066C175.842 26.894 176.206 26.808 176.614 26.808C176.97 26.808 177.29 26.878 177.574 27.018C177.862 27.154 178.106 27.352 178.306 27.612C178.506 27.868 178.66 28.18 178.768 28.548C178.876 28.916 178.93 29.332 178.93 29.796C178.93 30.288 178.868 30.736 178.744 31.14C178.624 31.544 178.45 31.89 178.222 32.178C177.998 32.466 177.724 32.69 177.4 32.85C177.076 33.006 176.712 33.084 176.308 33.084C176.112 33.084 175.932 33.064 175.768 33.024C175.604 32.988 175.452 32.934 175.312 32.862C175.176 32.79 175.05 32.702 174.934 32.598C174.818 32.494 174.708 32.376 174.604 32.244L174.55 32.754C174.518 32.918 174.418 33 174.25 33H173.494V24.144H174.664V27.744ZM184.27 29.274C184.27 29.042 184.236 28.828 184.168 28.632C184.104 28.436 184.008 28.266 183.88 28.122C183.752 27.978 183.596 27.866 183.412 27.786C183.228 27.706 183.016 27.666 182.776 27.666C182.284 27.666 181.896 27.808 181.612 28.092C181.332 28.376 181.154 28.77 181.078 29.274H184.27ZM185.236 32.13C185.092 32.298 184.926 32.444 184.738 32.568C184.55 32.688 184.35 32.786 184.138 32.862C183.926 32.938 183.706 32.994 183.478 33.03C183.254 33.066 183.032 33.084 182.812 33.084C182.392 33.084 182.002 33.014 181.642 32.874C181.286 32.73 180.976 32.522 180.712 32.25C180.452 31.974 180.248 31.634 180.1 31.23C179.956 30.822 179.884 30.354 179.884 29.826C179.884 29.402 179.95 29.008 180.082 28.644C180.214 28.276 180.402 27.956 180.646 27.684C180.894 27.412 181.196 27.198 181.552 27.042C181.908 26.886 182.308 26.808 182.752 26.808C183.124 26.808 183.466 26.87 183.778 26.994C184.094 27.114 184.366 27.29 184.594 27.522C184.822 27.754 185 28.04 185.128 28.38C185.26 28.72 185.326 29.108 185.326 29.544C185.326 29.724 185.306 29.846 185.266 29.91C185.226 29.97 185.152 30 185.044 30H181.048C181.06 30.364 181.112 30.682 181.204 30.954C181.296 31.222 181.422 31.446 181.582 31.626C181.746 31.806 181.94 31.94 182.164 32.028C182.388 32.116 182.638 32.16 182.914 32.16C183.174 32.16 183.398 32.13 183.586 32.07C183.778 32.01 183.942 31.946 184.078 31.878C184.218 31.806 184.334 31.74 184.426 31.68C184.522 31.62 184.606 31.59 184.678 31.59C184.774 31.59 184.848 31.626 184.9 31.698L185.236 32.13ZM187.784 24.144V33H186.608V24.144H187.784ZM192.053 26.808C192.501 26.808 192.905 26.882 193.265 27.03C193.629 27.174 193.937 27.384 194.189 27.66C194.445 27.932 194.641 28.262 194.777 28.65C194.913 29.034 194.981 29.466 194.981 29.946C194.981 30.426 194.913 30.86 194.777 31.248C194.641 31.636 194.445 31.966 194.189 32.238C193.937 32.51 193.629 32.72 193.265 32.868C192.905 33.012 192.501 33.084 192.053 33.084C191.601 33.084 191.193 33.012 190.829 32.868C190.469 32.72 190.161 32.51 189.905 32.238C189.649 31.966 189.451 31.636 189.311 31.248C189.175 30.86 189.107 30.426 189.107 29.946C189.107 29.466 189.175 29.034 189.311 28.65C189.451 28.262 189.649 27.932 189.905 27.66C190.161 27.384 190.469 27.174 190.829 27.03C191.193 26.882 191.601 26.808 192.053 26.808ZM192.053 32.172C192.629 32.172 193.059 31.978 193.343 31.59C193.627 31.202 193.769 30.656 193.769 29.952C193.769 29.248 193.627 28.702 193.343 28.314C193.059 27.922 192.629 27.726 192.053 27.726C191.469 27.726 191.033 27.922 190.745 28.314C190.461 28.702 190.319 29.248 190.319 29.952C190.319 30.656 190.461 31.202 190.745 31.59C191.033 31.978 191.469 32.172 192.053 32.172ZM204.671 26.904L202.709 33H201.773C201.661 33 201.585 32.926 201.545 32.778L200.261 28.806C200.229 28.706 200.201 28.608 200.177 28.512C200.153 28.412 200.131 28.312 200.111 28.212C200.075 28.42 200.025 28.622 199.961 28.818L198.659 32.778C198.619 32.926 198.533 33 198.401 33H197.513L195.545 26.904H196.469C196.561 26.904 196.637 26.926 196.697 26.97C196.761 27.014 196.803 27.07 196.823 27.138L197.921 30.882C197.957 31.034 197.989 31.182 198.017 31.326C198.045 31.47 198.071 31.614 198.095 31.758C198.131 31.614 198.169 31.47 198.209 31.326C198.253 31.182 198.297 31.034 198.341 30.882L199.559 27.114C199.579 27.046 199.617 26.992 199.673 26.952C199.729 26.908 199.797 26.886 199.877 26.886H200.387C200.475 26.886 200.547 26.908 200.603 26.952C200.663 26.992 200.703 27.046 200.723 27.114L201.911 30.882C201.955 31.034 201.997 31.184 202.037 31.332C202.077 31.476 202.113 31.622 202.145 31.77C202.169 31.626 202.197 31.482 202.229 31.338C202.261 31.19 202.297 31.038 202.337 30.882L203.453 27.138C203.473 27.07 203.513 27.014 203.573 26.97C203.637 26.926 203.709 26.904 203.789 26.904H204.671ZM211.727 30.294C211.251 30.31 210.847 30.348 210.515 30.408C210.183 30.464 209.913 30.54 209.705 30.636C209.497 30.732 209.347 30.846 209.255 30.978C209.163 31.106 209.117 31.25 209.117 31.41C209.117 31.562 209.141 31.694 209.189 31.806C209.241 31.914 209.309 32.004 209.393 32.076C209.481 32.144 209.583 32.194 209.699 32.226C209.815 32.258 209.941 32.274 210.077 32.274C210.257 32.274 210.421 32.256 210.569 32.22C210.721 32.184 210.863 32.134 210.995 32.07C211.127 32.002 211.253 31.92 211.373 31.824C211.493 31.728 211.611 31.618 211.727 31.494V30.294ZM208.295 27.756C208.635 27.432 209.003 27.19 209.399 27.03C209.799 26.87 210.237 26.79 210.713 26.79C211.061 26.79 211.369 26.848 211.637 26.964C211.905 27.076 212.131 27.234 212.315 27.438C212.499 27.642 212.637 27.886 212.729 28.17C212.825 28.454 212.873 28.768 212.873 29.112V33H212.351C212.235 33 212.147 32.982 212.087 32.946C212.027 32.906 211.979 32.834 211.943 32.73L211.817 32.196C211.661 32.34 211.507 32.468 211.355 32.58C211.203 32.688 211.043 32.782 210.875 32.862C210.711 32.938 210.535 32.996 210.347 33.036C210.159 33.076 209.951 33.096 209.723 33.096C209.483 33.096 209.257 33.064 209.045 33C208.837 32.932 208.655 32.83 208.499 32.694C208.343 32.558 208.219 32.388 208.127 32.184C208.039 31.98 207.995 31.742 207.995 31.47C207.995 31.23 208.059 31 208.187 30.78C208.319 30.556 208.531 30.356 208.823 30.18C209.119 30.004 209.503 29.86 209.975 29.748C210.451 29.636 211.035 29.572 211.727 29.556V29.112C211.727 28.652 211.629 28.308 211.433 28.08C211.237 27.852 210.949 27.738 210.569 27.738C210.313 27.738 210.097 27.77 209.921 27.834C209.749 27.898 209.599 27.97 209.471 28.05C209.347 28.126 209.237 28.196 209.141 28.26C209.049 28.324 208.953 28.356 208.853 28.356C208.773 28.356 208.703 28.334 208.643 28.29C208.587 28.246 208.541 28.194 208.505 28.134L208.295 27.756ZM215.537 27.75C215.669 27.61 215.807 27.482 215.951 27.366C216.095 27.25 216.247 27.152 216.407 27.072C216.571 26.988 216.745 26.924 216.929 26.88C217.117 26.832 217.317 26.808 217.529 26.808C217.865 26.808 218.159 26.864 218.411 26.976C218.667 27.088 218.881 27.246 219.053 27.45C219.225 27.65 219.355 27.892 219.443 28.176C219.531 28.46 219.575 28.774 219.575 29.118V33H218.399V29.118C218.399 28.682 218.299 28.344 218.099 28.104C217.899 27.86 217.593 27.738 217.181 27.738C216.881 27.738 216.599 27.81 216.335 27.954C216.075 28.094 215.833 28.286 215.609 28.53V33H214.439V26.904H215.141C215.305 26.904 215.407 26.982 215.447 27.138L215.537 27.75ZM225.084 28.38C224.892 28.128 224.684 27.952 224.46 27.852C224.24 27.752 223.992 27.702 223.716 27.702C223.18 27.702 222.764 27.896 222.468 28.284C222.176 28.668 222.03 29.23 222.03 29.97C222.03 30.358 222.062 30.69 222.126 30.966C222.194 31.238 222.29 31.462 222.414 31.638C222.542 31.81 222.698 31.938 222.882 32.022C223.066 32.102 223.274 32.142 223.506 32.142C223.846 32.142 224.14 32.066 224.388 31.914C224.636 31.762 224.868 31.548 225.084 31.272V28.38ZM226.26 24.144V33H225.552C225.388 33 225.286 32.922 225.246 32.766L225.144 32.064C224.884 32.372 224.588 32.62 224.256 32.808C223.928 32.992 223.548 33.084 223.116 33.084C222.768 33.084 222.452 33.016 222.168 32.88C221.888 32.744 221.648 32.546 221.448 32.286C221.248 32.022 221.094 31.696 220.986 31.308C220.878 30.92 220.824 30.474 220.824 29.97C220.824 29.518 220.884 29.098 221.004 28.71C221.124 28.322 221.298 27.986 221.526 27.702C221.754 27.418 222.03 27.196 222.354 27.036C222.678 26.872 223.044 26.79 223.452 26.79C223.82 26.79 224.132 26.85 224.388 26.97C224.648 27.09 224.88 27.26 225.084 27.48V24.144H226.26ZM232.127 24.144V33H230.951V24.144H232.127ZM237.837 29.274C237.837 29.042 237.803 28.828 237.735 28.632C237.671 28.436 237.575 28.266 237.447 28.122C237.319 27.978 237.163 27.866 236.979 27.786C236.795 27.706 236.583 27.666 236.343 27.666C235.851 27.666 235.463 27.808 235.179 28.092C234.899 28.376 234.721 28.77 234.645 29.274H237.837ZM238.803 32.13C238.659 32.298 238.493 32.444 238.305 32.568C238.117 32.688 237.917 32.786 237.705 32.862C237.493 32.938 237.273 32.994 237.045 33.03C236.821 33.066 236.599 33.084 236.379 33.084C235.959 33.084 235.569 33.014 235.209 32.874C234.853 32.73 234.543 32.522 234.279 32.25C234.019 31.974 233.815 31.634 233.667 31.23C233.523 30.822 233.451 30.354 233.451 29.826C233.451 29.402 233.517 29.008 233.649 28.644C233.781 28.276 233.969 27.956 234.213 27.684C234.461 27.412 234.763 27.198 235.119 27.042C235.475 26.886 235.875 26.808 236.319 26.808C236.691 26.808 237.033 26.87 237.345 26.994C237.661 27.114 237.933 27.29 238.161 27.522C238.389 27.754 238.567 28.04 238.695 28.38C238.827 28.72 238.893 29.108 238.893 29.544C238.893 29.724 238.873 29.846 238.833 29.91C238.793 29.97 238.719 30 238.611 30H234.615C234.627 30.364 234.679 30.682 234.771 30.954C234.863 31.222 234.989 31.446 235.149 31.626C235.313 31.806 235.507 31.94 235.731 32.028C235.955 32.116 236.205 32.16 236.481 32.16C236.741 32.16 236.965 32.13 237.153 32.07C237.345 32.01 237.509 31.946 237.645 31.878C237.785 31.806 237.901 31.74 237.993 31.68C238.089 31.62 238.173 31.59 238.245 31.59C238.341 31.59 238.415 31.626 238.467 31.698L238.803 32.13ZM245.302 26.904L242.83 33H241.774L239.302 26.904H240.268C240.36 26.904 240.436 26.926 240.496 26.97C240.556 27.014 240.596 27.07 240.616 27.138L242.074 30.882C242.126 31.038 242.17 31.194 242.206 31.35C242.246 31.502 242.282 31.654 242.314 31.806C242.346 31.654 242.382 31.502 242.422 31.35C242.462 31.198 242.51 31.042 242.566 30.882L244.042 27.138C244.066 27.07 244.108 27.014 244.168 26.97C244.228 26.926 244.3 26.904 244.384 26.904H245.302ZM250.094 29.274C250.094 29.042 250.06 28.828 249.992 28.632C249.928 28.436 249.832 28.266 249.704 28.122C249.576 27.978 249.42 27.866 249.236 27.786C249.052 27.706 248.84 27.666 248.6 27.666C248.108 27.666 247.72 27.808 247.436 28.092C247.156 28.376 246.978 28.77 246.902 29.274H250.094ZM251.06 32.13C250.916 32.298 250.75 32.444 250.562 32.568C250.374 32.688 250.174 32.786 249.962 32.862C249.75 32.938 249.53 32.994 249.302 33.03C249.078 33.066 248.856 33.084 248.636 33.084C248.216 33.084 247.826 33.014 247.466 32.874C247.11 32.73 246.8 32.522 246.536 32.25C246.276 31.974 246.072 31.634 245.924 31.23C245.78 30.822 245.708 30.354 245.708 29.826C245.708 29.402 245.774 29.008 245.906 28.644C246.038 28.276 246.226 27.956 246.47 27.684C246.718 27.412 247.02 27.198 247.376 27.042C247.732 26.886 248.132 26.808 248.576 26.808C248.948 26.808 249.29 26.87 249.602 26.994C249.918 27.114 250.19 27.29 250.418 27.522C250.646 27.754 250.824 28.04 250.952 28.38C251.084 28.72 251.15 29.108 251.15 29.544C251.15 29.724 251.13 29.846 251.09 29.91C251.05 29.97 250.976 30 250.868 30H246.872C246.884 30.364 246.936 30.682 247.028 30.954C247.12 31.222 247.246 31.446 247.406 31.626C247.57 31.806 247.764 31.94 247.988 32.028C248.212 32.116 248.462 32.16 248.738 32.16C248.998 32.16 249.222 32.13 249.41 32.07C249.602 32.01 249.766 31.946 249.902 31.878C250.042 31.806 250.158 31.74 250.25 31.68C250.346 31.62 250.43 31.59 250.502 31.59C250.598 31.59 250.672 31.626 250.724 31.698L251.06 32.13ZM253.608 24.144V33H252.432V24.144H253.608ZM263.384 26.904V33H262.682C262.522 33 262.418 32.922 262.37 32.766L262.286 32.154C262.154 32.294 262.016 32.422 261.872 32.538C261.728 32.654 261.574 32.754 261.41 32.838C261.246 32.918 261.072 32.98 260.888 33.024C260.704 33.072 260.506 33.096 260.294 33.096C259.958 33.096 259.662 33.04 259.406 32.928C259.154 32.816 258.942 32.66 258.77 32.46C258.598 32.256 258.468 32.012 258.38 31.728C258.292 31.444 258.248 31.13 258.248 30.786V26.904H259.424V30.786C259.424 31.222 259.524 31.562 259.724 31.806C259.924 32.046 260.23 32.166 260.642 32.166C260.942 32.166 261.222 32.096 261.482 31.956C261.742 31.812 261.986 31.616 262.214 31.368V26.904H263.384ZM266.187 31.5C266.379 31.752 266.585 31.928 266.805 32.028C267.029 32.128 267.279 32.178 267.555 32.178C268.091 32.178 268.505 31.986 268.797 31.602C269.093 31.214 269.241 30.65 269.241 29.91C269.241 29.522 269.207 29.192 269.139 28.92C269.075 28.644 268.979 28.42 268.851 28.248C268.727 28.072 268.573 27.944 268.389 27.864C268.205 27.78 267.997 27.738 267.765 27.738C267.425 27.738 267.129 27.814 266.877 27.966C266.629 28.118 266.399 28.334 266.187 28.614V31.5ZM266.127 27.816C266.255 27.664 266.391 27.526 266.535 27.402C266.683 27.274 266.841 27.166 267.009 27.078C267.177 26.986 267.355 26.916 267.543 26.868C267.735 26.816 267.939 26.79 268.155 26.79C268.503 26.79 268.817 26.858 269.097 26.994C269.381 27.13 269.623 27.33 269.823 27.594C270.023 27.858 270.177 28.184 270.285 28.572C270.397 28.96 270.453 29.406 270.453 29.91C270.453 30.362 270.391 30.782 270.267 31.17C270.147 31.554 269.973 31.888 269.745 32.172C269.521 32.456 269.245 32.68 268.917 32.844C268.593 33.004 268.227 33.084 267.819 33.084C267.455 33.084 267.143 33.024 266.883 32.904C266.623 32.784 266.391 32.616 266.187 32.4V35.046H265.017V26.904H265.719C265.883 26.904 265.985 26.982 266.025 27.138L266.127 27.816ZM273.141 24.384V27.816C273.141 27.996 273.137 28.172 273.129 28.344C273.121 28.516 273.109 28.69 273.093 28.866C273.081 29.038 273.065 29.216 273.045 29.4C273.025 29.584 273.003 29.778 272.979 29.982H272.187C272.163 29.778 272.141 29.584 272.121 29.4C272.101 29.216 272.083 29.038 272.067 28.866C272.055 28.69 272.045 28.516 272.037 28.344C272.029 28.172 272.025 27.996 272.025 27.816V24.384H273.141ZM271.773 32.298C271.773 32.19 271.793 32.088 271.833 31.992C271.873 31.896 271.929 31.812 272.001 31.74C272.073 31.668 272.157 31.612 272.253 31.572C272.349 31.528 272.453 31.506 272.565 31.506C272.673 31.506 272.775 31.528 272.871 31.572C272.967 31.612 273.051 31.668 273.123 31.74C273.195 31.812 273.251 31.896 273.291 31.992C273.335 32.088 273.357 32.19 273.357 32.298C273.357 32.41 273.335 32.514 273.291 32.61C273.251 32.706 273.195 32.79 273.123 32.862C273.051 32.934 272.967 32.99 272.871 33.03C272.775 33.07 272.673 33.09 272.565 33.09C272.453 33.09 272.349 33.07 272.253 33.03C272.157 32.99 272.073 32.934 272.001 32.862C271.929 32.79 271.873 32.706 271.833 32.61C271.793 32.514 271.773 32.41 271.773 32.298Z" fill="#14398C"/>
<rect x="68" y="43" width="12" height="12.0029" rx="5" fill="#1B47C3"/>
<g clip-path="url(#clip0_1_4751)">
<path d="M75.2694 50.0752C76.3946 50.0752 77.3067 49.0979 77.3067 47.8924C77.3067 46.687 76.3946 45.7097 75.2694 45.7097V50.0752ZM71.0201 50.0752H75.2694V45.7097H71.0201V50.0752Z" fill="white"/>
<path d="M75.2985 47.0817H71.3402C70.9384 47.0817 70.6126 47.4307 70.6126 47.8612C70.6126 48.2917 70.9384 48.6408 71.3402 48.6408H75.2985C75.7004 48.6408 76.0261 48.2917 76.0261 47.8612C76.0261 47.4307 75.7004 47.0817 75.2985 47.0817Z" fill="#1B47C3"/>
<path d="M74.7555 52.2699C74.7555 52.2699 73.1145 50.5334 71.6022 48.929L73.0356 48.929L73.6536 48.929L76.7864 52.2549L74.7555 52.2699Z" fill="white"/>
<path d="M72.0678 47.0951C72.0678 47.0951 71.3641 46.3241 70.7814 45.7059H71.0783H71.2238L72.5096 47.0951L72.0678 47.0951Z" fill="white"/>
<path d="M72.8999 47.0863C72.8999 47.0863 72.1962 46.3153 71.6135 45.6971H71.9103H72.0559L73.3417 47.0863L72.8999 47.0863Z" fill="#1B47C3"/>
<path d="M73.6566 47.0863C73.6566 47.0863 72.9529 46.3153 72.3702 45.6971H72.6671H72.8126L74.0985 47.0863L73.6566 47.0863Z" fill="#1B47C3"/>
<path d="M74.8024 50.1472C74.8024 50.1472 74.1004 49.3683 73.4648 48.6276L74.118 48.6276L74.3943 48.6375L75.7108 50.1731L74.8024 50.1472Z" fill="#1B47C3"/>
<path d="M72.3022 50.7115C72.3022 50.7115 72.1913 51.3753 70.686 49.7634L70.5252 48.3914L70.2277 47.7578L70.686 47.932L73.8049 51.273L72.3022 50.7115Z" fill="#1B47C3"/>
<path d="M71.8475 47.3527C71.8475 47.3527 71.2648 48.9751 70.4868 48.1419V45.7644L70.9489 45.532L71.1536 45.7644L72.7655 47.4915L71.8475 47.3527Z" fill="#1B47C3"/>
</g>
<path d="M83.532 45.04V43.878H86.164V54H84.876V45.04H83.532ZM88.3524 48.834C88.3524 47.2287 88.6137 45.978 89.1364 45.082C89.659 44.1767 90.5737 43.724 91.8804 43.724C93.1777 43.724 94.0877 44.1767 94.6104 45.082C95.133 45.978 95.3944 47.2287 95.3944 48.834C95.3944 50.4673 95.133 51.7367 94.6104 52.642C94.0877 53.5473 93.1777 54 91.8804 54C90.5737 54 89.659 53.5473 89.1364 52.642C88.6137 51.7367 88.3524 50.4673 88.3524 48.834ZM94.1344 48.834C94.1344 48.022 94.0784 47.336 93.9664 46.776C93.8637 46.2067 93.6444 45.7493 93.3084 45.404C92.9817 45.0587 92.5057 44.886 91.8804 44.886C91.2457 44.886 90.7604 45.0587 90.4244 45.404C90.0977 45.7493 89.8784 46.2067 89.7664 46.776C89.6637 47.336 89.6124 48.022 89.6124 48.834C89.6124 49.674 89.6637 50.3787 89.7664 50.948C89.8784 51.5173 90.0977 51.9747 90.4244 52.32C90.7604 52.6653 91.2457 52.838 91.8804 52.838C92.5057 52.838 92.9817 52.6653 93.3084 52.32C93.6444 51.9747 93.8637 51.5173 93.9664 50.948C94.0784 50.3787 94.1344 49.674 94.1344 48.834ZM97.1434 48.834C97.1434 47.2287 97.4047 45.978 97.9274 45.082C98.4501 44.1767 99.3647 43.724 100.671 43.724C101.969 43.724 102.879 44.1767 103.401 45.082C103.924 45.978 104.185 47.2287 104.185 48.834C104.185 50.4673 103.924 51.7367 103.401 52.642C102.879 53.5473 101.969 54 100.671 54C99.3647 54 98.4501 53.5473 97.9274 52.642C97.4047 51.7367 97.1434 50.4673 97.1434 48.834ZM102.925 48.834C102.925 48.022 102.869 47.336 102.757 46.776C102.655 46.2067 102.435 45.7493 102.099 45.404C101.773 45.0587 101.297 44.886 100.671 44.886C100.037 44.886 99.5514 45.0587 99.2154 45.404C98.8887 45.7493 98.6694 46.2067 98.5574 46.776C98.4547 47.336 98.4034 48.022 98.4034 48.834C98.4034 49.674 98.4547 50.3787 98.5574 50.948C98.6694 51.5173 98.8887 51.9747 99.2154 52.32C99.5514 52.6653 100.037 52.838 100.671 52.838C101.297 52.838 101.773 52.6653 102.099 52.32C102.435 51.9747 102.655 51.5173 102.757 50.948C102.869 50.3787 102.925 49.674 102.925 48.834ZM105.934 48.834C105.934 47.2287 106.196 45.978 106.718 45.082C107.241 44.1767 108.156 43.724 109.462 43.724C110.76 43.724 111.67 44.1767 112.192 45.082C112.715 45.978 112.976 47.2287 112.976 48.834C112.976 50.4673 112.715 51.7367 112.192 52.642C111.67 53.5473 110.76 54 109.462 54C108.156 54 107.241 53.5473 106.718 52.642C106.196 51.7367 105.934 50.4673 105.934 48.834ZM111.716 48.834C111.716 48.022 111.66 47.336 111.548 46.776C111.446 46.2067 111.226 45.7493 110.89 45.404C110.564 45.0587 110.088 44.886 109.462 44.886C108.828 44.886 108.342 45.0587 108.006 45.404C107.68 45.7493 107.46 46.2067 107.348 46.776C107.246 47.336 107.194 48.022 107.194 48.834C107.194 49.674 107.246 50.3787 107.348 50.948C107.46 51.5173 107.68 51.9747 108.006 52.32C108.342 52.6653 108.828 52.838 109.462 52.838C110.088 52.838 110.564 52.6653 110.89 52.32C111.226 51.9747 111.446 51.5173 111.548 50.948C111.66 50.3787 111.716 49.674 111.716 48.834ZM123.806 54L121.482 50.01H119.942V54H118.668V44.242H121.818C122.555 44.242 123.176 44.368 123.68 44.62C124.193 44.872 124.576 45.2127 124.828 45.642C125.08 46.0713 125.206 46.5613 125.206 47.112C125.206 47.784 125.01 48.3767 124.618 48.89C124.235 49.4033 123.657 49.744 122.882 49.912L125.332 54H123.806ZM119.942 48.988H121.818C122.509 48.988 123.027 48.82 123.372 48.484C123.717 48.1387 123.89 47.6813 123.89 47.112C123.89 46.5333 123.717 46.0853 123.372 45.768C123.036 45.4507 122.518 45.292 121.818 45.292H119.942V48.988ZM130.531 54.126C129.813 54.126 129.159 53.9627 128.571 53.636C127.993 53.3093 127.535 52.8473 127.199 52.25C126.873 51.6433 126.709 50.9433 126.709 50.15C126.709 49.366 126.877 48.6753 127.213 48.078C127.559 47.4713 128.025 47.0093 128.613 46.692C129.201 46.3653 129.859 46.202 130.587 46.202C131.315 46.202 131.973 46.3653 132.561 46.692C133.149 47.0093 133.611 47.4667 133.947 48.064C134.293 48.6613 134.465 49.3567 134.465 50.15C134.465 50.9433 134.288 51.6433 133.933 52.25C133.588 52.8473 133.117 53.3093 132.519 53.636C131.922 53.9627 131.259 54.126 130.531 54.126ZM130.531 53.006C130.989 53.006 131.418 52.8987 131.819 52.684C132.221 52.4693 132.543 52.1473 132.785 51.718C133.037 51.2887 133.163 50.766 133.163 50.15C133.163 49.534 133.042 49.0113 132.799 48.582C132.557 48.1527 132.239 47.8353 131.847 47.63C131.455 47.4153 131.031 47.308 130.573 47.308C130.107 47.308 129.677 47.4153 129.285 47.63C128.903 47.8353 128.595 48.1527 128.361 48.582C128.128 49.0113 128.011 49.534 128.011 50.15C128.011 50.7753 128.123 51.3027 128.347 51.732C128.581 52.1613 128.889 52.4833 129.271 52.698C129.654 52.9033 130.074 53.006 130.531 53.006ZM135.665 50.15C135.665 49.3567 135.823 48.666 136.141 48.078C136.458 47.4807 136.897 47.0187 137.457 46.692C138.026 46.3653 138.675 46.202 139.403 46.202C140.345 46.202 141.12 46.4307 141.727 46.888C142.343 47.3453 142.749 47.98 142.945 48.792H141.573C141.442 48.3253 141.185 47.9567 140.803 47.686C140.429 47.4153 139.963 47.28 139.403 47.28C138.675 47.28 138.087 47.532 137.639 48.036C137.191 48.5307 136.967 49.2353 136.967 50.15C136.967 51.074 137.191 51.788 137.639 52.292C138.087 52.796 138.675 53.048 139.403 53.048C139.963 53.048 140.429 52.9173 140.803 52.656C141.176 52.3947 141.433 52.0213 141.573 51.536H142.945C142.739 52.32 142.329 52.95 141.713 53.426C141.097 53.8927 140.327 54.126 139.403 54.126C138.675 54.126 138.026 53.9627 137.457 53.636C136.897 53.3093 136.458 52.8473 136.141 52.25C135.823 51.6527 135.665 50.9527 135.665 50.15ZM148.928 54L145.918 50.612V54H144.644V43.64H145.918V49.73L148.872 46.328H150.65L147.038 50.15L150.664 54H148.928ZM154.565 54.126C153.977 54.126 153.45 54.028 152.983 53.832C152.517 53.6267 152.148 53.3467 151.877 52.992C151.607 52.628 151.457 52.2127 151.429 51.746H152.745C152.783 52.1287 152.96 52.4413 153.277 52.684C153.604 52.9267 154.029 53.048 154.551 53.048C155.037 53.048 155.419 52.9407 155.699 52.726C155.979 52.5113 156.119 52.2407 156.119 51.914C156.119 51.578 155.97 51.3307 155.671 51.172C155.373 51.004 154.911 50.8407 154.285 50.682C153.716 50.5327 153.249 50.3833 152.885 50.234C152.531 50.0753 152.223 49.8467 151.961 49.548C151.709 49.24 151.583 48.8387 151.583 48.344C151.583 47.952 151.7 47.5927 151.933 47.266C152.167 46.9393 152.498 46.6827 152.927 46.496C153.357 46.3 153.847 46.202 154.397 46.202C155.247 46.202 155.933 46.4167 156.455 46.846C156.978 47.2753 157.258 47.8633 157.295 48.61H156.021C155.993 48.2087 155.83 47.8867 155.531 47.644C155.242 47.4013 154.85 47.28 154.355 47.28C153.898 47.28 153.534 47.378 153.263 47.574C152.993 47.77 152.857 48.0267 152.857 48.344C152.857 48.596 152.937 48.806 153.095 48.974C153.263 49.1327 153.469 49.2633 153.711 49.366C153.963 49.4593 154.309 49.5667 154.747 49.688C155.298 49.8373 155.746 49.9867 156.091 50.136C156.437 50.276 156.731 50.4907 156.973 50.78C157.225 51.0693 157.356 51.4473 157.365 51.914C157.365 52.334 157.249 52.712 157.015 53.048C156.782 53.384 156.451 53.65 156.021 53.846C155.601 54.0327 155.116 54.126 154.565 54.126ZM166.018 47.378H164.408V54H163.134V47.378H162.14V46.328H163.134V45.782C163.134 44.9233 163.354 44.298 163.792 43.906C164.24 43.5047 164.954 43.304 165.934 43.304V44.368C165.374 44.368 164.978 44.48 164.744 44.704C164.52 44.9187 164.408 45.278 164.408 45.782V46.328H166.018V47.378ZM170.85 54.126C170.131 54.126 169.478 53.9627 168.89 53.636C168.311 53.3093 167.854 52.8473 167.518 52.25C167.191 51.6433 167.028 50.9433 167.028 50.15C167.028 49.366 167.196 48.6753 167.532 48.078C167.877 47.4713 168.344 47.0093 168.932 46.692C169.52 46.3653 170.178 46.202 170.906 46.202C171.634 46.202 172.292 46.3653 172.88 46.692C173.468 47.0093 173.93 47.4667 174.266 48.064C174.611 48.6613 174.784 49.3567 174.784 50.15C174.784 50.9433 174.606 51.6433 174.252 52.25C173.906 52.8473 173.435 53.3093 172.838 53.636C172.24 53.9627 171.578 54.126 170.85 54.126ZM170.85 53.006C171.307 53.006 171.736 52.8987 172.138 52.684C172.539 52.4693 172.861 52.1473 173.104 51.718C173.356 51.2887 173.482 50.766 173.482 50.15C173.482 49.534 173.36 49.0113 173.118 48.582C172.875 48.1527 172.558 47.8353 172.166 47.63C171.774 47.4153 171.349 47.308 170.892 47.308C170.425 47.308 169.996 47.4153 169.604 47.63C169.221 47.8353 168.913 48.1527 168.68 48.582C168.446 49.0113 168.33 49.534 168.33 50.15C168.33 50.7753 168.442 51.3027 168.666 51.732C168.899 52.1613 169.207 52.4833 169.59 52.698C169.972 52.9033 170.392 53.006 170.85 53.006ZM177.733 47.574C177.957 47.1353 178.274 46.7947 178.685 46.552C179.105 46.3093 179.614 46.188 180.211 46.188V47.504H179.875C178.447 47.504 177.733 48.2787 177.733 49.828V54H176.459V46.328H177.733V47.574ZM192.414 49.87C192.414 50.1127 192.4 50.3693 192.372 50.64H186.24C186.287 51.396 186.543 51.9887 187.01 52.418C187.486 52.838 188.06 53.048 188.732 53.048C189.283 53.048 189.74 52.922 190.104 52.67C190.477 52.4087 190.739 52.0633 190.888 51.634H192.26C192.055 52.3713 191.644 52.9733 191.028 53.44C190.412 53.8973 189.647 54.126 188.732 54.126C188.004 54.126 187.351 53.9627 186.772 53.636C186.203 53.3093 185.755 52.8473 185.428 52.25C185.101 51.6433 184.938 50.9433 184.938 50.15C184.938 49.3567 185.097 48.6613 185.414 48.064C185.731 47.4667 186.175 47.0093 186.744 46.692C187.323 46.3653 187.985 46.202 188.732 46.202C189.46 46.202 190.104 46.3607 190.664 46.678C191.224 46.9953 191.653 47.434 191.952 47.994C192.26 48.5447 192.414 49.17 192.414 49.87ZM191.098 49.604C191.098 49.1187 190.991 48.7033 190.776 48.358C190.561 48.0033 190.267 47.7373 189.894 47.56C189.53 47.3733 189.124 47.28 188.676 47.28C188.032 47.28 187.481 47.4853 187.024 47.896C186.576 48.3067 186.319 48.876 186.254 49.604H191.098ZM193.62 50.136C193.62 49.352 193.778 48.666 194.096 48.078C194.413 47.4807 194.847 47.0187 195.398 46.692C195.958 46.3653 196.578 46.202 197.26 46.202C197.932 46.202 198.515 46.3467 199.01 46.636C199.504 46.9253 199.873 47.2893 200.116 47.728V46.328H201.404V54H200.116V52.572C199.864 53.02 199.486 53.3933 198.982 53.692C198.487 53.9813 197.908 54.126 197.246 54.126C196.564 54.126 195.948 53.958 195.398 53.622C194.847 53.286 194.413 52.8147 194.096 52.208C193.778 51.6013 193.62 50.9107 193.62 50.136ZM200.116 50.15C200.116 49.5713 199.999 49.0673 199.766 48.638C199.532 48.2087 199.215 47.882 198.814 47.658C198.422 47.4247 197.988 47.308 197.512 47.308C197.036 47.308 196.602 47.42 196.21 47.644C195.818 47.868 195.505 48.1947 195.272 48.624C195.038 49.0533 194.922 49.5573 194.922 50.136C194.922 50.724 195.038 51.2373 195.272 51.676C195.505 52.1053 195.818 52.4367 196.21 52.67C196.602 52.894 197.036 53.006 197.512 53.006C197.988 53.006 198.422 52.894 198.814 52.67C199.215 52.4367 199.532 52.1053 199.766 51.676C199.999 51.2373 200.116 50.7287 200.116 50.15ZM203.081 50.15C203.081 49.3567 203.239 48.666 203.557 48.078C203.874 47.4807 204.313 47.0187 204.873 46.692C205.442 46.3653 206.091 46.202 206.819 46.202C207.761 46.202 208.536 46.4307 209.143 46.888C209.759 47.3453 210.165 47.98 210.361 48.792H208.989C208.858 48.3253 208.601 47.9567 208.219 47.686C207.845 47.4153 207.379 47.28 206.819 47.28C206.091 47.28 205.503 47.532 205.055 48.036C204.607 48.5307 204.383 49.2353 204.383 50.15C204.383 51.074 204.607 51.788 205.055 52.292C205.503 52.796 206.091 53.048 206.819 53.048C207.379 53.048 207.845 52.9173 208.219 52.656C208.592 52.3947 208.849 52.0213 208.989 51.536H210.361C210.155 52.32 209.745 52.95 209.129 53.426C208.513 53.8927 207.743 54.126 206.819 54.126C206.091 54.126 205.442 53.9627 204.873 53.636C204.313 53.3093 203.874 52.8473 203.557 52.25C203.239 51.6527 203.081 50.9527 203.081 50.15ZM215.868 46.188C216.447 46.188 216.97 46.314 217.436 46.566C217.903 46.8087 218.267 47.1773 218.528 47.672C218.799 48.1667 218.934 48.7687 218.934 49.478V54H217.674V49.66C217.674 48.8947 217.483 48.3113 217.1 47.91C216.718 47.4993 216.195 47.294 215.532 47.294C214.86 47.294 214.324 47.504 213.922 47.924C213.53 48.344 213.334 48.9553 213.334 49.758V54H212.06V43.64H213.334V47.42C213.586 47.028 213.932 46.7247 214.37 46.51C214.818 46.2953 215.318 46.188 215.868 46.188ZM226.302 47.378V51.9C226.302 52.2733 226.381 52.5393 226.54 52.698C226.699 52.8473 226.974 52.922 227.366 52.922H228.304V54H227.156C226.447 54 225.915 53.8367 225.56 53.51C225.205 53.1833 225.028 52.6467 225.028 51.9V47.378H224.034V46.328H225.028V44.396H226.302V46.328H228.304V47.378H226.302ZM229.372 50.136C229.372 49.352 229.53 48.666 229.848 48.078C230.165 47.4807 230.599 47.0187 231.15 46.692C231.71 46.3653 232.33 46.202 233.012 46.202C233.684 46.202 234.267 46.3467 234.762 46.636C235.256 46.9253 235.625 47.2893 235.868 47.728V46.328H237.156V54H235.868V52.572C235.616 53.02 235.238 53.3933 234.734 53.692C234.239 53.9813 233.66 54.126 232.998 54.126C232.316 54.126 231.7 53.958 231.15 53.622C230.599 53.286 230.165 52.8147 229.848 52.208C229.53 51.6013 229.372 50.9107 229.372 50.136ZM235.868 50.15C235.868 49.5713 235.751 49.0673 235.518 48.638C235.284 48.2087 234.967 47.882 234.566 47.658C234.174 47.4247 233.74 47.308 233.264 47.308C232.788 47.308 232.354 47.42 231.962 47.644C231.57 47.868 231.257 48.1947 231.024 48.624C230.79 49.0533 230.674 49.5573 230.674 50.136C230.674 50.724 230.79 51.2373 231.024 51.676C231.257 52.1053 231.57 52.4367 231.962 52.67C232.354 52.894 232.788 53.006 233.264 53.006C233.74 53.006 234.174 52.894 234.566 52.67C234.967 52.4367 235.284 52.1053 235.518 51.676C235.751 51.2373 235.868 50.7287 235.868 50.15ZM242.024 54.126C241.436 54.126 240.909 54.028 240.442 53.832C239.976 53.6267 239.607 53.3467 239.336 52.992C239.066 52.628 238.916 52.2127 238.888 51.746H240.204C240.242 52.1287 240.419 52.4413 240.736 52.684C241.063 52.9267 241.488 53.048 242.01 53.048C242.496 53.048 242.878 52.9407 243.158 52.726C243.438 52.5113 243.578 52.2407 243.578 51.914C243.578 51.578 243.429 51.3307 243.13 51.172C242.832 51.004 242.37 50.8407 241.744 50.682C241.175 50.5327 240.708 50.3833 240.344 50.234C239.99 50.0753 239.682 49.8467 239.42 49.548C239.168 49.24 239.042 48.8387 239.042 48.344C239.042 47.952 239.159 47.5927 239.392 47.266C239.626 46.9393 239.957 46.6827 240.386 46.496C240.816 46.3 241.306 46.202 241.856 46.202C242.706 46.202 243.392 46.4167 243.914 46.846C244.437 47.2753 244.717 47.8633 244.754 48.61H243.48C243.452 48.2087 243.289 47.8867 242.99 47.644C242.701 47.4013 242.309 47.28 241.814 47.28C241.357 47.28 240.993 47.378 240.722 47.574C240.452 47.77 240.316 48.0267 240.316 48.344C240.316 48.596 240.396 48.806 240.554 48.974C240.722 49.1327 240.928 49.2633 241.17 49.366C241.422 49.4593 241.768 49.5667 242.206 49.688C242.757 49.8373 243.205 49.9867 243.55 50.136C243.896 50.276 244.19 50.4907 244.432 50.78C244.684 51.0693 244.815 51.4473 244.824 51.914C244.824 52.334 244.708 52.712 244.474 53.048C244.241 53.384 243.91 53.65 243.48 53.846C243.06 54.0327 242.575 54.126 242.024 54.126ZM250.907 54L247.897 50.612V54H246.623V43.64H247.897V49.73L250.851 46.328H252.629L249.017 50.15L252.643 54H250.907Z" fill="#1B47C3"/>
<defs>
<filter id="filter0_d_1_4751" x="0" y="0" width="64" height="64" filterUnits="userSpaceOnUse" color-interpolation-filters="sRGB">
<feFlood flood-opacity="0" result="BackgroundImageFix"/>
<feColorMatrix in="SourceAlpha" type="matrix" values="0 0 0 0 0 0 0 0 0 0 0 0 0 0 0 0 0 0 127 0" result="hardAlpha"/>
<feOffset dy="4"/>
<feGaussianBlur stdDeviation="4"/>
<feComposite in2="hardAlpha" operator="out"/>
<feColorMatrix type="matrix" values="0 0 0 0 0.105882 0 0 0 0 0.278431 0 0 0 0 0.764706 0 0 0 0.16 0"/>
<feBlend mode="normal" in2="BackgroundImageFix" result="effect1_dropShadow_1_4751"/>
<feBlend mode="normal" in="SourceGraphic" in2="effect1_dropShadow_1_4751" result="shape"/>
</filter>
<clipPath id="clip0_1_4751">
<rect width="9.25536" height="7.98254" fill="white" transform="translate(69.3772 45.4006)"/>
</clipPath>
</defs>
</svg>
