<svg width="36" height="36" viewBox="0 0 36 36" fill="none" xmlns="http://www.w3.org/2000/svg">
<rect width="36" height="36" rx="12" fill="#256FF8"/>
<path d="M9 21.2908V22.375C9 23.2713 12.0234 24 15.75 24C19.4766 24 22.5 23.2713 22.5 22.375V21.2908C21.048 22.0297 18.3938 22.375 15.75 22.375C13.1063 22.375 10.452 22.0297 9 21.2908ZM20.25 14.25C23.9766 14.25 27 13.5213 27 12.625C27 11.7287 23.9766 11 20.25 11C16.5234 11 13.5 11.7287 13.5 12.625C13.5 13.5213 16.5234 14.25 20.25 14.25ZM9 18.6273V19.9375C9 20.8338 12.0234 21.5625 15.75 21.5625C19.4766 21.5625 22.5 20.8338 22.5 19.9375V18.6273C21.048 19.4906 18.3902 19.9375 15.75 19.9375C13.1098 19.9375 10.452 19.4906 9 18.6273ZM23.625 18.9066C25.6395 18.6248 27 18.1018 27 17.5V16.4158C26.1844 16.8322 24.9855 17.1166 23.625 17.2918V18.9066ZM15.75 15.0625C12.0234 15.0625 9 15.9715 9 17.0938C9 18.216 12.0234 19.125 15.75 19.125C19.4766 19.125 22.5 18.216 22.5 17.0938C22.5 15.9715 19.4766 15.0625 15.75 15.0625ZM23.4598 16.492C25.5691 16.2178 27 15.6795 27 15.0625V13.9783C25.752 14.6156 23.6074 14.9584 21.3504 15.0396C22.3875 15.4027 23.1504 15.8902 23.4598 16.492Z" fill="white"/>
</svg>
