<svg width="36" height="36" viewBox="0 0 36 36" fill="none" xmlns="http://www.w3.org/2000/svg">
<rect width="36" height="36" rx="12" fill="#6556EE"/>
<path d="M10.0616 17.5104C14.2082 15.7042 16.9727 14.5133 18.3549 13.938C22.306 12.2951 23.126 12.0098 23.6616 12.0001C23.7793 11.9982 24.0416 12.0273 24.2127 12.1656C24.3549 12.2823 24.3949 12.4401 24.4149 12.5509C24.4327 12.6615 24.4571 12.9138 24.4371 13.1106C24.2238 15.3595 23.2971 20.8169 22.826 23.3357C22.6282 24.4015 22.2349 24.7588 21.8549 24.7937C21.0282 24.8697 20.4016 24.248 19.6016 23.7237C18.3505 22.9031 17.6438 22.3924 16.4282 21.5917C15.0238 20.6664 15.9349 20.1577 16.7349 19.3266C16.9438 19.1091 20.5838 15.7991 20.6527 15.4989C20.6616 15.4613 20.6705 15.3213 20.586 15.2475C20.5038 15.1735 20.3816 15.1989 20.2927 15.2189C20.166 15.2473 18.1682 16.5691 14.2927 19.184C13.726 19.5737 13.2127 19.7637 12.7505 19.7537C12.2438 19.7429 11.266 19.4666 10.5394 19.2306C9.65047 18.9411 8.94158 18.788 9.00381 18.2962C9.03492 18.0402 9.38825 17.7782 10.0616 17.5104Z" fill="white"/>
</svg>
