<svg width="42" height="38" viewBox="0 0 42 38" fill="none" xmlns="http://www.w3.org/2000/svg">
<path d="M33.1431 25.2631H16.7368V24.4819C16.7368 24.0522 16.3853 23.7006 15.9556 23.7006H14.3931C13.9634 23.7006 13.6118 24.0522 13.6118 24.4819V25.2631H9.70557C9.27588 25.2631 8.92432 25.6147 8.92432 26.0444V27.6069C8.92432 28.0366 9.27588 28.3881 9.70557 28.3881H13.6118V29.1694C13.6118 29.5991 13.9634 29.9506 14.3931 29.9506H15.9556C16.3853 29.9506 16.7368 29.5991 16.7368 29.1694V28.3881H33.1431C33.5728 28.3881 33.9243 28.0366 33.9243 27.6069V26.0444C33.9243 25.6147 33.5728 25.2631 33.1431 25.2631ZM33.1431 17.4506H29.2368V16.6694C29.2368 16.2397 28.8853 15.8881 28.4556 15.8881H26.8931C26.4634 15.8881 26.1118 16.2397 26.1118 16.6694V17.4506H9.70557C9.27588 17.4506 8.92432 17.8022 8.92432 18.2319V19.7944C8.92432 20.2241 9.27588 20.5756 9.70557 20.5756H26.1118V21.3569C26.1118 21.7866 26.4634 22.1381 26.8931 22.1381H28.4556C28.8853 22.1381 29.2368 21.7866 29.2368 21.3569V20.5756H33.1431C33.5728 20.5756 33.9243 20.2241 33.9243 19.7944V18.2319C33.9243 17.8022 33.5728 17.4506 33.1431 17.4506ZM33.1431 9.63812H22.9868V8.85687C22.9868 8.42719 22.6353 8.07562 22.2056 8.07562H20.6431C20.2134 8.07562 19.8618 8.42719 19.8618 8.85687V9.63812H9.70557C9.27588 9.63812 8.92432 9.98969 8.92432 10.4194V11.9819C8.92432 12.4116 9.27588 12.7631 9.70557 12.7631H19.8618V13.5444C19.8618 13.9741 20.2134 14.3256 20.6431 14.3256H22.2056C22.6353 14.3256 22.9868 13.9741 22.9868 13.5444V12.7631H33.1431C33.5728 12.7631 33.9243 12.4116 33.9243 11.9819V10.4194C33.9243 9.98969 33.5728 9.63812 33.1431 9.63812Z" fill="#CDCDCD"/>
</svg>
