<svg width="31" height="30" viewBox="0 0 31 30" fill="none" xmlns="http://www.w3.org/2000/svg">
<path d="M26.7046 8.10057L21.0034 11.6133L15.5366 4.32128C15.5146 4.29193 15.4861 4.26811 15.4533 4.2517C15.4205 4.23529 15.3843 4.22675 15.3477 4.22675C15.311 4.22675 15.2748 4.23529 15.242 4.2517C15.2092 4.26811 15.1807 4.29193 15.1587 4.32128L9.69482 11.6133L3.99072 8.10057C3.82373 7.99803 3.60693 8.13573 3.6333 8.33202L5.87158 25.3418C5.9038 25.5732 6.10302 25.7519 6.34033 25.7519H24.3608C24.5952 25.7519 24.7974 25.5762 24.8267 25.3418L27.0649 8.33202C27.0884 8.13573 26.8745 7.99803 26.7046 8.10057ZM15.3491 21.5098C13.5298 21.5098 12.0503 20.0303 12.0503 18.2109C12.0503 16.3916 13.5298 14.9121 15.3491 14.9121C17.1685 14.9121 18.6479 16.3916 18.6479 18.2109C18.6479 20.0303 17.1685 21.5098 15.3491 21.5098ZM15.3491 16.7959C14.5698 16.7959 13.937 17.4287 13.937 18.2109C13.937 18.9902 14.5698 19.626 15.3491 19.626C16.1284 19.626 16.7612 18.9932 16.7612 18.2109C16.7612 17.4316 16.1284 16.7959 15.3491 16.7959Z" fill="#EEEEEE"/>
</svg>
