<svg xmlns="http://www.w3.org/2000/svg" width="30" height="28" fill="none" viewBox="0 0 30 28">
  <rect width="25.183" height="24" x="2.349" y="2" fill="#1B47C3" stroke="#fff" stroke-width="4" rx="3"/>
  <g clip-path="url(#a)">
    <path fill="#fff" d="M18.027 16.505c2.737 0 4.955-2.28 4.955-5.092S20.764 6.32 18.027 6.32v10.184Zm-10.334 0h10.334V6.32H7.693v10.184Z"/>
    <path fill="#1B47C3" d="M18.098 9.522H8.472c-.977 0-1.77.814-1.77 1.818s.793 1.819 1.77 1.819h9.626c.977 0 1.77-.815 1.77-1.819s-.793-1.818-1.77-1.818Z"/>
    <path fill="#fff" d="M16.777 21.624s-3.99-4.05-7.668-7.793h4.989l7.619 7.758-4.94.035ZM10.241 9.553s-1.71-1.799-3.128-3.241h1.076l3.127 3.24H10.24Z"/>
    <path fill="#1B47C3" d="M12.265 9.532s-1.712-1.798-3.129-3.24h1.076l3.127 3.24h-1.074Zm1.84 0s-1.711-1.798-3.128-3.24h1.076l3.127 3.24h-1.075Zm2.787 7.141s-1.707-1.817-3.253-3.545h1.588l.672.023 3.202 3.582-2.21-.06Zm-6.081 1.316s-.27 1.549-3.93-2.212l-.39-3.2-.725-1.478 1.115.406 7.585 7.794-3.655-1.31Z"/>
    <path fill="#1B47C3" d="M9.706 10.154s-1.418 3.784-3.31 1.84V6.45l1.124-.543.498.543 3.92 4.029-2.232-.324Z"/>
  </g>
  <defs>
    <clipPath id="a">
      <path fill="#fff" d="M3.698 5.6h22.508v18.621H3.698z"/>
    </clipPath>
  </defs>
</svg>
