<svg width="36" height="37" viewBox="0 0 36 37" fill="none" xmlns="http://www.w3.org/2000/svg">
<rect y="0.5" width="36" height="36" rx="12" fill="white"/>
<path d="M25.4844 23.5781H23.9219V22.0156C23.9219 21.9297 23.8516 21.8594 23.7657 21.8594H22.8282C22.7423 21.8594 22.6719 21.9297 22.6719 22.0156V23.5781H21.1094C21.0235 23.5781 20.9532 23.6484 20.9532 23.7344V24.6719C20.9532 24.7578 21.0235 24.8281 21.1094 24.8281H22.6719V26.3906C22.6719 26.4765 22.7423 26.5469 22.8282 26.5469H23.7657C23.8516 26.5469 23.9219 26.4765 23.9219 26.3906V24.8281H25.4844C25.5704 24.8281 25.6407 24.7578 25.6407 24.6719V23.7344C25.6407 23.6484 25.5704 23.5781 25.4844 23.5781ZM15.3575 18.2344C15.3399 18.0644 15.3301 17.8926 15.3301 17.7187C15.3301 17.4082 15.3594 17.1055 15.4141 16.8105C15.4278 16.7402 15.3907 16.668 15.3262 16.6387C15.0606 16.5195 14.8165 16.3555 14.6055 16.1484C14.357 15.9074 14.1614 15.6173 14.0312 15.2964C13.9011 14.9756 13.8393 14.6312 13.8497 14.2852C13.8672 13.6582 14.1192 13.0625 14.5586 12.6133C15.0411 12.1191 15.6895 11.8496 16.379 11.8574C17.002 11.8633 17.6036 12.1035 18.0587 12.5293C18.2129 12.6738 18.3458 12.834 18.4571 13.0059C18.4962 13.0664 18.5723 13.0918 18.6387 13.0684C18.9825 12.9492 19.3458 12.8652 19.7188 12.8262C19.8282 12.8145 19.8907 12.6973 19.8419 12.5996C19.2071 11.3437 17.9102 10.4766 16.4102 10.4531C14.2461 10.4199 12.4415 12.1953 12.4415 14.3594C12.4415 15.5859 13.0059 16.6797 13.8907 17.3965C13.2696 17.6836 12.6973 18.0801 12.2012 18.5762C11.1309 19.6445 10.5254 21.0547 10.4864 22.5605C10.4859 22.5814 10.4895 22.6021 10.4971 22.6215C10.5047 22.6409 10.5162 22.6586 10.5307 22.6736C10.5453 22.6885 10.5627 22.7003 10.5819 22.7084C10.6011 22.7165 10.6218 22.7207 10.6426 22.7207H11.7383C11.8223 22.7207 11.8926 22.6543 11.8946 22.5703C11.9317 21.4375 12.3907 20.3769 13.1973 19.5723C13.7715 18.998 14.4747 18.5996 15.2422 18.4062C15.3165 18.3848 15.3672 18.3125 15.3575 18.2344ZM24.1563 17.7187C24.1563 15.582 22.4395 13.8457 20.3106 13.8125C18.1465 13.7793 16.3438 15.5547 16.3438 17.7187C16.3438 18.9453 16.9102 20.0391 17.793 20.7558C17.1655 21.0467 16.5942 21.4461 16.1055 21.9355C15.0352 23.0039 14.4297 24.414 14.3907 25.918C14.3902 25.9388 14.3938 25.9595 14.4014 25.9789C14.4091 25.9984 14.4205 26.016 14.435 26.031C14.4496 26.0459 14.467 26.0578 14.4862 26.0659C14.5054 26.0739 14.5261 26.0781 14.5469 26.0781H15.6407C15.7247 26.0781 15.795 26.0117 15.7969 25.9277C15.834 24.7949 16.293 23.7344 17.0997 22.9297C17.9415 22.0879 19.0587 21.625 20.2501 21.625C22.4063 21.625 24.1563 19.8769 24.1563 17.7187ZM22.0176 19.4863C21.545 19.959 20.918 20.2187 20.2501 20.2187C19.5821 20.2187 18.9551 19.959 18.4825 19.4863C18.2466 19.2517 18.0603 18.9721 17.9344 18.6641C17.8086 18.3561 17.7459 18.026 17.7501 17.6934C17.7559 17.0527 18.0118 16.4336 18.459 15.9746C18.9278 15.4941 19.5547 15.2266 20.2247 15.2187C20.8868 15.2129 21.5294 15.4707 22.002 15.9336C22.4864 16.4082 22.752 17.043 22.752 17.7187C22.7501 18.3867 22.4903 19.0137 22.0176 19.4863Z" fill="#0D265E"/>
</svg>
