<svg width="60" height="42" viewBox="0 0 60 42" fill="none" xmlns="http://www.w3.org/2000/svg">
<path d="M42.4712 24.595C50.5817 24.595 57.1565 19.4532 57.1565 13.1106C57.1565 6.76795 50.5817 1.62622 42.4712 1.62622V24.595ZM11.8419 24.595H42.4712V1.62622H11.8419V24.595Z" fill="white"/>
<path d="M42.681 8.84497H14.1495C11.2529 8.84497 8.90479 10.6813 8.90479 12.9465C8.90479 15.2118 11.2529 17.0481 14.1495 17.0481H42.681C45.5776 17.0481 47.9258 15.2118 47.9258 12.9465C47.9258 10.6813 45.5776 8.84497 42.681 8.84497Z" fill="#1B47C3"/>
<path d="M38.7669 36.142C38.7669 36.142 26.9385 27.0058 16.0377 18.5641L26.3698 18.564L30.8244 18.5639L53.4063 36.0636L38.7669 36.142Z" fill="white"/>
<path d="M19.3943 8.91491C19.3943 8.91491 14.3219 4.85857 10.1219 1.60602H12.2614H13.3104L22.579 8.91501L19.3943 8.91491Z" fill="white"/>
<path d="M25.3921 8.86925C25.3921 8.86925 20.3197 4.8129 16.1196 1.56036H18.2592H19.3081L28.5768 8.86934L25.3921 8.86925Z" fill="#1C2CBC"/>
<path d="M30.8466 8.86925C30.8466 8.86925 25.7742 4.8129 21.5742 1.56036H23.7137H24.7626L34.0313 8.86934L30.8466 8.86925Z" fill="#1C2CBC"/>
<path d="M39.1057 24.9743C39.1057 24.9743 34.0455 20.8761 29.4642 16.9785L34.172 16.9786L36.1635 17.0306L45.6533 25.1102L39.1057 24.9743Z" fill="#1B47C3"/>
<path d="M21.0836 27.943C21.0836 27.943 20.2842 31.4356 9.43387 22.9543L8.27545 15.7356L6.13043 12.402L9.43421 13.3186L31.9155 30.8972L21.0836 27.943Z" fill="#1B47C3"/>
<path d="M17.8064 10.2709C17.8064 10.2709 13.6061 18.807 7.99768 14.423V1.91428L11.3287 0.691162L12.804 1.91428L24.4233 11.0014L17.8064 10.2709Z" fill="#1B47C3"/>
</svg>
