<svg xmlns="http://www.w3.org/2000/svg" width="32" height="21" fill="none" viewBox="0 0 32 21">
  <path fill="#fff" d="M20.372 12.297c3.89 0 7.044-2.57 7.044-5.742 0-3.171-3.154-5.742-7.044-5.742v11.484Zm-14.692 0h14.692V.813H5.68v11.484Z"/>
  <path fill="#113081" d="M20.473 4.422H6.787c-1.39 0-2.516.919-2.516 2.051 0 1.133 1.127 2.051 2.516 2.051h13.686c1.389 0 2.515-.918 2.515-2.05 0-1.133-1.126-2.052-2.515-2.052Z"/>
  <path fill="#fff" d="M18.595 18.071s-5.673-4.568-10.902-8.789h7.092l10.832 8.75-7.022.039ZM9.303 4.457S6.87 2.43 4.855.803h1.53l4.445 3.655H9.303Z"/>
  <path fill="#113081" d="M12.18 4.435S9.747 2.406 7.732.78h1.529l4.446 3.655H12.18Zm2.616 0S12.363 2.406 10.348.78h1.53l4.446 3.655h-1.528Zm3.962 8.052s-2.428-2.049-4.625-3.998h2.258l.955.026 4.552 4.04-3.14-.068Zm-8.645 1.485s-.383 1.746-5.588-2.495l-.556-3.61-1.028-1.666 1.584.458 10.784 8.79-5.196-1.477Z"/>
  <path fill="#113081" d="M8.541 5.135S6.526 9.403 3.836 7.212V.957L5.434.346l.708.611 5.573 4.544-3.174-.366Z"/>
</svg>
