<svg width="274" height="140" viewBox="0 0 274 140" fill="none" xmlns="http://www.w3.org/2000/svg">
<g clip-path="url(#clip0_2_4144)">
<path d="M0 20C0 8.9543 8.9543 0 20 0H254C265.046 0 274 8.95431 274 20V140H0V20Z" fill="#153990"/>
<path d="M274 32.063C199.5 32.063 177.162 82.3029 137.5 82C88 82 94 32.0631 0 32.0631V140H274V32.063Z" fill="#113081"/>
<path d="M22.3711 20.125L20.9986 19.4987L22.3711 18.8724L22.9973 17.5L23.6236 18.8724L24.996 19.4987L23.6236 20.125L22.9973 21.4974L22.3711 20.125ZM15.6687 22.8299L16.295 21.4574L17.6674 20.8312L16.295 20.2049L15.6687 18.8325L15.0424 20.2049L13.67 20.8312L15.0424 21.4574L15.6687 22.8299ZM18.6668 19.4987L19.393 17.8931L20.9986 17.1669L19.393 16.4407L18.6668 14.835L17.9406 16.4407L16.335 17.1669L17.9406 17.8931L18.6668 19.4987ZM16.0018 27.1604L19.9993 23.1563L22.6642 25.8213L28.3272 19.4521L27.3878 18.5127L22.6642 23.8226L19.9993 21.1576L15.0025 26.1611L16.0018 27.1604Z" fill="white"/>
<path d="M37.5052 22.6962L36.5632 20.0322C36.5072 19.8922 36.4472 19.7282 36.3832 19.5402C36.3232 19.3522 36.2652 19.1482 36.2092 18.9282C36.1532 19.1522 36.0932 19.3602 36.0292 19.5522C35.9692 19.7402 35.9112 19.9042 35.8552 20.0442L34.9192 22.6962H37.5052ZM40.5292 26.0022H39.1312C38.9752 26.0022 38.8472 25.9662 38.7472 25.8942C38.6512 25.8182 38.5792 25.7222 38.5312 25.6062L37.9432 23.9442H34.4752L33.8872 25.6062C33.8472 25.7062 33.7772 25.7982 33.6772 25.8822C33.5772 25.9622 33.4512 26.0022 33.2992 26.0022H31.8892L35.2912 17.2962H37.1332L40.5292 26.0022ZM49.141 21.6462C49.141 22.2822 49.033 22.8682 48.817 23.4042C48.605 23.9362 48.303 24.3942 47.911 24.7782C47.523 25.1622 47.055 25.4622 46.507 25.6782C45.959 25.8942 45.351 26.0022 44.683 26.0022H41.335V17.2962H44.683C45.351 17.2962 45.959 17.4042 46.507 17.6202C47.055 17.8362 47.523 18.1382 47.911 18.5262C48.303 18.9102 48.605 19.3682 48.817 19.9002C49.033 20.4322 49.141 21.0142 49.141 21.6462ZM47.293 21.6462C47.293 21.1902 47.233 20.7802 47.113 20.4162C46.993 20.0522 46.821 19.7442 46.597 19.4922C46.373 19.2402 46.099 19.0462 45.775 18.9102C45.455 18.7742 45.091 18.7062 44.683 18.7062H43.147V24.5922H44.683C45.091 24.5922 45.455 24.5262 45.775 24.3942C46.099 24.2582 46.373 24.0642 46.597 23.8122C46.821 23.5562 46.993 23.2462 47.113 22.8822C47.233 22.5182 47.293 22.1062 47.293 21.6462ZM58.8759 21.6462C58.8759 22.2822 58.7679 22.8722 58.5519 23.4162C58.3399 23.9602 58.0379 24.4302 57.6459 24.8262C57.2579 25.2222 56.7899 25.5342 56.2419 25.7622C55.6939 25.9862 55.0859 26.0982 54.4179 26.0982C53.7499 26.0982 53.1419 25.9862 52.5939 25.7622C52.0459 25.5342 51.5759 25.2222 51.1839 24.8262C50.7919 24.4302 50.4879 23.9602 50.2719 23.4162C50.0599 22.8722 49.9539 22.2822 49.9539 21.6462C49.9539 21.0102 50.0599 20.4222 50.2719 19.8822C50.4879 19.3382 50.7919 18.8682 51.1839 18.4722C51.5759 18.0762 52.0459 17.7662 52.5939 17.5422C53.1419 17.3142 53.7499 17.2002 54.4179 17.2002C55.0859 17.2002 55.6939 17.3142 56.2419 17.5422C56.7899 17.7662 57.2579 18.0782 57.6459 18.4782C58.0379 18.8742 58.3399 19.3442 58.5519 19.8882C58.7679 20.4282 58.8759 21.0142 58.8759 21.6462ZM57.0339 21.6462C57.0339 21.1902 56.9739 20.7822 56.8539 20.4222C56.7339 20.0582 56.5599 19.7502 56.3319 19.4982C56.1079 19.2422 55.8339 19.0482 55.5099 18.9162C55.1899 18.7802 54.8259 18.7122 54.4179 18.7122C54.0099 18.7122 53.6439 18.7802 53.3199 18.9162C52.9959 19.0482 52.7199 19.2422 52.4919 19.4982C52.2679 19.7502 52.0959 20.0582 51.9759 20.4222C51.8559 20.7822 51.7959 21.1902 51.7959 21.6462C51.7959 22.1062 51.8559 22.5182 51.9759 22.8822C52.0959 23.2422 52.2679 23.5482 52.4919 23.8002C52.7199 24.0522 52.9959 24.2462 53.3199 24.3822C53.6439 24.5142 54.0099 24.5802 54.4179 24.5802C54.8259 24.5802 55.1899 24.5142 55.5099 24.3822C55.8339 24.2462 56.1079 24.0522 56.3319 23.8002C56.5599 23.5482 56.7339 23.2422 56.8539 22.8822C56.9739 22.5182 57.0339 22.1062 57.0339 21.6462ZM63.1305 21.6282C63.6945 21.6282 64.1065 21.4922 64.3665 21.2202C64.6305 20.9482 64.7625 20.5762 64.7625 20.1042C64.7625 19.8882 64.7285 19.6922 64.6605 19.5162C64.5965 19.3362 64.4965 19.1842 64.3605 19.0602C64.2285 18.9322 64.0605 18.8342 63.8565 18.7662C63.6525 18.6982 63.4105 18.6642 63.1305 18.6642H61.9905V21.6282H63.1305ZM63.1305 17.2962C63.7265 17.2962 64.2405 17.3662 64.6725 17.5062C65.1085 17.6462 65.4665 17.8422 65.7465 18.0942C66.0265 18.3422 66.2325 18.6382 66.3645 18.9822C66.5005 19.3262 66.5685 19.7002 66.5685 20.1042C66.5685 20.5322 66.4985 20.9242 66.3585 21.2802C66.2185 21.6362 66.0065 21.9422 65.7225 22.1982C65.4385 22.4542 65.0805 22.6542 64.6485 22.7982C64.2165 22.9382 63.7105 23.0082 63.1305 23.0082H61.9905V26.0022H60.1905V17.2962H63.1305ZM73.8759 18.7482H71.3319V26.0022H69.5259V18.7482H66.9819V17.2962H73.8759V18.7482ZM76.7681 26.0022H74.9561V17.2962H76.7681V26.0022ZM87.0009 21.6462C87.0009 22.2822 86.8929 22.8722 86.6769 23.4162C86.4649 23.9602 86.1629 24.4302 85.7709 24.8262C85.3829 25.2222 84.9149 25.5342 84.3669 25.7622C83.8189 25.9862 83.2109 26.0982 82.5429 26.0982C81.8749 26.0982 81.2669 25.9862 80.7189 25.7622C80.1709 25.5342 79.7009 25.2222 79.3089 24.8262C78.9169 24.4302 78.6129 23.9602 78.3969 23.4162C78.1849 22.8722 78.0789 22.2822 78.0789 21.6462C78.0789 21.0102 78.1849 20.4222 78.3969 19.8822C78.6129 19.3382 78.9169 18.8682 79.3089 18.4722C79.7009 18.0762 80.1709 17.7662 80.7189 17.5422C81.2669 17.3142 81.8749 17.2002 82.5429 17.2002C83.2109 17.2002 83.8189 17.3142 84.3669 17.5422C84.9149 17.7662 85.3829 18.0782 85.7709 18.4782C86.1629 18.8742 86.4649 19.3442 86.6769 19.8882C86.8929 20.4282 87.0009 21.0142 87.0009 21.6462ZM85.1589 21.6462C85.1589 21.1902 85.0989 20.7822 84.9789 20.4222C84.8589 20.0582 84.6849 19.7502 84.4569 19.4982C84.2329 19.2422 83.9589 19.0482 83.6349 18.9162C83.3149 18.7802 82.9509 18.7122 82.5429 18.7122C82.1349 18.7122 81.7689 18.7802 81.4449 18.9162C81.1209 19.0482 80.8449 19.2422 80.6169 19.4982C80.3929 19.7502 80.2209 20.0582 80.1009 20.4222C79.9809 20.7822 79.9209 21.1902 79.9209 21.6462C79.9209 22.1062 79.9809 22.5182 80.1009 22.8822C80.2209 23.2422 80.3929 23.5482 80.6169 23.8002C80.8449 24.0522 81.1209 24.2462 81.4449 24.3822C81.7689 24.5142 82.1349 24.5802 82.5429 24.5802C82.9509 24.5802 83.3149 24.5142 83.6349 24.3822C83.9589 24.2462 84.2329 24.0522 84.4569 23.8002C84.6849 23.5482 84.8589 23.2422 84.9789 22.8822C85.0989 22.5182 85.1589 22.1062 85.1589 21.6462ZM95.7735 17.2962V26.0022H94.8435C94.7035 26.0022 94.5855 25.9802 94.4895 25.9362C94.3935 25.8882 94.2995 25.8082 94.2075 25.6962L89.8695 20.1762C89.8815 20.3162 89.8895 20.4542 89.8935 20.5902C89.9015 20.7262 89.9055 20.8522 89.9055 20.9682V26.0022H88.3155V17.2962H89.2635C89.3395 17.2962 89.4035 17.3002 89.4555 17.3082C89.5115 17.3122 89.5615 17.3262 89.6055 17.3502C89.6495 17.3702 89.6915 17.3982 89.7315 17.4342C89.7715 17.4702 89.8155 17.5182 89.8635 17.5782L94.2315 23.1222C94.2155 22.9702 94.2035 22.8242 94.1955 22.6842C94.1875 22.5402 94.1835 22.4042 94.1835 22.2762V17.2962H95.7735Z" fill="white"/>
<path d="M207.49 21C208.97 21 210.167 19.8258 210.167 18.375C210.167 16.9242 208.97 15.75 207.49 15.75C206.01 15.75 204.812 16.9242 204.812 18.375C204.812 19.8258 206.01 21 207.49 21ZM209.326 21.75H209.128C208.63 21.9844 208.078 22.125 207.49 22.125C206.902 22.125 206.352 21.9844 205.852 21.75H205.654C204.134 21.75 202.9 22.9594 202.9 24.45V25.125C202.9 25.7461 203.414 26.25 204.047 26.25H210.932C211.566 26.25 212.08 25.7461 212.08 25.125V24.45C212.08 22.9594 210.846 21.75 209.326 21.75ZM214.375 21C215.642 21 216.67 19.9922 216.67 18.75C216.67 17.5078 215.642 16.5 214.375 16.5C213.108 16.5 212.08 17.5078 212.08 18.75C212.08 19.9922 213.108 21 214.375 21ZM215.522 21.75H215.432C215.099 21.8625 214.748 21.9375 214.375 21.9375C214.002 21.9375 213.651 21.8625 213.318 21.75H213.227C212.74 21.75 212.29 21.8883 211.896 22.1109C212.479 22.7273 212.845 23.5453 212.845 24.45V25.35C212.845 25.4016 212.833 25.4508 212.831 25.5H217.052C217.686 25.5 218.2 24.9961 218.2 24.375C218.2 22.9242 217.002 21.75 215.522 21.75Z" fill="white"/>
</g>
<defs>
<clipPath id="clip0_2_4144">
<rect width="274" height="140" rx="20" fill="white"/>
</clipPath>
</defs>
</svg>
