<svg width="136" height="21" viewBox="0 0 136 21" fill="none" xmlns="http://www.w3.org/2000/svg">
<path d="M20.5795 12.4142C24.5888 12.4142 27.8388 9.88286 27.8388 6.76032C27.8388 3.63778 24.5888 1.10648 20.5795 1.10648V12.4142ZM5.43878 12.4142H20.5795V1.10648H5.43878V12.4142Z" fill="#1B47C3"/>
<path d="M20.6832 4.66032H6.57953C5.14768 4.66032 3.98694 5.56436 3.98694 6.67955C3.98694 7.79474 5.14768 8.69878 6.57953 8.69878H20.6832C22.1151 8.69878 23.2758 7.79474 23.2758 6.67955C23.2758 5.56436 22.1151 4.66032 20.6832 4.66032Z" fill="white"/>
<path d="M18.7485 18.0988C18.7485 18.0988 12.9015 13.6011 7.51297 9.44513L12.6203 9.44507L14.8223 9.44504L25.985 18.0603L18.7485 18.0988Z" fill="#1B47C3"/>
<path d="M9.17222 4.69476C9.17222 4.69476 6.66483 2.6978 4.58868 1.09654H5.64628H6.16479L10.7465 4.69482L9.17222 4.69476Z" fill="white"/>
<path d="M12.1369 4.67229C12.1369 4.67229 9.62951 2.67532 7.55334 1.07407H8.61096H9.12948L13.7112 4.67234L12.1369 4.67229Z" fill="white"/>
<path d="M14.8332 4.67229C14.8332 4.67229 12.3258 2.67532 10.2496 1.07407H11.3072H11.8258L16.4075 4.67234L14.8332 4.67229Z" fill="white"/>
<path d="M18.9159 12.6009C18.9159 12.6009 16.4145 10.5834 14.1499 8.66455L16.477 8.6646L17.4615 8.69019L22.1526 12.6678L18.9159 12.6009Z" fill="white"/>
<path d="M10.0072 14.0624C10.0072 14.0624 9.61209 15.7819 4.24853 11.6064L3.6759 8.05263L2.61557 6.4115L4.2487 6.86269L15.3617 15.5168L10.0072 14.0624Z" fill="white"/>
<path d="M8.80195 5.05646C8.80195 5.05646 6.72568 9.25885 3.95331 7.1006V0.942445L5.59989 0.340294L6.32918 0.942445L12.0729 5.4161L8.80195 5.05646Z" fill="white"/>
<path d="M38.1236 12.4565V16.5H35.6566V12.4565L31.8029 5.86584H33.9779C34.192 5.86584 34.3599 5.91693 34.4815 6.01911C34.6081 6.11643 34.7127 6.24294 34.7954 6.39864L36.2989 9.49328C36.4254 9.73657 36.5398 9.96526 36.642 10.1794C36.7441 10.3886 36.8342 10.5954 36.912 10.7997C36.985 10.5905 37.0677 10.3813 37.1602 10.1721C37.2575 9.95796 37.3694 9.7317 37.4959 9.49328L38.9848 6.39864C39.0189 6.33539 39.0602 6.27213 39.1089 6.20888C39.1576 6.14562 39.2135 6.08967 39.2768 6.04101C39.3449 5.98749 39.4203 5.94613 39.503 5.91693C39.5906 5.88287 39.6855 5.86584 39.7877 5.86584H41.9773L38.1236 12.4565ZM44.3378 8.8145C44.912 8.8145 45.4351 8.90452 45.907 9.08455C46.379 9.26459 46.7829 9.52247 47.1186 9.85821C47.4592 10.194 47.722 10.6027 47.9069 11.0844C48.0966 11.5612 48.1915 12.0989 48.1915 12.6974C48.1915 13.3008 48.0966 13.8457 47.9069 14.3323C47.722 14.814 47.4592 15.2252 47.1186 15.5658C46.7829 15.9015 46.379 16.1618 45.907 16.3467C45.4351 16.5268 44.912 16.6168 44.3378 16.6168C43.7588 16.6168 43.2309 16.5268 42.754 16.3467C42.282 16.1618 41.8733 15.9015 41.5278 15.5658C41.1872 15.2252 40.9221 14.814 40.7323 14.3323C40.5474 13.8457 40.4549 13.3008 40.4549 12.6974C40.4549 12.0989 40.5474 11.5612 40.7323 11.0844C40.9221 10.6027 41.1872 10.194 41.5278 9.85821C41.8733 9.52247 42.282 9.26459 42.754 9.08455C43.2309 8.90452 43.7588 8.8145 44.3378 8.8145ZM44.3378 14.9381C44.8585 14.9381 45.2404 14.7556 45.4837 14.3907C45.7319 14.0209 45.8559 13.4613 45.8559 12.712C45.8559 11.9627 45.7319 11.4055 45.4837 11.0406C45.2404 10.6757 44.8585 10.4932 44.3378 10.4932C43.8026 10.4932 43.4109 10.6757 43.1627 11.0406C42.9146 11.4055 42.7905 11.9627 42.7905 12.712C42.7905 13.4613 42.9146 14.0209 43.1627 14.3907C43.4109 14.7556 43.8026 14.9381 44.3378 14.9381ZM56.1187 8.93128V16.5H54.7173C54.4351 16.5 54.2502 16.3735 54.1626 16.1205L54.0313 15.6825C53.8853 15.8237 53.7344 15.9526 53.5787 16.0694C53.423 16.1813 53.2552 16.2786 53.0751 16.3613C52.9 16.4392 52.7078 16.5 52.4985 16.5438C52.2942 16.5924 52.0703 16.6168 51.8271 16.6168C51.4135 16.6168 51.0461 16.5462 50.725 16.4051C50.4087 16.2591 50.1411 16.0572 49.9221 15.7993C49.7031 15.5414 49.5377 15.2373 49.4258 14.887C49.3139 14.5367 49.2579 14.1523 49.2579 13.7338V8.93128H51.5205V13.7338C51.5205 14.1085 51.6057 14.398 51.776 14.6023C51.9463 14.8067 52.1969 14.9089 52.5277 14.9089C52.7759 14.9089 53.007 14.8578 53.2211 14.7556C53.4401 14.6486 53.6517 14.505 53.8561 14.325V8.93128H56.1187ZM59.7726 10.0991C60.0061 9.69034 60.2737 9.3692 60.5754 9.13564C60.882 8.90209 61.2323 8.78531 61.6264 8.78531C61.967 8.78531 62.2444 8.86559 62.4585 9.02616L62.3125 10.6903C62.2882 10.7973 62.2468 10.8703 62.1884 10.9092C62.1349 10.9481 62.0595 10.9676 61.9622 10.9676C61.9232 10.9676 61.8722 10.9652 61.8089 10.9603C61.7456 10.9554 61.68 10.9506 61.6118 10.9457C61.5437 10.936 61.4732 10.9287 61.4002 10.9238C61.3321 10.9141 61.2688 10.9092 61.2104 10.9092C60.8795 10.9092 60.6143 10.9968 60.4149 11.172C60.2202 11.3471 60.0548 11.5904 59.9185 11.9018V16.5H57.656V8.93128H58.9989C59.1108 8.93128 59.2033 8.94101 59.2763 8.96048C59.3541 8.97994 59.4174 9.01157 59.466 9.05536C59.5195 9.09429 59.5585 9.14781 59.5828 9.21593C59.612 9.28405 59.6363 9.36677 59.6558 9.46408L59.7726 10.0991Z" fill="#0D265E"/>
<path d="M76.6016 11.245C76.6016 12.0235 76.4751 12.7363 76.222 13.3835C75.969 14.0258 75.6114 14.578 75.1491 15.0403C74.6918 15.5025 74.1395 15.8626 73.4923 16.1205C72.8501 16.3735 72.1348 16.5 71.3465 16.5H67.3761V5.98992H71.3465C72.1348 5.98992 72.8501 6.11886 73.4923 6.37675C74.1395 6.62977 74.6918 6.9874 75.1491 7.44965C75.6114 7.9119 75.969 8.4666 76.222 9.11375C76.4751 9.75603 76.6016 10.4664 76.6016 11.245ZM74.8572 11.245C74.8572 10.6416 74.7745 10.0991 74.609 9.61736C74.4485 9.13564 74.2149 8.72935 73.9084 8.39848C73.6067 8.06761 73.2393 7.81459 72.8063 7.63942C72.3732 7.45938 71.8866 7.36937 71.3465 7.36937H69.0912V15.1206H71.3465C71.8866 15.1206 72.3732 15.033 72.8063 14.8578C73.2393 14.6826 73.6067 14.4296 73.9084 14.0987C74.2149 13.763 74.4485 13.3567 74.609 12.8799C74.7745 12.3981 74.8572 11.8532 74.8572 11.245ZM81.3078 8.93858C81.8577 8.93858 82.354 9.0286 82.7968 9.20863C83.2444 9.38866 83.624 9.64412 83.9354 9.97499C84.2516 10.3059 84.4949 10.7073 84.6652 11.1793C84.8355 11.6513 84.9207 12.1816 84.9207 12.7704C84.9207 13.3591 84.8355 13.8895 84.6652 14.3615C84.4949 14.8335 84.2516 15.2373 83.9354 15.5731C83.624 15.9039 83.2444 16.1594 82.7968 16.3394C82.354 16.5195 81.8577 16.6095 81.3078 16.6095C80.7532 16.6095 80.252 16.5195 79.8043 16.3394C79.3615 16.1594 78.982 15.9039 78.6657 15.5731C78.3495 15.2373 78.1062 14.8335 77.9359 14.3615C77.7656 13.8895 77.6804 13.3591 77.6804 12.7704C77.6804 12.1816 77.7656 11.6513 77.9359 11.1793C78.1062 10.7073 78.3495 10.3059 78.6657 9.97499C78.982 9.64412 79.3615 9.38866 79.8043 9.20863C80.252 9.0286 80.7532 8.93858 81.3078 8.93858ZM81.3078 15.3833C81.9793 15.3833 82.4781 15.1595 82.8041 14.7118C83.1349 14.2593 83.3004 13.6146 83.3004 12.7777C83.3004 11.9408 83.1349 11.2961 82.8041 10.8435C82.4781 10.3861 81.9793 10.1575 81.3078 10.1575C80.6266 10.1575 80.1206 10.3861 79.7897 10.8435C79.4589 11.2961 79.2934 11.9408 79.2934 12.7777C79.2934 13.6146 79.4589 14.2593 79.7897 14.7118C80.1206 15.1595 80.6266 15.3833 81.3078 15.3833ZM96.7734 9.05536L94.3867 16.5H93.1386C92.9927 16.5 92.8905 16.4051 92.8321 16.2154L91.3505 11.5807C91.3115 11.4493 91.2751 11.3179 91.241 11.1866C91.2118 11.0552 91.185 10.9263 91.1607 10.7997C91.1072 11.0625 91.0415 11.3252 90.9636 11.588L89.4601 16.2154C89.4066 16.4051 89.2923 16.5 89.1171 16.5H87.9274L85.5407 9.05536H86.7815C86.9032 9.05536 87.0029 9.08699 87.0808 9.15024C87.1635 9.20863 87.217 9.27919 87.2413 9.3619L88.4821 13.6973C88.5308 13.8968 88.5721 14.0914 88.6062 14.2812C88.6451 14.4661 88.6792 14.651 88.7084 14.8359C88.757 14.651 88.8081 14.4661 88.8616 14.2812C88.9152 14.0914 88.9711 13.8968 89.0295 13.6973L90.4235 9.34001C90.4479 9.25242 90.4965 9.18187 90.5695 9.12835C90.6474 9.06996 90.7398 9.04076 90.8469 9.04076H91.5329C91.6449 9.04076 91.7397 9.06996 91.8176 9.12835C91.8954 9.18187 91.9465 9.25242 91.9709 9.34001L93.3284 13.6973C93.3868 13.8968 93.4403 14.0914 93.489 14.2812C93.5425 14.471 93.5912 14.6607 93.635 14.8505C93.669 14.6656 93.7055 14.4783 93.7444 14.2885C93.7834 14.0987 93.8296 13.9017 93.8831 13.6973L95.1458 9.3619C95.175 9.27432 95.2285 9.20133 95.3064 9.14294C95.3842 9.08455 95.4791 9.05536 95.591 9.05536H96.7734ZM99.3852 10.0407C99.5457 9.87524 99.7112 9.72684 99.8815 9.59546C100.057 9.45922 100.242 9.34244 100.436 9.24512C100.631 9.14781 100.838 9.07239 101.057 9.01887C101.276 8.96534 101.514 8.93858 101.772 8.93858C102.181 8.93858 102.538 9.0067 102.845 9.14294C103.156 9.27919 103.416 9.47138 103.626 9.71954C103.84 9.96769 104 10.2669 104.107 10.6173C104.214 10.9627 104.268 11.3447 104.268 11.7632V16.5H102.706V11.7632C102.706 11.262 102.589 10.8727 102.356 10.5954C102.127 10.318 101.777 10.1794 101.305 10.1794C100.954 10.1794 100.628 10.2596 100.327 10.4202C100.03 10.5808 99.7501 10.7997 99.4873 11.0771V16.5H97.9181V9.05536H98.867C99.0811 9.05536 99.2173 9.15511 99.2757 9.3546L99.3852 10.0407ZM107.699 5.69797V16.5H106.13V5.69797H107.699ZM111.271 9.05536V16.5H109.702V9.05536H111.271ZM111.534 6.80737C111.534 6.94848 111.504 7.08229 111.446 7.2088C111.392 7.33531 111.317 7.44722 111.22 7.54453C111.122 7.63698 111.008 7.7124 110.877 7.77079C110.75 7.82432 110.614 7.85108 110.468 7.85108C110.327 7.85108 110.193 7.82432 110.067 7.77079C109.945 7.7124 109.838 7.63698 109.745 7.54453C109.653 7.44722 109.578 7.33531 109.519 7.2088C109.466 7.08229 109.439 6.94848 109.439 6.80737C109.439 6.6614 109.466 6.52515 109.519 6.39864C109.578 6.27213 109.653 6.16265 109.745 6.0702C109.838 5.97289 109.945 5.89747 110.067 5.84395C110.193 5.78556 110.327 5.75636 110.468 5.75636C110.614 5.75636 110.75 5.78556 110.877 5.84395C111.008 5.89747 111.122 5.97289 111.22 6.0702C111.317 6.16265 111.392 6.27213 111.446 6.39864C111.504 6.52515 111.534 6.6614 111.534 6.80737ZM114.71 10.0407C114.87 9.87524 115.036 9.72684 115.206 9.59546C115.381 9.45922 115.566 9.34244 115.761 9.24512C115.955 9.14781 116.162 9.07239 116.381 9.01887C116.6 8.96534 116.838 8.93858 117.096 8.93858C117.505 8.93858 117.863 9.0067 118.169 9.14294C118.48 9.27919 118.741 9.47138 118.95 9.71954C119.164 9.96769 119.325 10.2669 119.432 10.6173C119.539 10.9627 119.592 11.3447 119.592 11.7632V16.5H118.03V11.7632C118.03 11.262 117.914 10.8727 117.68 10.5954C117.451 10.318 117.101 10.1794 116.629 10.1794C116.279 10.1794 115.953 10.2596 115.651 10.4202C115.354 10.5808 115.074 10.7997 114.812 11.0771V16.5H113.242V9.05536H114.191C114.405 9.05536 114.542 9.15511 114.6 9.3546L114.71 10.0407ZM126.308 11.9383C126.308 11.6756 126.269 11.4323 126.191 11.2085C126.118 10.9798 126.009 10.7827 125.863 10.6173C125.717 10.447 125.534 10.3156 125.315 10.2231C125.101 10.1258 124.853 10.0772 124.571 10.0772C124.001 10.0772 123.554 10.2402 123.228 10.5662C122.902 10.8922 122.695 11.3496 122.607 11.9383H126.308ZM122.564 12.9018C122.583 13.3251 122.649 13.6924 122.761 14.0039C122.873 14.3104 123.021 14.5659 123.206 14.7702C123.396 14.9746 123.619 15.1279 123.877 15.23C124.14 15.3273 124.432 15.376 124.753 15.376C125.06 15.376 125.325 15.3419 125.549 15.2738C125.773 15.2008 125.967 15.123 126.133 15.0403C126.298 14.9527 126.439 14.8748 126.556 14.8067C126.673 14.7337 126.78 14.6972 126.877 14.6972C127.004 14.6972 127.101 14.7459 127.169 14.8432L127.614 15.4198C127.429 15.6388 127.22 15.8237 126.987 15.9745C126.753 16.1253 126.505 16.2494 126.242 16.3467C125.979 16.4392 125.709 16.5049 125.432 16.5438C125.155 16.5876 124.885 16.6095 124.622 16.6095C124.106 16.6095 123.627 16.5243 123.184 16.354C122.746 16.1789 122.364 15.9234 122.038 15.5877C121.717 15.2519 121.464 14.8359 121.279 14.3396C121.099 13.8433 121.009 13.2716 121.009 12.6244C121.009 12.1086 121.089 11.6269 121.25 11.1793C121.415 10.7316 121.649 10.3424 121.95 10.0115C122.257 9.68061 122.627 9.42029 123.06 9.23053C123.498 9.0359 123.992 8.93858 124.542 8.93858C124.999 8.93858 125.422 9.014 125.811 9.16484C126.201 9.31081 126.536 9.52734 126.819 9.81442C127.101 10.1015 127.32 10.4543 127.476 10.8727C127.636 11.2863 127.716 11.7583 127.716 12.2887C127.716 12.532 127.69 12.695 127.636 12.7777C127.583 12.8604 127.485 12.9018 127.344 12.9018H122.564ZM133.625 10.4056C133.586 10.4737 133.542 10.5224 133.493 10.5516C133.445 10.5808 133.384 10.5954 133.311 10.5954C133.228 10.5954 133.138 10.571 133.041 10.5224C132.943 10.4689 132.829 10.4105 132.698 10.3472C132.566 10.284 132.411 10.228 132.231 10.1794C132.055 10.1258 131.849 10.0991 131.61 10.0991C131.416 10.0991 131.238 10.1234 131.077 10.1721C130.922 10.2158 130.788 10.2815 130.676 10.3691C130.569 10.4518 130.486 10.5516 130.428 10.6684C130.369 10.7803 130.34 10.9019 130.34 11.0333C130.34 11.2085 130.394 11.3544 130.501 11.4712C130.608 11.588 130.749 11.6902 130.924 11.7778C131.099 11.8605 131.299 11.9359 131.523 12.004C131.747 12.0721 131.975 12.1451 132.209 12.223C132.442 12.3008 132.671 12.3909 132.895 12.493C133.119 12.5952 133.318 12.7217 133.493 12.8726C133.668 13.0185 133.81 13.1986 133.917 13.4127C134.024 13.6219 134.077 13.8773 134.077 14.179C134.077 14.5294 134.014 14.8529 133.887 15.1497C133.761 15.4466 133.576 15.7044 133.333 15.9234C133.089 16.1424 132.785 16.3127 132.42 16.4343C132.06 16.556 131.647 16.6168 131.18 16.6168C130.922 16.6168 130.671 16.5924 130.428 16.5438C130.189 16.5 129.961 16.4392 129.742 16.3613C129.528 16.2786 129.326 16.1813 129.136 16.0694C128.951 15.9575 128.786 15.8358 128.64 15.7044L129.005 15.106C129.048 15.033 129.102 14.977 129.165 14.9381C129.233 14.8943 129.316 14.8724 129.413 14.8724C129.516 14.8724 129.615 14.9065 129.713 14.9746C129.815 15.0378 129.932 15.1084 130.063 15.1862C130.199 15.2641 130.362 15.3371 130.552 15.4052C130.742 15.4685 130.978 15.5001 131.26 15.5001C131.493 15.5001 131.695 15.4733 131.866 15.4198C132.036 15.3614 132.177 15.2836 132.289 15.1862C132.401 15.0889 132.484 14.9794 132.537 14.8578C132.591 14.7313 132.617 14.5975 132.617 14.4564C132.617 14.2666 132.564 14.1109 132.457 13.9893C132.35 13.8676 132.206 13.763 132.026 13.6754C131.851 13.5878 131.649 13.51 131.42 13.4419C131.197 13.3737 130.968 13.3008 130.734 13.2229C130.501 13.145 130.27 13.055 130.041 12.9528C129.817 12.8507 129.615 12.7217 129.435 12.566C129.26 12.4054 129.119 12.2132 129.012 11.9894C128.905 11.7607 128.851 11.4834 128.851 11.1574C128.851 10.8606 128.91 10.5783 129.027 10.3107C129.148 10.0431 129.323 9.80712 129.552 9.60276C129.786 9.3984 130.07 9.23783 130.406 9.12105C130.747 8.9994 131.138 8.93858 131.581 8.93858C132.082 8.93858 132.537 9.01887 132.946 9.17944C133.355 9.34001 133.698 9.55897 133.975 9.83632L133.625 10.4056Z" fill="#0D265E"/>
</svg>
